<svg width="89" height="38" viewBox="0 0 89 38" fill="none" xmlns="http://www.w3.org/2000/svg">
<g clip-path="url(#clip0_209_2112)">
<path d="M2.57381 37.6607L0.421387 37.6668V37.5556C0.536813 37.322 0.550542 37.062 0.601899 36.8131C1.25649 33.6308 1.97515 30.4641 2.75788 27.3129C3.62739 23.8288 4.52335 20.3507 5.50829 16.8965C6.54356 13.2641 7.69478 9.66724 8.84091 6.06885C8.87497 5.96119 8.92531 5.93224 9.03464 5.93275C10.3906 5.93648 11.7452 5.93648 13.0985 5.93275C13.2068 5.93275 13.2586 5.95967 13.2927 6.06834C14.8456 10.9408 16.3945 15.8149 17.6937 20.7626C18.0847 22.25 18.4681 23.7389 18.8545 25.2268C18.8611 25.263 18.8648 25.2997 18.8657 25.3365C18.7574 25.3258 18.7462 25.2319 18.7411 25.1613C18.7132 24.7845 18.5327 24.5824 18.1381 24.6083C17.9764 24.4595 17.746 24.5306 17.5681 24.432C17.4953 24.3924 17.4186 24.3711 17.3448 24.4381C17.3322 24.4518 17.3159 24.4615 17.2978 24.4661C17.2798 24.4707 17.2608 24.47 17.2431 24.464C16.8455 24.3061 16.4438 24.395 16.0426 24.4402C16.0177 24.4427 15.9841 24.4554 15.9704 24.4402C15.8377 24.3071 15.7014 24.3665 15.5417 24.3858C15.3892 24.4041 15.2148 24.3625 15.0495 24.3543C14.8329 24.3437 14.8258 24.3584 14.8634 24.5798C14.8812 24.6814 14.9473 24.7926 14.8583 24.8962C14.6766 24.1551 14.4953 23.4142 14.3143 22.6735C13.5078 19.395 12.5844 16.1485 11.6574 12.8985C11.454 12.1875 11.2471 11.4766 11.0421 10.7682C11.0403 10.7474 11.0338 10.7272 11.0233 10.7091C11.0127 10.691 10.9984 10.6755 10.9811 10.6636C10.8057 11.2643 10.6287 11.86 10.4574 12.4577C9.26346 16.6279 8.09597 20.8047 7.07036 25.0196C6.86696 25.8575 6.68086 26.7 6.46577 27.5348C6.39763 27.8004 6.31322 28.0624 6.24661 28.3301C6.16627 28.2371 6.21712 28.1269 6.21203 28.0127C6.11033 28.0634 6.00864 28.1 5.97457 28.2194C5.94711 28.3118 5.8444 28.3209 5.78389 28.3803C5.65931 28.5053 5.60083 28.685 5.43913 28.7769C5.36998 28.816 5.3115 28.8749 5.22608 28.8785C5.08828 28.8871 5.07353 28.9775 5.11828 29.073C5.17828 29.1984 5.13709 29.2619 5.02777 29.3269C4.8798 29.4148 4.81318 29.5808 4.72725 29.7159C4.65105 29.848 4.54985 29.9641 4.42928 30.0577C4.38038 30.0852 4.34397 30.1305 4.32758 30.1841C4.293 30.3608 4.1791 30.4934 4.08351 30.6361C4.02147 30.729 3.95944 30.8204 3.94774 30.9362C3.93914 30.9852 3.91814 31.0311 3.88672 31.0697C3.79977 31.1957 3.69909 31.3064 3.67417 31.476C3.63197 31.7583 3.41027 31.9838 3.394 32.2819C3.39375 32.3257 3.38112 32.3686 3.35755 32.4057C3.33399 32.4427 3.30044 32.4723 3.26078 32.4911C3.21806 32.5109 3.20993 32.5536 3.19365 32.5927C3.08738 32.8542 3.07162 33.1447 2.93433 33.396C2.92263 33.4174 2.92263 33.3915 2.92772 33.4123C2.98823 33.6505 2.89873 33.8602 2.82958 34.0821C2.76703 34.2827 2.74975 34.4995 2.67703 34.6996C2.64735 34.7671 2.64426 34.8433 2.66839 34.9129C2.69161 34.9768 2.70186 35.0447 2.69855 35.1126C2.69523 35.1805 2.67841 35.2471 2.64907 35.3085C2.57483 35.4766 2.61754 35.6604 2.60483 35.8356C2.58093 36.1657 2.6272 36.4988 2.5672 36.8294C2.53313 37.0178 2.60127 37.2042 2.60534 37.3931C2.60788 37.487 2.64296 37.5784 2.57381 37.6607Z" fill="white"/>
<path d="M51.0473 37.9999H49.3027C49.2999 37.9947 49.2981 37.989 49.2976 37.9831C49.297 37.9772 49.2977 37.9713 49.2996 37.9657C49.3014 37.96 49.3044 37.9549 49.3084 37.9504C49.3123 37.946 49.3172 37.9425 49.3225 37.94C49.3545 37.9212 49.3907 37.9109 49.4278 37.91C49.9261 37.9009 50.4243 37.9009 50.9222 37.91C50.9592 37.9109 50.9954 37.921 51.0275 37.9395C51.0328 37.9421 51.0376 37.9457 51.0415 37.9502C51.0454 37.9546 51.0484 37.9599 51.0503 37.9655C51.0521 37.9711 51.0528 37.9771 51.0523 37.983C51.0518 37.9889 51.0501 37.9947 51.0473 37.9999Z" fill="white"/>
<path d="M51.0473 37.9999C51.0473 37.9893 51.0473 37.9786 51.0473 37.9679C51.1841 37.873 51.3285 37.8994 51.4739 37.9415C51.479 37.9441 51.4835 37.9477 51.4871 37.9521C51.4907 37.9565 51.4934 37.9616 51.495 37.9671C51.4966 37.9726 51.497 37.9783 51.4963 37.9839C51.4955 37.9896 51.4936 37.995 51.4907 37.9999L51.0473 37.9999Z" fill="white"/>
<path d="M48.4861 37.9999C48.4861 37.9893 48.4861 37.9791 48.4861 37.9684C48.6112 37.8745 48.7444 37.8999 48.8791 37.9415C48.8842 37.9442 48.8886 37.9478 48.8922 37.9522C48.8957 37.9566 48.8984 37.9617 48.8999 37.9672C48.9014 37.9727 48.9018 37.9784 48.901 37.984C48.9003 37.9897 48.8983 37.9951 48.8954 37.9999H48.4861Z" fill="white"/>
<path d="M48.8944 37.9999C48.8944 37.9898 48.8944 37.9791 48.8944 37.9689C48.9532 37.9253 49.0245 37.9018 49.0978 37.9018C49.171 37.9018 49.2424 37.9253 49.3012 37.9689C49.3012 37.9796 49.3012 37.9903 49.3012 38.0009L48.8944 37.9999Z" fill="white"/>
<path d="M51.4928 37.9999C51.4928 37.9898 51.4928 37.9791 51.4928 37.9689C51.5325 37.9305 51.5856 37.909 51.641 37.909C51.6963 37.909 51.7495 37.9305 51.7892 37.9689C51.7892 37.9796 51.7892 37.9903 51.7892 38.0009L51.4928 37.9999Z" fill="white"/>
<path d="M51.7902 37.9679H48.4881C47.4808 37.9425 46.474 37.905 45.4682 37.8471C44.2768 37.778 43.087 37.6912 41.9002 37.5698C40.905 37.4682 39.9089 37.3702 38.9158 37.2473C37.8551 37.1158 36.797 36.9645 35.7398 36.8071C34.1457 36.5694 32.5582 36.2921 30.9753 35.9879C28.3719 35.4883 25.785 34.9181 23.2148 34.2776C22.4246 34.0801 21.6349 33.878 20.8453 33.6784C20.7812 33.7195 20.7166 33.7053 20.649 33.6855C19.4093 33.3219 18.1574 33.0096 16.9192 32.6328C16.8094 32.5993 16.6848 32.5937 16.6019 32.4957C15.229 32.0727 13.8536 31.6532 12.4832 31.2261C12.0073 31.0773 11.5277 30.9377 11.0645 30.7503C11.1535 30.6462 11.0971 30.5086 11.1601 30.3857C11.241 30.2293 11.3462 30.0561 11.3244 29.8692C11.2944 29.6113 11.4423 29.398 11.4688 29.1583C11.4901 28.9638 11.4916 28.7678 11.5633 28.5814C11.5697 28.557 11.5668 28.5312 11.5552 28.5088C11.4322 28.2381 11.4698 27.9456 11.4388 27.6628C11.43 27.5961 11.4348 27.5284 11.453 27.4637C11.4983 27.3078 11.4561 27.1636 11.3732 27.029C12.1217 27.2773 12.8691 27.5292 13.6197 27.7735C14.3285 28.004 15.0404 28.226 15.7507 28.4519C15.8621 28.4164 15.9541 28.4829 16.0523 28.5129C17.317 28.9025 18.5828 29.2878 19.8496 29.6687C19.8847 29.6846 19.9169 29.7061 19.9452 29.7321C20.6063 29.9525 21.2826 30.1282 21.9543 30.3161C24.8984 31.1388 27.8646 31.8717 30.8528 32.515C33.1545 33.0055 35.4697 33.4258 37.7982 33.7759C39.6694 34.0521 41.5457 34.2776 43.4312 34.4401C44.947 34.5701 46.4653 34.66 47.9867 34.6971C48.0172 34.6971 48.0478 34.7032 48.0783 34.7062C48.1362 34.7392 48.1993 34.7225 48.2598 34.723C48.7357 34.723 49.2122 34.7341 49.6876 34.723C50.1693 34.7172 50.6504 34.7611 51.1231 34.854C53.6965 35.311 56.272 35.761 58.8465 36.2129C59.7531 36.3719 60.6608 36.5283 61.5664 36.6938C61.6711 36.7126 61.8359 36.6938 61.811 36.8883C61.4839 36.9712 61.1523 37.0349 60.8179 37.0792C60.7574 37.1168 60.6811 37.0676 60.6226 37.1153L60.6125 37.1229L60.6013 37.1173C60.5382 37.1514 60.4614 37.1046 60.4009 37.1529C59.8813 37.2397 59.3565 37.2935 58.8409 37.4037C58.7072 37.4225 58.5765 37.4662 58.4387 37.45C58.3787 37.486 58.3065 37.4449 58.2465 37.4809L58.1448 37.4875C58.0843 37.5226 58.0116 37.4814 57.951 37.518L57.8493 37.5251C57.7883 37.5591 57.7156 37.519 57.6546 37.5551L57.5188 37.5627C57.4563 37.5942 57.3825 37.5566 57.3205 37.5927C57.1762 37.6228 57.0292 37.6386 56.8817 37.6399C56.808 37.6703 56.7256 37.6267 56.6534 37.6683C55.7203 37.7729 54.7837 37.8395 53.846 37.8872C53.1611 37.9182 52.4782 37.9405 51.7902 37.9679Z" fill="white"/>
<path d="M52.8992 31.409C52.8992 30.7737 52.8921 30.1394 52.8921 29.5036C52.8921 23.7842 52.8921 18.0645 52.8921 12.3445V12.2251C52.8413 12.1972 52.826 12.2332 52.8067 12.2525C51.6967 13.4022 50.369 14.2574 48.9986 15.0557C48.9086 15.1065 48.8771 15.0826 48.8334 15.0049C48.3398 14.122 47.8428 13.2408 47.3425 12.3612C47.2835 12.2597 47.3272 12.2272 47.4055 12.1799C49.413 10.9612 51.1073 9.38693 52.6196 7.60449C53.0364 7.11624 53.4106 6.59332 53.7382 6.04142C53.7921 5.95002 53.8521 5.93326 53.9452 5.93377C54.8483 5.93631 55.7513 5.93986 56.6544 5.93072C56.8141 5.93072 56.8425 5.97541 56.842 6.12471C56.838 9.73427 56.8369 13.3438 56.839 16.9534C56.839 21.6734 56.84 26.3936 56.842 31.1139C56.842 31.1754 56.8359 31.2368 56.8329 31.2983C56.8217 31.3001 56.8103 31.2986 56.8 31.294C56.7897 31.2894 56.781 31.2819 56.7749 31.2724C56.7093 31.1093 56.7566 30.9382 56.7398 30.7716C56.7398 30.5579 56.7347 30.3441 56.7398 30.1303C56.7398 29.8347 56.7342 29.5387 56.7398 29.2436C56.7434 29.0964 56.6936 29.0263 56.541 29.0283C56.1505 29.0334 55.7645 29.0049 55.3715 29.0613C55.0689 29.1096 54.7627 29.1322 54.4562 29.1289C54.0082 29.1151 53.5587 29.1857 53.1082 29.1674C52.9897 29.1629 52.9897 29.2512 52.9897 29.334C52.9897 29.6357 52.9867 29.9373 52.9897 30.2394C52.9897 30.4898 52.9953 30.7397 52.9867 30.99C52.9811 31.1261 53.0136 31.2652 52.9516 31.3963C52.9458 31.4042 52.9373 31.4099 52.9277 31.4122C52.9182 31.4145 52.9081 31.4134 52.8992 31.409Z" fill="white"/>
<path d="M34.162 27.5952C34.3654 26.8085 34.5688 26.0217 34.7722 25.2349C35.6366 21.8503 36.467 18.4571 37.2043 15.0415C37.7097 12.6987 38.1775 10.3481 38.6077 7.98941C38.723 7.35261 38.8335 6.71479 38.9392 6.07596C38.957 5.96931 38.9901 5.93224 39.0994 5.93275C40.3988 5.93681 41.6978 5.93681 42.9965 5.93275C43.1332 5.93275 43.1393 5.97541 43.1159 6.09017C42.2983 10.1619 41.4069 14.2188 40.4138 18.2509C39.5687 21.6848 38.6579 25.1008 37.6812 28.4992C37.665 28.5565 37.6645 28.6215 37.6136 28.6652C37.575 28.5672 37.5577 28.4971 37.4021 28.4748C37.227 28.4452 37.0594 28.3815 36.9089 28.2874C36.7395 28.1858 36.5433 28.1193 36.3597 28.0381C36.0149 27.8857 35.6407 27.8141 35.3056 27.6425C35.0991 27.5368 34.8769 27.4901 34.6573 27.4353C34.61 27.425 34.565 27.4061 34.5246 27.3794C34.3852 27.2865 34.3522 27.3007 34.2896 27.4637C34.2637 27.5236 34.2591 27.6039 34.162 27.5952Z" fill="white"/>
<path d="M27.1047 26.6045C26.8744 25.7803 26.6384 24.9576 26.4147 24.1314C25.4021 20.3902 24.4726 16.6289 23.6262 12.8477C23.1217 10.6047 22.6539 8.35403 22.1968 6.10135C22.1658 5.949 22.206 5.93275 22.3417 5.93275C23.6638 5.93749 24.9876 5.93749 26.313 5.93275C26.46 5.93275 26.495 5.98353 26.5164 6.11303C26.9347 8.57459 27.4 11.0268 27.9122 13.4698C28.4675 16.1236 29.0687 18.767 29.7158 21.3999C30.1734 23.2722 30.6463 25.142 31.1426 27.0052C31.147 27.0293 31.1494 27.0537 31.1497 27.0783C31.048 27.0707 31.0511 26.9838 31.0297 26.9183C31.0084 26.8528 30.9819 26.7782 30.9657 26.7061C30.9428 26.6045 30.8935 26.542 30.7745 26.5537C30.6937 26.553 30.6139 26.5357 30.5401 26.5029C30.4928 26.4872 30.4323 26.4521 30.3977 26.4811C30.1816 26.6487 29.966 26.4862 29.7514 26.4862C29.3055 26.4862 28.8661 26.3922 28.4207 26.3795C28.3337 26.3721 28.2463 26.3897 28.169 26.4303C28.1314 26.4521 28.0886 26.4709 28.0515 26.4303C27.993 26.3638 27.9427 26.4044 27.8903 26.4394C27.838 26.4745 27.7886 26.5268 27.7429 26.5044C27.5013 26.38 27.3203 26.5984 27.1047 26.6045Z" fill="white"/>
<path d="M69.0833 24.3792C68.885 23.7638 68.7335 23.1356 68.5693 22.5105C67.7404 19.3647 66.9701 16.2049 66.2582 13.031C65.738 10.723 65.2554 8.40735 64.7836 6.08865C64.7617 5.98099 64.7673 5.93123 64.9061 5.93174C66.2478 5.93715 67.5899 5.93715 68.9323 5.93174C69.034 5.93174 69.0767 5.94951 69.096 6.06478C69.4225 7.98501 69.7767 9.89982 70.1588 11.8092C70.8029 15.0105 71.5147 18.1965 72.2944 21.3674C72.3915 21.7619 72.4836 22.158 72.5782 22.5531C72.5735 22.5873 72.5587 22.6194 72.5357 22.6452C72.5127 22.6709 72.4825 22.6893 72.449 22.6978C72.1912 22.7405 72.0295 23.0056 71.7498 22.9914C71.6151 23.1513 71.3481 23.1112 71.248 23.3306C71.2098 23.4139 71.1056 23.424 71.0202 23.4321C70.9309 23.4484 70.8428 23.4703 70.7562 23.4977C70.4629 23.5601 70.2478 23.7973 69.9488 23.8379C69.8334 24.0233 69.5715 23.9877 69.4484 24.1812C69.3757 24.2975 69.1916 24.2843 69.0833 24.3792Z" fill="white"/>
<path d="M61.811 36.8863C61.7967 36.7573 61.6833 36.7608 61.601 36.7461C60.8281 36.6065 60.0546 36.4739 59.2812 36.3399C58.3507 36.1777 57.42 36.0155 56.4891 35.8534C55.3196 35.6467 54.1465 35.4344 52.974 35.2308C52.0795 35.0754 51.1816 34.9398 50.2932 34.7484C50.2381 34.7408 50.1824 34.7391 50.127 34.7433C49.5086 34.7433 48.8901 34.7433 48.2715 34.7433C48.2064 34.7433 48.1342 34.7672 48.0783 34.7088C49.049 34.7088 50.0192 34.7275 50.9899 34.7088C53.1406 34.6681 55.2868 34.4965 57.4166 34.1948C60.6399 33.7292 63.7727 32.9309 66.7651 31.6319C67.8929 31.143 68.987 30.5802 70.0403 29.9469C70.0912 29.9155 70.1481 29.8885 70.202 29.8596C70.2859 29.8241 70.3703 29.8434 70.4563 29.8596C72.0661 30.1384 73.6734 30.4284 75.2833 30.7056C75.3447 30.7125 75.405 30.727 75.4628 30.7488C75.5269 30.7767 75.5899 30.8097 75.5462 30.9011C75.0926 31.2932 74.5994 31.6329 74.1046 31.9676C71.1941 33.9425 68.0028 35.2953 64.6209 36.2276C63.6913 36.477 62.7588 36.7151 61.811 36.8863Z" fill="white"/>
<path d="M85.1596 14.201C85.0681 14.8353 84.9125 15.4569 84.7595 16.08C84.2474 18.195 83.5094 20.2491 82.5582 22.2068C82.224 22.8879 81.8609 23.5533 81.469 24.203C81.4416 24.2487 81.4274 24.3071 81.3709 24.331C81.287 24.2785 81.1932 24.2439 81.0953 24.2294C79.8719 24.0095 78.6459 23.8049 77.4235 23.5814C77.3274 23.5637 77.2201 23.5616 77.1754 23.4499C77.54 22.9015 77.9188 22.3622 78.2605 21.7985C79.7036 19.4194 80.7084 16.8635 81.3679 14.1675C81.3806 14.1142 81.3974 14.0614 81.4126 14.0081C81.4838 13.8689 81.496 13.7135 81.5235 13.5647C81.5479 13.4322 81.6094 13.4094 81.7268 13.4271C82.1189 13.485 82.5069 13.5612 82.8964 13.6272C83.5855 13.7437 84.2737 13.865 84.9608 13.9913C85.0747 14.0101 85.212 14.0203 85.1596 14.201Z" fill="white"/>
<path d="M85.1596 14.201C85.1657 14.0995 85.1057 14.0609 85.0157 14.0446C83.9713 13.8611 82.9267 13.6776 81.8819 13.4942C81.8158 13.4825 81.7436 13.4942 81.6785 13.4718C81.5819 13.4388 81.5601 13.4804 81.5468 13.5622C81.5291 13.6709 81.496 13.777 81.4813 13.8857C81.4808 13.9102 81.474 13.9341 81.4615 13.9552C81.449 13.9763 81.4313 13.9938 81.4101 14.006C81.556 13.288 81.7152 12.5725 81.827 11.8483C82.0321 10.5582 82.1532 9.25611 82.1896 7.95031C82.1896 7.89547 82.1896 7.84113 82.1896 7.74718L79.4326 9.96787C79.341 10.0075 79.341 9.96025 79.3614 9.89373C79.9671 8.69393 80.5728 7.49446 81.1782 6.29533C81.3816 5.88908 81.5962 5.48638 81.8057 5.08216C81.8901 4.97602 82.0009 4.99786 82.1108 5.01716C83.026 5.17661 83.9352 5.34064 84.8484 5.49755C85.39 5.59048 85.9315 5.68443 86.472 5.78447C86.5626 5.80123 86.6576 5.81189 86.7171 5.8972C86.9948 6.4558 87.2765 7.01847 87.55 7.58062C87.9446 8.38636 88.3373 9.19328 88.7282 10.0014C88.7339 10.0179 88.7378 10.0349 88.7399 10.0522C88.6774 10.0674 88.658 9.99885 88.6097 9.99529C88.0107 9.46175 87.4117 8.92837 86.8127 8.39516C86.5224 8.1377 86.23 7.88176 85.9142 7.60398C85.8985 7.84265 85.8812 8.0534 85.871 8.26414C85.7872 10.0738 85.5871 11.8762 85.272 13.6602C85.24 13.842 85.1973 14.0208 85.1596 14.201Z" fill="white"/>
<path d="M77.1754 23.4479C77.4352 23.5708 77.722 23.5759 77.9966 23.6292C78.6068 23.748 79.2246 23.8511 79.8388 23.9577C80.2965 24.0375 80.7541 24.1131 81.2143 24.1893C81.2982 24.203 81.376 24.2193 81.3709 24.3295C79.8805 26.8178 77.9885 28.9506 75.7267 30.765C75.6693 30.8107 75.6067 30.8504 75.5467 30.893C75.5406 30.8072 75.4857 30.7914 75.4094 30.7772C74.2033 30.57 72.9977 30.3603 71.7925 30.148C71.2622 30.0546 70.7334 29.953 70.204 29.855C70.8803 29.4127 71.5571 28.9724 72.2024 28.4839C74.0612 27.0883 75.7058 25.4289 77.0839 23.5581C77.1088 23.5195 77.1439 23.485 77.1754 23.4479Z" fill="white"/>
<path d="M86.7207 5.8967C86.2758 5.78142 85.8191 5.72607 85.3686 5.64279C84.7671 5.53056 84.163 5.43153 83.5605 5.3254C83.0423 5.23399 82.5242 5.14106 82.006 5.05016C81.9382 5.04116 81.8694 5.05266 81.8082 5.08317C82.1169 4.46567 82.424 3.84714 82.7347 3.23065C83.1594 2.38801 83.5859 1.54639 84.014 0.705783C84.0405 0.655001 84.0532 0.588985 84.1193 0.547852C84.221 0.6809 84.2769 0.838831 84.3486 0.98559C85.1324 2.593 85.9141 4.20109 86.6937 5.80986C86.7051 5.83801 86.7141 5.86705 86.7207 5.8967Z" fill="white"/>
<path d="M14.8573 24.8977C14.868 24.7042 14.7917 24.525 14.7602 24.3244C15.0114 24.3046 15.2611 24.2792 15.5077 24.3508C15.5784 24.3711 15.6155 24.3655 15.6602 24.3C15.7401 24.1847 15.8443 24.2376 15.888 24.3203C15.9318 24.4031 15.9633 24.4158 16.0406 24.3945C16.2959 24.3297 16.5618 24.3174 16.8221 24.3584C16.9152 24.3706 17.0153 24.2665 17.1231 24.3411C17.2096 24.4011 17.2823 24.4935 17.3855 24.3376C17.4226 24.2812 17.5564 24.3549 17.6148 24.396C17.7089 24.4625 17.776 24.493 17.8691 24.4102C17.9077 24.3767 17.985 24.363 17.9916 24.4234C18.011 24.6057 18.1676 24.5758 18.2555 24.5722C18.3725 24.5646 18.465 24.6626 18.5891 24.6138C18.6399 24.5935 18.6679 24.6783 18.6862 24.7433C18.7416 24.9419 18.7427 25.1572 18.8647 25.3349C18.9459 25.5768 19.0086 25.8245 19.0523 26.0758C18.942 26.2338 18.8184 26.279 18.7045 26.1688C18.552 26.0164 18.3638 26.0088 18.1752 25.9931C18.0653 25.9836 17.9581 25.954 17.8589 25.9057C17.6159 25.792 17.3443 25.7828 17.086 25.7265C16.5547 25.6153 16.0139 25.5558 15.4711 25.5487C15.3241 25.5452 15.1746 25.5548 15.0424 25.6356C14.9603 25.3952 14.8984 25.1484 14.8573 24.8977Z" fill="white"/>
<path d="M34.162 27.5952C34.25 27.5597 34.2205 27.4678 34.2546 27.4063C34.2815 27.3556 34.251 27.254 34.341 27.2702C34.4147 27.2834 34.523 27.2195 34.5647 27.3403C34.5688 27.3515 34.5764 27.3733 34.5769 27.3733C34.7671 27.3088 34.8897 27.514 35.0651 27.4947C35.119 27.4814 35.1761 27.49 35.2237 27.5186C35.4161 27.662 35.6408 27.756 35.8781 27.7923C35.9495 27.8086 36.018 27.8353 36.0815 27.8715C36.317 27.9893 36.5849 28.0396 36.8061 28.1721C36.9795 28.2762 37.1748 28.3174 37.3416 28.426C37.3792 28.4504 37.4067 28.4768 37.4555 28.4519C37.6309 28.3631 37.665 28.4306 37.6111 28.5946C37.6077 28.6189 37.6077 28.6435 37.6111 28.6678C37.516 29.0039 37.4585 29.3503 37.3243 29.6758C37.2861 29.688 37.2459 29.6922 37.206 29.688C37.1662 29.6838 37.1277 29.6713 37.0929 29.6514C36.6561 29.4579 36.2529 29.1944 35.8151 29.009C35.3605 28.8176 34.9176 28.5895 34.4356 28.4682C34.2749 28.4281 34.1554 28.2813 33.9749 28.3016C34.0213 28.0622 34.0839 27.8262 34.162 27.5952Z" fill="white"/>
<path d="M27.1047 26.6045C27.1174 26.5537 27.094 26.4521 27.2008 26.5243C27.2517 26.5593 27.3137 26.5537 27.332 26.5141C27.4261 26.311 27.5705 26.4232 27.688 26.4577C27.7988 26.4897 27.8497 26.412 27.9076 26.3633C28.0124 26.2754 28.0653 26.2871 28.0871 26.4232C28.2661 26.3034 28.4558 26.3186 28.65 26.3455C28.829 26.3699 29.0095 26.3831 29.19 26.3998C29.4158 26.4202 29.6426 26.4328 29.8678 26.4608C29.9665 26.4735 30.0895 26.4044 30.1633 26.5369C30.178 26.5639 30.2217 26.541 30.2411 26.5146C30.3336 26.3866 30.4445 26.413 30.566 26.4669C30.6265 26.4938 30.7058 26.5298 30.7597 26.5121C30.9504 26.4496 30.9702 26.5628 31.014 26.7005C31.0536 26.8269 31.0516 26.9711 31.1497 27.0768C31.2006 27.2347 31.2626 27.3896 31.2687 27.5582C31.2511 27.5707 31.2307 27.5785 31.2092 27.5809C31.1878 27.5833 31.1661 27.5802 31.1462 27.5719C30.815 27.5013 30.4762 27.4723 30.1378 27.4856C30.1071 27.4886 30.076 27.4867 30.0458 27.48C29.756 27.3881 29.4626 27.4576 29.1702 27.4581C28.6683 27.4581 28.1659 27.5089 27.6646 27.45C27.5601 27.4376 27.4543 27.4552 27.3595 27.5008C27.2522 27.2088 27.1671 26.9092 27.1047 26.6045Z" fill="white"/>
<path d="M69.0833 24.3792C69.0833 24.3731 69.0833 24.3635 69.0869 24.3615C69.2994 24.2381 69.4622 24.0359 69.7088 23.9664C69.7322 23.9598 69.7723 23.9608 69.7774 23.9476C69.8679 23.7165 70.1262 23.7902 70.2768 23.6693C70.441 23.5378 70.65 23.4972 70.83 23.3976C70.8656 23.3778 70.9007 23.3905 70.9358 23.3875C71.0624 23.3768 71.2088 23.4073 71.2571 23.2214C71.2703 23.1706 71.3553 23.1198 71.4158 23.1056C71.6192 23.0548 71.7798 22.9121 71.9903 22.8817C72.0344 22.8774 72.0764 22.8614 72.1122 22.8354C72.1479 22.8095 72.1761 22.7744 72.1937 22.7339C72.2054 22.7055 72.2299 22.6669 72.2588 22.6785C72.4083 22.7395 72.4826 22.6181 72.5812 22.5546C72.6489 22.8934 72.7338 23.2285 72.8355 23.5586C72.8638 23.6026 72.8768 23.6547 72.8726 23.7069C72.6524 23.6515 72.45 23.6647 72.2863 23.8481C72.2553 23.8821 72.2044 23.8689 72.1622 23.8724C72.0699 23.8779 71.9814 23.9108 71.908 23.9669C71.6486 24.1781 71.3059 24.2391 71.0471 24.4574C70.9536 24.5361 70.8015 24.559 70.6769 24.6098C70.3896 24.724 70.1725 24.9571 69.8756 25.0526C69.7078 25.1064 69.6213 25.2796 69.4769 25.3735C69.4078 25.4182 69.5089 25.5442 69.421 25.6081C69.2873 25.2046 69.1746 24.7944 69.0833 24.3792Z" fill="white"/>
<path d="M15.0434 25.6371C15.0383 25.5498 15.0836 25.531 15.166 25.5188C15.4589 25.4766 15.7507 25.5112 16.0406 25.5274C16.6292 25.5651 17.2121 25.6658 17.7791 25.828C18.0181 25.8941 18.2484 25.9651 18.4966 25.9672C18.5246 25.9688 18.5518 25.9772 18.5758 25.9918C18.5998 26.0063 18.6199 26.0264 18.6344 26.0505C18.7645 26.2307 18.9049 26.2059 19.0533 26.0774C19.2089 26.6278 19.3503 27.1819 19.4601 27.7435C19.3117 27.7141 19.363 27.5739 19.3162 27.4896C19.2796 27.382 19.2654 27.2692 19.2359 27.1595C19.2318 26.8884 19.0071 26.8548 18.825 26.8213C18.3649 26.733 17.924 26.5776 17.473 26.4572C17.2869 26.4064 17.0962 26.4064 16.9086 26.3699C16.4274 26.2733 15.9379 26.2242 15.4472 26.2231C15.2946 26.2231 15.2804 26.2612 15.3378 26.4841C15.3541 26.5578 15.3734 26.6309 15.3912 26.7045C15.4345 26.895 15.4929 27.0813 15.529 27.2743C15.532 27.2947 15.5296 27.3155 15.5222 27.3348C15.5147 27.354 15.5023 27.371 15.4863 27.384C15.3165 26.8061 15.1578 26.2272 15.0434 25.6371Z" fill="white"/>
<path d="M33.9749 28.2991C33.985 28.2819 33.9991 28.2674 34.016 28.2567C34.0328 28.246 34.052 28.2395 34.0719 28.2378C34.0918 28.236 34.1118 28.2389 34.1303 28.2464C34.1488 28.2539 34.1652 28.2657 34.1783 28.2808C34.3125 28.4098 34.493 28.4108 34.6471 28.4809C34.8759 28.5824 35.1327 28.6149 35.3407 28.78C35.4231 28.8455 35.5685 28.8257 35.6697 28.876C35.9692 29.0247 36.2799 29.1537 36.5514 29.3579C36.6131 29.3967 36.6825 29.4218 36.7548 29.4315C36.9612 29.4726 37.1138 29.6346 37.3212 29.6732C37.3045 29.7337 37.2872 29.7941 37.2704 29.8545C37.1845 30.0465 37.1448 30.2521 37.0919 30.4537C37.0858 30.4908 37.1016 30.537 37.0522 30.5553C36.9089 30.4385 36.766 30.3202 36.589 30.2582C36.3719 30.1821 36.201 30.0272 36.0007 29.9195C35.4922 29.6478 34.9537 29.4599 34.4152 29.268C34.3222 29.235 34.2337 29.1923 34.1432 29.1537C34.0064 29.0953 33.8762 29.0522 33.74 29.1461C33.8015 28.8594 33.88 28.5766 33.9749 28.2991Z" fill="white"/>
<path d="M27.359 27.4988C27.3763 27.4099 27.4322 27.3657 27.5176 27.3911C27.6737 27.4378 27.8456 27.4231 27.992 27.42C28.2514 27.4145 28.5107 27.4708 28.7766 27.414C28.9948 27.3632 29.2343 27.3997 29.4611 27.3987C29.5038 27.3987 29.5582 27.4211 29.5872 27.4023C29.7066 27.3241 29.8124 27.3657 29.9309 27.4068C30.1231 27.4739 30.3275 27.42 30.5273 27.4398C30.778 27.4647 31.0282 27.4723 31.2677 27.5582C31.313 27.7318 31.404 27.8928 31.4116 28.0767C31.3384 28.2194 31.2153 28.2178 31.0943 28.1681C30.8482 28.0665 30.5894 28.0777 30.3316 28.0568C30.0056 28.0309 29.6797 28.0436 29.3538 28.0304C29.1758 28.0233 28.9978 27.9913 28.8224 28.0543C28.7743 28.0667 28.7236 28.0642 28.677 28.0472C28.347 27.9634 28.0159 28.0833 27.6869 28.0472C27.6102 28.0391 27.6203 28.101 27.6305 28.1488C27.6508 28.2503 27.6869 28.3519 27.7002 28.4535C27.7026 28.4736 27.7001 28.4941 27.6927 28.5131C27.6854 28.532 27.6734 28.5489 27.658 28.5621C27.5387 28.2135 27.4389 27.8585 27.359 27.4988Z" fill="white"/>
<path d="M15.4919 27.2636C15.4424 27.0781 15.3929 26.8919 15.3434 26.705C15.4207 26.6543 15.5102 26.6624 15.5941 26.668C15.9329 26.6834 16.2703 26.7217 16.604 26.7827C16.9523 26.8548 17.3159 26.8457 17.6565 26.9676C17.9748 27.0813 18.3059 27.1529 18.6318 27.2423C18.8773 27.3031 19.1175 27.3833 19.3503 27.482C19.4195 27.5546 19.3625 27.68 19.4596 27.741C19.5154 27.8835 19.5523 28.0327 19.5695 28.1848C19.4718 28.2204 19.3849 28.1757 19.3045 28.134C18.9262 27.9472 18.5184 27.8527 18.1137 27.7511C17.7801 27.6679 17.4496 27.5698 17.1125 27.5059C16.6353 27.4153 16.1527 27.3556 15.6678 27.3271C15.6002 27.3281 15.5295 27.3408 15.4919 27.2636Z" fill="white"/>
<path d="M69.4139 25.6082C69.4226 25.5473 69.4161 25.4852 69.395 25.4274C69.3711 25.3608 69.3813 25.3035 69.4718 25.3004C69.49 25.3022 69.5084 25.2988 69.5247 25.2905C69.541 25.2822 69.5546 25.2695 69.5639 25.2537C69.6574 25.0912 69.8135 25.0069 69.9818 24.949C70.1313 24.8982 70.232 24.7596 70.3596 24.7078C70.5518 24.6296 70.7156 24.4894 70.919 24.4513C70.9773 24.4424 71.0319 24.4172 71.0766 24.3787C71.2467 24.2407 71.4433 24.139 71.6542 24.0796C71.7697 24.0466 71.8068 23.9207 71.9217 23.8927C72.1132 23.8379 72.298 23.7621 72.4729 23.6668C72.6097 23.5982 72.7449 23.5992 72.8655 23.7074C72.8919 23.8597 72.9733 23.9953 72.9778 24.1517C72.601 24.298 72.2339 24.4681 71.8556 24.6118C71.6085 24.7058 71.3502 24.7941 71.1402 24.9713C71.0741 25.0267 70.982 25.0358 70.9068 25.08C70.5 25.3192 70.144 25.6386 69.7108 25.8367C69.631 25.8732 69.6035 25.9712 69.5247 26.0119C69.4698 25.8829 69.4325 25.7471 69.4139 25.6082Z" fill="white"/>
<path d="M15.4919 27.2636C15.5982 27.3297 15.7162 27.2773 15.829 27.2911C16.3726 27.3566 16.9147 27.4094 17.4506 27.5404C17.773 27.6196 18.0989 27.6978 18.4223 27.7735C18.818 27.8715 19.2024 28.0102 19.5695 28.1874C19.626 28.343 19.665 28.5045 19.6859 28.6688C19.6752 28.7647 19.6351 28.8211 19.5298 28.7744C19.15 28.6099 18.7477 28.5078 18.3654 28.3488C18.0562 28.2204 17.7252 28.166 17.3992 28.0909C16.8511 27.9629 16.2923 27.9004 15.7334 27.837C15.6848 27.8291 15.6382 27.8119 15.5961 27.7862C15.5405 27.6565 15.5028 27.5198 15.4843 27.3799L15.4919 27.2636Z" fill="white"/>
<path d="M73.0978 24.6331C73.2052 24.9601 73.2939 25.2929 73.3633 25.63C73.3566 25.6363 73.3483 25.6406 73.3393 25.6423C73.3302 25.644 73.3209 25.6431 73.3124 25.6396C73.2984 25.6275 73.2869 25.6129 73.2784 25.5965C73.2408 25.4856 73.2096 25.3727 73.1848 25.2583C73.169 25.2014 73.1472 25.1729 73.08 25.2004C72.841 25.2979 72.5904 25.37 72.3682 25.5051C72.0824 25.6787 71.758 25.7742 71.4707 25.9448C71.0847 26.1734 70.6693 26.3546 70.3205 26.6451C70.2356 26.7068 70.1462 26.7619 70.053 26.8102C69.9259 26.8884 69.87 26.9798 69.9259 27.1316C69.9618 27.2433 69.991 27.3571 70.0134 27.4723C70.0197 27.496 70.0192 27.5209 70.0122 27.5443C70.0051 27.5677 69.9916 27.5887 69.9732 27.6049C69.843 27.2139 69.7342 26.8168 69.6422 26.4146C69.5994 26.3292 69.6691 26.3064 69.7215 26.2785C70.1308 26.0601 70.4812 25.7458 70.8935 25.5371C71.2886 25.3375 71.6725 25.1171 72.0793 24.9378C72.2731 24.8525 72.4826 24.8022 72.6651 24.6839C72.7907 24.6037 72.9397 24.5392 73.0978 24.6331Z" fill="white"/>
<path d="M15.5977 27.7882C16.1695 27.8235 16.7377 27.9023 17.2975 28.0238C17.562 28.0722 17.8239 28.1339 18.0821 28.2087C18.5657 28.3656 19.0432 28.5433 19.5191 28.7226C19.6071 28.7556 19.6488 28.7449 19.6859 28.6688C19.7917 29.0176 19.8735 29.3726 19.9442 29.7296L19.8685 29.7067C19.8115 29.5955 19.8293 29.4528 19.7668 29.3564C19.7042 29.2599 19.5471 29.3132 19.4388 29.2614C18.8383 28.9719 18.2006 28.782 17.5574 28.6185C17.1297 28.5093 16.6975 28.4022 16.2551 28.3646C16.0861 28.3491 15.9164 28.343 15.7467 28.3463C15.6759 28.1665 15.6259 27.9793 15.5977 27.7882Z" fill="white"/>
<path d="M73.316 25.5965C73.316 25.6087 73.316 25.6208 73.316 25.633C73.4116 25.7077 73.3668 25.8423 73.438 25.926C73.4734 25.9962 73.4936 26.073 73.4975 26.1515C73.2234 26.2734 72.9382 26.3714 72.6636 26.4872C72.4012 26.5969 72.1551 26.7314 71.9009 26.8599C71.7112 26.9574 71.5266 27.0717 71.3415 27.1783C70.9469 27.4038 70.6007 27.7009 70.2035 27.9208C70.1095 27.9715 70.2035 28.0817 70.1191 28.1239C70.0516 27.9565 70.0017 27.7826 69.9701 27.6049L69.9747 27.4475C69.9564 27.3799 70.0174 27.3677 70.052 27.3383C70.3571 27.0747 70.713 26.8858 71.0319 26.6411C71.2271 26.4887 71.4666 26.3836 71.6929 26.279C72.1917 26.0494 72.6788 25.793 73.1934 25.5985C73.2366 25.5833 73.2753 25.5594 73.316 25.5965Z" fill="white"/>
<path d="M29.7397 31.8274C29.3668 31.7468 28.9939 31.6662 28.621 31.5857C28.5935 31.5816 28.568 31.5689 28.5481 31.5495C28.5282 31.5301 28.5149 31.5049 28.5102 31.4775C28.4766 31.3465 28.4395 31.2165 28.4039 31.086C28.3592 30.9707 28.4222 30.955 28.5193 30.9433C28.919 30.8925 29.3182 30.9407 29.7168 30.9519C30.5553 30.9753 31.3887 31.0489 32.2008 31.2784C32.2181 31.2837 32.2351 31.2902 32.2516 31.2977C32.2696 31.3088 32.2866 31.3214 32.3025 31.3353C32.3091 31.4679 32.4286 31.5669 32.4133 31.7055C32.3772 31.8426 32.2923 31.8695 32.1591 31.834C31.374 31.6217 30.5701 31.5552 29.7611 31.5161C29.4163 31.4998 29.0726 31.5024 28.7278 31.5034C29.0115 31.5872 29.3049 31.6253 29.5866 31.7106C29.6502 31.7289 29.7489 31.7162 29.7397 31.8274Z" fill="white"/>
<path d="M73.0978 24.6331C72.9181 24.6169 72.7387 24.6687 72.5955 24.7784C72.5319 24.8292 72.4627 24.8728 72.3748 24.8464C72.3604 24.842 72.3452 24.8411 72.3304 24.8439C72.3156 24.8466 72.3017 24.8529 72.2898 24.8622C71.8958 25.1074 71.4641 25.2796 71.0568 25.4995C70.7249 25.6822 70.4049 25.8857 70.0988 26.1089C69.9783 26.1952 69.8445 26.251 69.721 26.3277C69.6828 26.3516 69.6437 26.3623 69.6406 26.4141C69.5842 26.2858 69.546 26.1502 69.5272 26.0114C69.5628 25.8854 69.6498 25.8164 69.7642 25.7524C69.9676 25.6406 70.171 25.5381 70.3566 25.3918C70.5712 25.2217 70.8 25.0622 71.0624 24.9673C71.1083 24.9513 71.1474 24.9201 71.1732 24.8789C71.1946 24.8415 71.2271 24.8117 71.2663 24.7936C71.7137 24.6606 72.1251 24.4356 72.567 24.2858C72.7038 24.2391 72.8212 24.139 72.9804 24.1512C73.0407 24.306 73.0802 24.468 73.0978 24.6331Z" fill="white"/>
<path d="M27.6641 28.4479C27.629 28.3245 27.5898 28.2021 27.5624 28.0772C27.5441 28.0025 27.5659 27.9573 27.66 27.9812C27.8675 28.035 28.0866 28.0229 28.287 27.9467C28.4034 27.903 28.4832 27.9913 28.5976 27.9852C29.036 27.9624 29.4768 27.9766 29.9167 27.9786C30.2456 27.9786 30.5741 28.0172 30.9026 28.0436C30.9569 28.0531 31.0088 28.0733 31.0552 28.1031C31.1823 28.1731 31.3008 28.1721 31.4141 28.0767C31.5041 28.3935 31.5947 28.7094 31.6831 29.0263C31.6956 29.0796 31.7053 29.1335 31.7121 29.1878C31.6282 29.1933 31.6308 29.1187 31.6038 29.0715C31.4792 28.6083 31.4792 28.6073 31.0058 28.5855C30.6255 28.5677 30.2482 28.5185 29.8673 28.5032C29.6639 28.4951 29.4707 28.5403 29.2648 28.519C29.0421 28.4956 28.8143 28.4174 28.5885 28.4733C28.3439 28.5352 28.0983 28.4814 27.8547 28.5027C27.8209 28.5091 27.786 28.5074 27.7529 28.4979C27.7198 28.4884 27.6893 28.4712 27.6641 28.4479Z" fill="white"/>
<path d="M33.7425 29.1487C33.8111 29.0014 33.8981 29.0019 34.044 29.0674C34.3146 29.1888 34.612 29.2512 34.878 29.3802C35.2456 29.5585 35.6407 29.657 36.0032 29.8652C36.2443 30.0048 36.467 30.1877 36.7446 30.2811C36.8463 30.3156 37.0436 30.3659 37.0548 30.5578C36.9841 30.6706 37.0548 30.826 36.9429 30.9265C36.7655 30.9113 36.6139 30.825 36.4685 30.7356C36.0378 30.47 35.5766 30.2577 35.1195 30.0516C34.7941 29.9048 34.4524 29.7611 34.0939 29.6864C34.0325 29.6784 33.9724 29.6629 33.9149 29.6402C33.805 29.5894 33.7069 29.563 33.6428 29.7032C33.6362 29.7179 33.6098 29.7139 33.592 29.7032C33.6261 29.5144 33.6765 29.3288 33.7425 29.1487Z" fill="white"/>
<path d="M29.7397 31.8274C29.5165 31.702 29.2617 31.6918 29.0207 31.6319C28.8956 31.6009 28.7665 31.5811 28.6419 31.5522C28.6048 31.544 28.5671 31.5283 28.5773 31.4806C28.5854 31.4415 28.6246 31.4465 28.6536 31.4475C28.9927 31.4582 29.3324 31.4272 29.6705 31.4643C29.9141 31.4912 30.1597 31.4613 30.4053 31.4973C30.5365 31.5166 30.6692 31.5298 30.8009 31.5532C31.0785 31.604 31.3602 31.5943 31.6414 31.6507C31.8148 31.6857 31.9852 31.7375 32.153 31.7817C32.2847 31.8162 32.3452 31.7974 32.4133 31.7055L32.6472 32.4495C31.6552 32.2535 30.6936 32.059 29.7397 31.8274Z" fill="white"/>
<path d="M27.6641 28.4479C28.0098 28.4479 28.3541 28.4479 28.6998 28.4235C28.9501 28.4106 29.2009 28.4356 29.4438 28.4976C29.4611 28.5017 29.4865 28.5134 29.4946 28.5063C29.6472 28.3869 29.8155 28.4667 29.9756 28.4631C30.2645 28.4565 30.5507 28.4997 30.8401 28.5301C31.0379 28.551 31.2357 28.5748 31.434 28.5774C31.5026 28.5774 31.5219 28.5961 31.5357 28.649C31.5657 28.7922 31.6409 28.9252 31.6374 29.0765C31.5865 29.1273 31.524 29.1126 31.463 29.1014C30.9302 29.0026 30.3903 28.9477 29.8485 28.9374C29.486 28.9313 29.1188 28.978 28.7634 28.9293C28.4263 28.8831 28.1024 29.0049 27.7708 28.9394C27.7169 28.8208 27.6803 28.6952 27.662 28.5662L27.6641 28.4479Z" fill="white"/>
<path d="M31.857 29.7073C31.8845 29.8596 31.9816 29.9906 31.9745 30.1506C31.9201 30.2288 31.8433 30.2064 31.7711 30.1892C31.2118 30.0516 30.6362 30.0368 30.0677 29.981C29.4799 29.9183 28.8873 29.9161 28.2992 29.9744C28.2107 29.984 28.1741 30.0114 28.2 30.1013C28.2203 30.1724 28.2417 30.243 28.2559 30.3161C28.2626 30.3415 28.2621 30.3682 28.2547 30.3933C28.2472 30.4185 28.2331 30.4411 28.2137 30.4588C28.108 30.1684 28.0215 29.8714 27.9549 29.5696C27.9219 29.4909 27.9666 29.4726 28.0327 29.4681C28.5664 29.4258 29.1023 29.4184 29.637 29.4457C29.997 29.4686 30.358 29.5422 30.7226 29.4965C30.7407 29.493 30.7594 29.493 30.7775 29.4965C31.0974 29.592 31.4345 29.5828 31.7569 29.661C31.7938 29.6673 31.8283 29.6833 31.857 29.7073Z" fill="white"/>
<path d="M70.1227 28.1244C70.0652 27.9477 70.1949 27.9025 70.3073 27.81C70.5366 27.6211 70.8096 27.5013 71.0339 27.3022C71.1783 27.1732 71.3807 27.0991 71.5561 26.9975C71.8464 26.831 72.1419 26.6715 72.4439 26.5278C72.7287 26.3922 73.0236 26.2775 73.3175 26.1607C73.3714 26.1393 73.4395 26.1535 73.5011 26.151C73.4767 26.2627 73.5956 26.3374 73.5768 26.4476C73.5679 26.4961 73.5459 26.5413 73.5134 26.5784C73.4808 26.6155 73.4388 26.6431 73.3917 26.6583C72.9585 26.7919 72.5695 27.0184 72.1643 27.2139C71.6146 27.4784 71.1244 27.8288 70.6256 28.1701C70.5539 28.2209 70.4918 28.2798 70.4222 28.3295C70.3525 28.3793 70.2854 28.4164 70.199 28.3803C70.1553 28.3015 70.1292 28.2142 70.1227 28.1244Z" fill="white"/>
<path d="M36.8361 31.3079C36.8056 31.4826 36.7544 31.6531 36.6836 31.8157C36.29 31.5618 35.8583 31.382 35.4439 31.1688C34.9741 30.9265 34.494 30.7041 33.9845 30.5538C33.7898 30.4964 33.6205 30.3725 33.4181 30.3334C33.44 30.1941 33.4778 30.0578 33.531 29.9271C33.5971 29.8322 33.6835 29.8794 33.7674 29.8916C34.0725 29.9358 34.344 30.0719 34.6232 30.1871C34.9537 30.3232 35.2842 30.4659 35.6061 30.6178C35.9071 30.7589 36.1929 30.9326 36.4843 31.0941C36.5916 31.154 36.6841 31.2378 36.8133 31.2525C36.8433 31.2566 36.8499 31.2815 36.8361 31.3079Z" fill="white"/>
<path d="M52.9404 34.2207L52.9048 34.2136C52.8682 34.1557 52.8875 34.0938 52.8916 34.0328C52.9277 33.9115 52.8672 33.7789 52.9369 33.6616C53.2587 33.6779 53.576 33.6281 53.8948 33.5956C54.5881 33.5187 55.2871 33.509 55.9822 33.5667C56.1968 33.5865 56.4139 33.5789 56.628 33.6129C56.6885 33.6225 56.7525 33.6164 56.8034 33.6601C56.8276 33.722 56.8265 33.7909 56.8003 33.8521C56.4981 33.9106 56.1923 33.9496 55.8851 33.9689C55.4274 34.0014 54.9728 34.0593 54.5162 34.0979C53.992 34.1425 53.4652 34.1694 52.9404 34.2207Z" fill="white"/>
<path d="M28.2234 30.2984C28.2188 30.2943 28.2112 30.2912 28.2102 30.2862C28.1797 30.181 28.1024 30.0597 28.1314 29.9744C28.1776 29.8393 28.3256 29.9505 28.4278 29.9302C28.7049 29.8753 28.9871 29.915 29.2653 29.9053C29.6721 29.8911 30.0626 29.9505 30.4612 29.981C30.6418 29.9952 30.8238 30.0216 31.0028 30.0211C31.2647 30.0211 31.5067 30.113 31.7614 30.1374C31.8331 30.144 31.9028 30.1882 31.977 30.1496C32.0279 30.3217 32.1138 30.4842 32.1296 30.667C31.3267 30.4426 30.4994 30.4025 29.6746 30.3486C29.2399 30.3202 28.8036 30.3364 28.3683 30.3486C28.3093 30.3522 28.2534 30.3603 28.2234 30.2984Z" fill="white"/>
<path d="M70.1954 28.3803C70.4207 28.3336 70.5574 28.1472 70.7395 28.032C71.1422 27.7781 71.5144 27.4774 71.9507 27.2702C72.3712 27.0717 72.7643 26.8198 73.2092 26.6675C73.3485 26.6202 73.497 26.5928 73.5743 26.4466C73.738 26.7238 73.5285 26.8488 73.3531 26.9884C73.255 27.0666 73.1812 27.1758 73.0561 27.2195C72.5954 27.3622 72.1917 27.6201 71.7742 27.8507C71.3913 28.0717 71.0261 28.3222 70.682 28.5997C70.5732 28.684 70.4674 28.7927 70.3052 28.7521C70.2492 28.6347 70.2121 28.5092 70.1954 28.3803Z" fill="white"/>
<path d="M33.4181 30.3354C33.4319 30.3177 33.4517 30.3056 33.4739 30.3015C33.496 30.2974 33.5188 30.3015 33.5381 30.3131C34.1066 30.5482 34.6974 30.7371 35.2451 31.0123C35.6941 31.2383 36.1665 31.4252 36.5834 31.7131C36.621 31.7442 36.6551 31.7793 36.6851 31.8177C36.6171 32.1102 36.5322 32.3984 36.4309 32.681C36.3561 32.6125 36.3953 32.5348 36.4126 32.4591C36.4919 32.2052 36.4822 32.2199 36.2671 32.0701C35.6732 31.6547 35.0097 31.378 34.3466 31.1053C34.0517 30.9834 33.7466 30.8849 33.4567 30.7498C33.3983 30.7224 33.3449 30.699 33.3301 30.63L33.4181 30.3354Z" fill="white"/>
<path d="M36.8361 31.3079C36.5961 31.2982 36.4385 31.1164 36.2463 31.0134C35.758 30.7487 35.2563 30.5093 34.7432 30.2963C34.4203 30.1643 34.1086 30.0059 33.7634 29.9358C33.6856 29.92 33.6108 29.8885 33.531 29.9277C33.5353 29.8496 33.5562 29.7734 33.5925 29.7042C33.655 29.4985 33.7659 29.5519 33.9383 29.5884C34.341 29.6783 34.6959 29.9017 35.1027 29.9662C35.1769 29.9779 35.21 30.046 35.271 30.0754C35.6 30.2354 35.929 30.3943 36.2554 30.5589C36.4024 30.633 36.5605 30.7005 36.68 30.8072C36.7634 30.8808 36.9063 30.7848 36.9429 30.9265C36.8677 31.0428 36.9109 31.1916 36.8361 31.3079Z" fill="white"/>
<path d="M32.2664 31.3353C32.126 31.3561 32.0004 31.2845 31.8759 31.249C31.3165 31.0936 30.7404 31.0916 30.1734 31.0113C29.8328 30.9636 29.4773 31.0235 29.1326 30.9936C28.9259 30.9834 28.7188 30.9844 28.5122 30.9966C28.4339 30.9966 28.3978 31.0047 28.4029 31.086C28.3474 30.969 28.3099 30.8444 28.2915 30.7163C28.2407 30.5797 28.3292 30.5741 28.4253 30.5756C28.7466 30.5802 29.0685 30.5863 29.3914 30.5756C30.2233 30.5487 31.0358 30.6985 31.8545 30.8087C32.1448 30.8478 32.2313 30.9738 32.272 31.2114C32.2776 31.2551 32.2943 31.2947 32.2664 31.3353Z" fill="white"/>
<path d="M56.8003 33.8521C56.8003 33.7906 56.8003 33.7292 56.8003 33.6677C56.7844 33.6528 56.7717 33.6348 56.763 33.6148C56.7543 33.5948 56.7497 33.5732 56.7495 33.5514C56.7683 33.3651 56.6737 33.3148 56.5013 33.2975C55.9491 33.2498 55.3964 33.2437 54.8427 33.2427C54.2889 33.2417 53.7535 33.3442 53.2074 33.3783C53.1031 33.3849 52.9953 33.3986 52.9191 33.3001C52.8911 33.1817 52.8911 33.0584 52.9191 32.94C53.275 32.94 53.6172 32.8344 53.9716 32.8344C54.2365 32.8344 54.4994 32.7994 54.7644 32.7928C55.3119 32.7784 55.8599 32.7944 56.4057 32.8405C56.538 32.8517 56.6783 32.7968 56.8029 32.8811C56.8425 32.9918 56.7841 33.1117 56.8359 33.2208C56.8395 33.4037 56.8441 33.586 56.8461 33.7683C56.8512 33.8053 56.8512 33.847 56.8003 33.8521Z" fill="white"/>
<path d="M32.2664 31.3353C32.2682 31.3169 32.2682 31.2984 32.2664 31.28C32.1825 30.9402 32.1586 30.8803 32.1026 30.894C31.9445 30.9326 31.8067 30.8514 31.6592 30.8305C31.3348 30.7848 31.0099 30.7452 30.6855 30.7011C30.4694 30.6721 30.2502 30.6706 30.0351 30.6543C29.4839 30.6117 28.9337 30.6594 28.3846 30.6254C28.2925 30.6193 28.2987 30.6614 28.2941 30.7163C28.2516 30.6361 28.2258 30.5482 28.2183 30.4578L28.2234 30.2984C28.4965 30.2745 28.7721 30.3329 29.0441 30.2684C29.0866 30.2602 29.1302 30.2583 29.1732 30.2628C29.7204 30.2989 30.2706 30.3136 30.8136 30.3806C31.225 30.4314 31.645 30.4563 32.0447 30.5837C32.0782 30.5949 32.1016 30.6381 32.1296 30.6665C32.2018 30.8854 32.2791 31.1038 32.306 31.3348L32.2664 31.3353Z" fill="white"/>
<path d="M33.3286 30.6259C33.5634 30.7626 33.8123 30.8736 34.071 30.957C34.4778 31.0824 34.8403 31.2962 35.2344 31.4389C35.6702 31.5963 36.0159 31.9031 36.4253 32.0991C36.6134 32.1956 36.4863 32.3276 36.4609 32.4495C36.3983 32.546 36.3165 32.5338 36.2361 32.4815C35.8466 32.2276 35.4403 32.0056 35.0305 31.7924C34.7464 31.6448 34.4525 31.5168 34.1508 31.4095C33.862 31.3079 33.5681 31.2129 33.2905 31.0713C33.2722 31.0992 33.2808 31.1444 33.264 31.182C33.2536 31.2275 33.2323 31.2698 33.202 31.3054C33.1937 31.3091 33.1845 31.3104 33.1754 31.3091C33.1664 31.3077 33.158 31.3038 33.1511 31.2977C33.1949 31.07 33.2542 30.8456 33.3286 30.6259Z" fill="white"/>
<path d="M27.7693 28.9394C27.84 28.8455 27.9397 28.9171 28.0236 28.9003C28.3576 28.8343 28.6968 28.878 29.0349 28.8892C29.1504 28.8927 29.2719 28.9176 29.3787 28.8496C29.4855 28.7815 29.5414 28.9074 29.638 28.8947C29.8745 28.8638 30.1134 28.8998 30.3529 28.8912C30.5924 28.8826 30.8335 28.9471 31.0735 28.9831C31.2606 29.0115 31.4472 29.0451 31.6328 29.0765L31.7081 29.1878C31.7081 29.269 31.794 29.3233 31.7762 29.4097C31.5911 29.4879 31.4172 29.3828 31.2367 29.3741C30.6855 29.3477 30.1414 29.239 29.5851 29.2426C29.0812 29.2456 28.5768 29.2426 28.0729 29.2644C28.0054 29.2642 27.9389 29.2798 27.8786 29.3101C27.8244 29.1925 27.7876 29.0676 27.7693 28.9394Z" fill="white"/>
<path d="M27.8817 29.3101C27.8934 29.2594 27.8741 29.1872 27.9641 29.1964C28.347 29.2345 28.7293 29.1781 29.1127 29.1837C29.367 29.1872 29.6212 29.1791 29.8694 29.1801C30.1465 29.1801 30.4338 29.2309 30.714 29.2721C30.9433 29.3066 31.1746 29.3076 31.404 29.3411C31.5301 29.3599 31.647 29.434 31.7792 29.4097C31.8203 29.5039 31.8465 29.604 31.857 29.7062C31.5489 29.6555 31.2326 29.6615 30.9306 29.5742C30.8437 29.5512 30.7534 29.5447 30.6641 29.5549C30.447 29.5712 30.2263 29.5041 30.0168 29.5122C29.7804 29.5199 29.5511 29.4777 29.3177 29.4787C29.0034 29.4787 28.6871 29.4599 28.3759 29.498C28.2376 29.5148 28.0836 29.4706 27.9585 29.5707C27.9037 29.4952 27.8766 29.4032 27.8817 29.3101Z" fill="white"/>
<path d="M33.2315 31.187C33.2255 31.1076 33.2445 31.0282 33.2859 30.96C33.3749 31.1566 33.5859 31.1398 33.74 31.2063C34.0766 31.3526 34.4213 31.4816 34.761 31.6217C35.2527 31.8249 35.6804 32.1326 36.1507 32.3667C36.2488 32.4175 36.3246 32.5429 36.4599 32.4469C36.4471 32.5246 36.4054 32.5993 36.4293 32.6805C36.4207 32.7694 36.3944 32.8557 36.3521 32.9344C36.2941 32.8329 36.1919 32.777 36.0978 32.7313C35.4368 32.3829 34.7864 32.0097 34.0898 31.7268C33.862 31.6339 33.6276 31.5598 33.4028 31.4613C33.29 31.4079 33.1766 31.349 33.2315 31.187Z" fill="white"/>
<path d="M33.2315 31.187C33.2284 31.3125 33.3032 31.379 33.412 31.412C33.8136 31.54 34.2046 31.6989 34.5815 31.8873C34.8388 32.0117 35.0961 32.1438 35.3483 32.2794C35.5878 32.4083 35.8232 32.5541 36.0765 32.6602C36.1387 32.6842 36.1952 32.7209 36.2423 32.7681C36.2895 32.8152 36.3262 32.8717 36.35 32.9339C36.35 33.0893 36.2875 33.1193 36.1298 33.0893C35.4958 32.9695 34.8546 32.8892 34.2246 32.7455C34.2952 32.6719 34.3817 32.6983 34.4651 32.709C34.7366 32.742 35.0015 32.8176 35.2741 32.8435C35.4607 32.8806 35.6473 32.9146 35.8456 32.9385C35.8024 32.8904 35.7486 32.8528 35.6885 32.8288C34.9313 32.4175 34.1737 32.0056 33.3494 31.736C33.231 31.6969 33.1171 31.6415 33.1099 31.4892C33.1257 31.4206 33.1237 31.344 33.1923 31.2983C33.1964 31.2576 33.1888 31.214 33.2315 31.187Z" fill="white"/>
<path d="M70.3047 28.7541C70.5508 28.6942 70.7298 28.5184 70.9149 28.3697C71.1947 28.1491 71.4927 27.9525 71.8058 27.7821C72.1617 27.582 72.5116 27.3566 72.9061 27.2235C72.957 27.2068 73.0043 27.1595 73.0587 27.2184C72.8111 27.4754 72.5232 27.6836 72.2451 27.9025C71.702 28.3275 71.1336 28.715 70.5615 29.1004C70.4522 29.1735 70.3998 29.1806 70.3739 29.0319C70.3545 28.941 70.2976 28.8546 70.3047 28.7541Z" fill="white"/>
<path d="M33.1232 31.4846C33.1414 31.5368 33.1728 31.5835 33.2145 31.6199C33.2561 31.6564 33.3064 31.6815 33.3606 31.6928C33.8854 31.8391 34.3725 32.0818 34.8525 32.3251C35.2298 32.5165 35.6254 32.6897 35.9605 32.9725C35.7368 32.9913 35.5232 32.9426 35.3097 32.8908C34.9781 32.8425 34.6898 32.6876 34.3944 32.5434C33.9469 32.3255 33.4838 32.1413 33.0088 31.9924C32.9912 31.9871 32.9753 31.9771 32.963 31.9635C32.9716 31.9127 32.963 31.8584 33.0047 31.8172C33.051 31.7076 33.0667 31.5887 33.1232 31.4846Z" fill="white"/>
<path d="M32.963 31.9615C33.2279 31.9615 33.4537 32.0945 33.6886 32.1864C34.0489 32.3222 34.401 32.4787 34.7432 32.6551C34.9269 32.7452 35.1161 32.8237 35.3097 32.8903C35.0219 32.8852 34.7463 32.7958 34.463 32.7592C34.3848 32.7471 34.3057 32.7425 34.2266 32.7455C33.7918 32.6663 33.3576 32.5861 32.9228 32.5079C32.8328 32.4916 32.7972 32.4571 32.8344 32.3601C32.8842 32.2301 32.9208 32.094 32.963 31.9615Z" fill="white"/>
<path d="M52.9404 34.2207C53.1016 34.1481 53.2775 34.1766 53.4453 34.1573C53.8521 34.11 54.2665 34.1065 54.6769 34.0719C55.044 34.043 55.4096 33.9993 55.7757 33.9633C55.8128 33.9624 55.8498 33.9642 55.8866 33.9689C55.3389 34.0618 54.7852 34.0978 54.2325 34.1425C53.8028 34.1761 53.3731 34.2268 52.9404 34.2207Z" fill="white"/>
<path d="M52.913 34.0354L52.9048 34.2136C52.8962 34.1984 52.8799 34.1837 52.8799 34.1684C52.8853 33.4456 52.8916 32.7234 52.8987 32.0016C52.9027 31.9982 52.9073 31.9956 52.9123 31.994C52.9173 31.9924 52.9225 31.9918 52.9278 31.9923C52.933 31.9928 52.938 31.9943 52.9427 31.9968C52.9473 31.9992 52.9514 32.0026 52.9547 32.0067C52.9814 32.0528 52.9939 32.1058 52.9907 32.159C52.9943 32.2535 52.9938 32.3474 52.9907 32.4419C52.9907 32.516 52.9933 32.5901 52.9907 32.6643C52.9887 32.6968 52.9836 32.7292 52.9755 32.7608C52.913 32.9494 52.9017 33.1513 52.943 33.3458C52.9816 33.5778 52.8972 33.8043 52.913 34.0354Z" fill="white"/>
<path d="M72.8309 23.5591C72.695 23.2395 72.6093 22.9009 72.5766 22.5551C72.6789 22.8851 72.7637 23.2203 72.8309 23.5591Z" fill="white"/>
<path d="M56.8003 31.2983H56.8369C56.8507 31.6684 56.8563 32.0386 56.8369 32.4088C56.8329 32.4119 56.8282 32.4141 56.8232 32.4154C56.8183 32.4166 56.8131 32.4169 56.808 32.4161C56.803 32.4154 56.7981 32.4136 56.7937 32.411C56.7894 32.4083 56.7856 32.4049 56.7825 32.4007C56.7652 32.3743 56.7548 32.3439 56.7525 32.3124C56.7439 32.2179 56.7469 32.124 56.7469 32.0295C56.7435 31.9117 56.7435 31.7932 56.7469 31.674C56.752 31.5552 56.7276 31.4338 56.7769 31.3186L56.8003 31.2983Z" fill="white"/>
<path d="M56.8003 32.4083H56.838C56.8536 32.6789 56.8536 32.9502 56.838 33.2208C56.7617 33.1193 56.8166 32.9984 56.7993 32.8877C56.7261 32.8004 56.7485 32.6958 56.7485 32.5962C56.7495 32.5302 56.7454 32.4612 56.8003 32.4083Z" fill="white"/>
<path d="M37.0945 30.4537C37.1031 30.2421 37.165 30.036 37.2745 29.8545C37.2329 30.0593 37.1727 30.2599 37.0945 30.4537Z" fill="white"/>
<path d="M33.1232 31.4846C33.1023 31.6014 33.0815 31.7187 33.0047 31.8157C33.0353 31.6381 33.0835 31.4639 33.1486 31.2957L33.1944 31.2988C33.171 31.3602 33.1471 31.4222 33.1232 31.4846Z" fill="white"/>
<path d="M52.9399 32.0016L52.8987 32.0016C52.8804 31.8045 52.8804 31.6061 52.8987 31.409H52.9394C52.9557 31.4225 52.9683 31.44 52.976 31.4597C52.9926 31.5554 52.9981 31.6527 52.9923 31.7497C52.9867 31.837 53.0106 31.929 52.9399 32.0016Z" fill="white"/>
<path d="M79.3639 9.89322C79.3685 9.93588 79.3837 9.96838 79.4351 9.96736C79.3934 10.0308 79.3334 10.0689 79.2134 10.1309L79.3639 9.89322Z" fill="white"/>
<path d="M73.439 25.926C73.3373 25.8534 73.3765 25.7229 73.317 25.633L73.3633 25.63C73.4037 25.7242 73.4292 25.824 73.439 25.926Z" fill="white"/>
<path d="M58.8429 37.4007C58.9339 37.2991 59.0626 37.3392 59.1729 37.3194C59.5263 37.2549 59.8823 37.2032 60.2377 37.1498C60.2927 37.1455 60.348 37.1455 60.403 37.1498C59.8879 37.2631 59.3657 37.3337 58.8429 37.4007Z" fill="white"/>
<path d="M56.6534 37.6653C56.7225 37.6018 56.8059 37.6333 56.8817 37.6368C56.8115 37.6927 56.7307 37.6658 56.6534 37.6653Z" fill="white"/>
<path d="M60.6226 37.1133C60.6775 37.0478 60.7513 37.0823 60.8179 37.0772C60.7569 37.1056 60.6897 37.118 60.6226 37.1133Z" fill="white"/>
<path d="M60.4009 37.1508C60.4574 37.0828 60.5331 37.1204 60.6008 37.1153C60.5383 37.144 60.4695 37.1563 60.4009 37.1508Z" fill="white"/>
<path d="M57.9515 37.515C58.0085 37.4576 58.0797 37.4885 58.1453 37.4845C58.0857 37.5152 58.0177 37.5259 57.9515 37.515Z" fill="white"/>
<path d="M57.6546 37.552C57.7121 37.4946 57.7837 37.5256 57.8493 37.5221C57.7893 37.5526 57.721 37.5631 57.6546 37.552Z" fill="white"/>
<path d="M57.3205 37.5896C57.3795 37.5312 57.4517 37.5627 57.5188 37.5596C57.4574 37.5897 57.3881 37.6002 57.3205 37.5896Z" fill="white"/>
<path d="M58.2485 37.4769C58.3055 37.42 58.3756 37.451 58.4407 37.4459C58.3816 37.4765 58.3142 37.4874 58.2485 37.4769Z" fill="white"/>
<path d="M2.57381 37.6607C2.5762 37.4375 2.55352 37.2147 2.50618 36.9965C2.4711 36.8441 2.56974 36.7035 2.55703 36.546C2.55195 36.4953 2.57991 36.4297 2.56262 36.3612C2.53059 36.2368 2.58957 36.0915 2.57584 35.993C2.55347 35.828 2.61957 35.669 2.57076 35.5136C2.55516 35.4666 2.55806 35.4154 2.57889 35.3704C2.66991 35.1897 2.69737 35.015 2.58652 34.8301C2.57839 34.8164 2.57534 34.7849 2.58398 34.7793C2.7467 34.6331 2.64246 34.398 2.76551 34.2395C2.78066 34.2201 2.78971 34.1966 2.79152 34.172C2.79333 34.1474 2.78782 34.1229 2.77568 34.1014C2.76104 34.0702 2.75812 34.0348 2.76745 34.0016C2.77678 33.9684 2.79775 33.9397 2.82653 33.9206C2.87501 33.8805 2.90842 33.8252 2.92126 33.7636C2.9341 33.7021 2.92562 33.638 2.89721 33.5819C2.83873 33.4534 2.87992 33.3828 2.94806 33.293C3.03297 33.1807 2.99128 33.035 3.04111 32.9075C3.08687 32.7897 3.18806 32.6775 3.14281 32.5302C3.14321 32.5182 3.14664 32.5066 3.15277 32.4963C3.15891 32.486 3.16755 32.4774 3.17789 32.4713C3.41434 32.4205 3.36552 32.2174 3.39095 32.0651C3.4068 31.9834 3.43991 31.906 3.48807 31.8381C3.58977 31.6776 3.6818 31.5004 3.63502 31.2952C3.62485 31.2495 3.63502 31.218 3.67367 31.2058C3.83994 31.155 3.89842 31.023 3.91266 30.8676C3.91927 30.7925 3.96757 30.7447 4.00215 30.6889C4.11046 30.5127 4.25639 30.3603 4.29605 30.144C4.31995 30.0069 4.48623 29.9987 4.55792 29.8835C4.65606 29.725 4.80251 29.5864 4.86912 29.4148C4.91997 29.2792 5.08167 29.3223 5.11319 29.2187C5.14167 29.1233 4.9937 29.0435 5.06234 28.9201C5.09641 28.8582 5.11675 28.8252 5.19607 28.8308C5.35371 28.8414 5.56778 28.6591 5.59371 28.5002C5.60083 28.456 5.61659 28.4347 5.66134 28.4326C5.67536 28.4338 5.68947 28.432 5.70276 28.4274C5.71605 28.4228 5.72825 28.4155 5.73857 28.4059C5.74889 28.3964 5.75712 28.3848 5.76273 28.3719C5.76834 28.359 5.77122 28.3451 5.77117 28.3311C5.77575 28.2762 5.79609 28.2361 5.86626 28.2544C5.88869 28.2567 5.91133 28.253 5.93185 28.2437C5.91457 28.0157 6.1805 28.0594 6.27305 27.9136L6.2522 28.3326C6.21661 28.4453 6.1805 28.5581 6.14491 28.6708C6.09406 28.7277 6.14491 28.8054 6.10677 28.8648C6.04881 29.3513 5.92067 29.8241 5.82507 30.3034C5.80219 30.4167 5.76761 30.5274 5.73863 30.6396C5.70609 30.6244 5.67456 30.599 5.63693 30.6345C5.60215 30.6695 5.57066 30.7076 5.54286 30.7483C5.36028 31.0011 5.20677 31.2737 5.08522 31.5608C5.05266 31.6542 5.00805 31.743 4.95251 31.8249C4.7364 32.1062 4.66928 32.4505 4.53555 32.7669C4.39838 33.0901 4.28966 33.4247 4.21063 33.7668C4.05045 34.4614 3.91164 35.1566 3.85774 35.8737C3.81757 36.4049 3.86384 36.9284 3.85774 37.455C3.85774 37.5292 3.85774 37.6043 3.80028 37.6637L2.57381 37.6607Z" fill="white"/>
<path d="M3.79875 37.6607C3.79113 37.2067 3.81503 36.7517 3.74231 36.3013C3.72706 36.2058 3.79672 36.1433 3.8013 36.056C3.81909 35.7229 3.83842 35.3892 3.87655 35.0581C3.90675 34.8557 3.94782 34.6549 3.99961 34.4569C4.08656 34.072 4.17605 33.688 4.26554 33.3041C4.2759 33.256 4.29159 33.2092 4.31233 33.1645C4.47046 32.8461 4.5747 32.5079 4.68708 32.1722C4.74759 31.9909 4.89607 31.8599 4.96827 31.6827C5.01455 31.5699 5.0776 31.4648 5.10251 31.3434C5.10675 31.3159 5.11737 31.2897 5.13352 31.2669C5.14968 31.2442 5.17092 31.2255 5.19557 31.2124C5.23319 31.1931 5.2754 31.1759 5.28099 31.1241C5.30896 30.8443 5.55252 30.7082 5.67507 30.4893C5.7488 30.537 5.71829 30.5939 5.73456 30.6371V30.6335C5.67609 30.6843 5.73456 30.7645 5.69388 30.8214V30.8179C5.63846 30.8686 5.69795 30.9423 5.65168 30.9925C5.5271 31.638 5.39744 32.2824 5.27998 32.9289C4.99963 34.4665 4.72318 36.0049 4.45063 37.5439C4.43589 37.6272 4.41606 37.6754 4.31436 37.6693C4.14503 37.6582 3.97164 37.6627 3.79875 37.6607Z" fill="white"/>
<path d="M21.5053 36.8096C21.5709 37.0894 21.6365 37.3682 21.7056 37.6668H21.519C20.2595 37.6668 19.0005 37.6637 17.7409 37.6703C17.5914 37.6703 17.5442 37.6241 17.5248 37.4804C17.474 37.1097 17.4033 36.741 17.3413 36.3713C17.9464 36.6227 18.5799 36.7339 19.2298 36.8091C19.8151 36.8766 20.3993 36.8731 20.9846 36.8883C21.1554 36.8929 21.3426 36.904 21.5053 36.8096Z" fill="white"/>
<path d="M21.5053 36.8096C21.4987 36.8563 21.5017 36.935 21.4392 36.9193C21.2632 36.8751 21.102 36.9741 20.922 36.9447C20.6976 36.913 20.4703 36.9082 20.2447 36.9305C20.0086 36.9429 19.7719 36.9288 19.539 36.8883C19.1469 36.8314 18.7488 36.8375 18.3603 36.7451C18.1299 36.6918 17.9108 36.6004 17.6682 36.576C17.5665 36.5658 17.3997 36.5181 17.3413 36.3729C17.2299 35.8326 17.1104 35.2933 17.0514 34.7433C17.1582 34.7677 17.1267 34.8687 17.1587 34.9347C17.1842 35.0723 17.2131 35.209 17.2421 35.3461C17.2986 35.7203 17.2975 35.7244 17.6657 35.8122C18.0013 35.893 18.3267 36.0057 18.6669 36.0743C18.9888 36.1393 19.3142 36.1596 19.6376 36.1982C20.0589 36.2544 20.4846 36.2698 20.9088 36.2444C21.0675 36.2327 21.2322 36.2378 21.3553 36.1078C21.4267 36.3366 21.4769 36.5716 21.5053 36.8096Z" fill="white"/>
<path d="M11.3722 27.0265C11.5684 27.0895 11.5277 27.2641 11.5094 27.3911C11.4845 27.5128 11.478 27.6376 11.4901 27.7613C11.5252 27.9644 11.4637 28.1757 11.5552 28.3707C11.6122 28.491 11.6452 28.6033 11.5684 28.7348C11.5176 28.8231 11.5262 28.9303 11.5288 29.0395C11.5261 29.2259 11.4781 29.4089 11.3889 29.5727C11.3686 29.6184 11.3618 29.6689 11.3691 29.7184C11.3759 29.8892 11.3465 30.0595 11.2827 30.2181C11.2359 30.3334 11.0899 30.4532 11.1703 30.6208C11.211 30.7071 11.1377 30.7386 11.0635 30.7508C10.8341 30.6974 10.6099 30.624 10.3933 30.5314C10.5967 30.2476 10.5626 29.8825 10.7254 29.5849C10.749 29.5336 10.7517 29.4751 10.733 29.4219C10.7009 29.3071 10.733 29.2137 10.7935 29.1101C10.8835 28.9496 10.8896 28.7576 10.9206 28.5804C10.9551 28.4045 10.9495 28.2232 10.9043 28.0497C10.8723 27.937 10.8937 27.8273 10.9043 27.7115C10.9284 27.5264 10.9345 27.3393 10.9226 27.1529C10.9138 27.1083 10.9162 27.0621 10.9296 27.0186C10.943 26.9751 10.967 26.9356 10.9994 26.9036L11.3722 27.0265Z" fill="white"/>
<path d="M21.3588 36.1058C21.3659 36.2073 21.3349 36.2485 21.2175 36.2642C20.5366 36.3546 19.8664 36.2576 19.1901 36.1982C18.5906 36.1474 18.0343 35.9443 17.4577 35.8117C17.3092 35.7782 17.2172 35.7254 17.2238 35.5502C17.2264 35.4827 17.1989 35.407 17.1999 35.3334C17.2701 35.2318 17.3586 35.2897 17.4328 35.3166C18.0443 35.5314 18.6771 35.6798 19.3203 35.7594C19.877 35.826 20.4379 35.8513 20.9983 35.8351C21.127 35.8351 21.2017 35.7843 21.1676 35.6426C21.1612 35.5816 21.1517 35.5209 21.1392 35.4608C21.1224 35.3735 21.1066 35.2867 21.0919 35.1988C21.089 35.1687 21.0921 35.1383 21.101 35.1094C21.108 35.0903 21.1213 35.074 21.1387 35.0632C21.2321 35.4062 21.3056 35.7543 21.3588 36.1058Z" fill="white"/>
<path d="M16.6019 32.4942L20.5839 33.6012C20.6714 33.6256 20.7583 33.652 20.8453 33.6769C20.8459 33.6802 20.8456 33.6837 20.8444 33.6869C20.8433 33.6901 20.8413 33.693 20.8386 33.6951C20.8829 33.8444 20.7954 33.882 20.6729 33.8846C19.3909 33.9206 18.1232 33.6082 17.0052 32.9807C16.8816 32.9121 16.8018 32.9735 16.7072 33.005C16.6572 32.8381 16.622 32.6672 16.6019 32.4942Z" fill="white"/>
<path d="M15.7441 28.3483C15.7538 28.3047 15.764 28.261 15.8245 28.2696C16.3253 28.3402 16.8277 28.3915 17.3209 28.5235C17.7277 28.6297 18.1254 28.7378 18.5225 28.8709C18.8403 28.9775 19.1586 29.074 19.4571 29.2264C19.5163 29.2566 19.5836 29.2673 19.6493 29.2568C19.8318 29.2147 19.8135 29.3401 19.839 29.4432C19.8603 29.531 19.8898 29.6158 19.8685 29.7078C18.9694 29.4666 18.0806 29.1888 17.1923 28.911C16.7108 28.7587 16.2221 28.6302 15.7497 28.4504L15.7441 28.3483Z" fill="white"/>
<path d="M10.9999 26.898C10.9928 27.1519 11.0055 27.4175 10.9654 27.6521C10.9094 27.9786 11.0772 28.2925 10.974 28.5855C10.9054 28.7805 10.974 29.0192 10.7894 29.1796C10.7717 29.2003 10.7594 29.225 10.7533 29.2515C10.7473 29.2781 10.7478 29.3057 10.7548 29.332C10.8535 29.5351 10.6974 29.6824 10.6725 29.855C10.6491 30.0155 10.497 30.1628 10.6064 30.341C10.6277 30.3766 10.6008 30.4045 10.5667 30.403C10.4747 30.3989 10.4533 30.4878 10.3933 30.5253C10.2388 30.495 10.0889 30.4446 9.94737 30.3755C10.0297 30.1323 10.2209 29.9348 10.2443 29.6646C10.2504 29.5976 10.2728 29.5315 10.2514 29.4615C10.2443 29.4381 10.2311 29.3995 10.2469 29.3914C10.4386 29.2898 10.3013 29.1187 10.3328 28.9851C10.3699 28.8297 10.4584 28.6698 10.4396 28.522C10.4087 28.3209 10.4127 28.116 10.4513 27.9162C10.5159 27.6293 10.5057 27.3393 10.5448 27.0529C10.5576 26.9564 10.5565 26.8386 10.6648 26.7771L10.9999 26.898Z" fill="white"/>
<path d="M21.1275 35.1115L21.13 35.1856C21.0812 35.2239 21.0195 35.2421 20.9576 35.2364C19.7275 35.2621 18.5034 35.0594 17.3474 34.6387C17.2111 34.5879 17.0616 34.5473 16.9797 34.4066C16.9367 34.2751 16.9112 34.1385 16.904 34.0003C16.9996 33.9612 17.0891 33.9963 17.1699 34.0364C17.6367 34.2659 18.136 34.4142 18.6359 34.531C19.0508 34.628 19.4784 34.7184 19.9107 34.7235C20.1868 34.727 20.4629 34.7611 20.7405 34.7372C20.8508 34.7281 20.979 34.725 21.0624 34.8352C21.1214 34.9185 21.1015 35.0206 21.1275 35.1115Z" fill="white"/>
<path d="M16.7072 33.005C16.7667 32.8222 16.8735 32.8379 17.0092 32.9253C17.6789 33.3554 18.4421 33.5423 19.2003 33.7266C19.5562 33.813 19.929 33.8282 20.2961 33.8455C20.4324 33.8531 20.5697 33.8089 20.7141 33.8414C20.7944 33.8592 20.8417 33.7825 20.8386 33.6951C20.8894 33.9055 20.9253 34.1191 20.9459 34.3345C20.8137 34.2456 20.6678 34.2405 20.5122 34.24C19.4256 34.24 18.3882 33.9932 17.3865 33.5829C17.2889 33.5445 17.1955 33.496 17.1079 33.4382C17.0631 33.4025 17.0088 33.3807 16.9518 33.3756C16.8948 33.3705 16.8375 33.3822 16.787 33.4092C16.7415 33.2789 16.7146 33.1428 16.7072 33.005Z" fill="white"/>
<path d="M16.9777 34.4086C17.6184 34.7534 18.3201 34.9038 19.0249 35.0343C19.7192 35.1593 20.4249 35.2104 21.13 35.1866C21.1602 35.2696 21.1735 35.3579 21.1692 35.4461C21.1371 35.6193 20.9871 35.5984 20.8778 35.5984C20.318 35.5977 19.7588 35.5627 19.2034 35.4938C18.5108 35.4009 17.8447 35.1937 17.1852 34.9672C17.1624 34.9574 17.1414 34.9438 17.1231 34.9271C17.0545 34.8829 17.118 34.7875 17.0514 34.7423C17.0022 34.638 16.977 34.524 16.9777 34.4086Z" fill="white"/>
<path d="M16.787 33.4092C16.8287 33.2737 16.8994 33.2655 17.0184 33.3351C17.5492 33.6428 18.1315 33.816 18.7218 33.9633C19.1294 34.0652 19.5453 34.1308 19.9646 34.1593C20.2246 34.181 20.4857 34.1888 20.7466 34.1827C20.8707 34.1776 20.8992 34.2609 20.9459 34.335L20.9831 34.3802C21.0486 34.5523 20.9322 34.5661 20.8127 34.5701C20.4296 34.5812 20.0462 34.5642 19.6656 34.5193C18.8723 34.4298 18.0959 34.2281 17.3596 33.9201C17.3013 33.8994 17.2454 33.8727 17.1928 33.8404C17.1451 33.8071 17.0908 33.7846 17.0335 33.7745C16.9763 33.7643 16.9175 33.7667 16.8613 33.7815C16.8177 33.6619 16.7927 33.5364 16.787 33.4092Z" fill="white"/>
<path d="M16.8613 33.7794C16.9253 33.6632 17.0138 33.687 17.1089 33.7353C17.6906 34.0344 18.312 34.2223 18.9496 34.3523C19.5754 34.476 20.2125 34.5327 20.8503 34.5214C20.9592 34.5214 20.9958 34.4797 20.9851 34.3797C21.0283 34.4264 21.0232 34.4858 21.0273 34.5432C21.0151 34.6483 21.1071 34.7433 21.0578 34.852C20.9565 34.7939 20.8393 34.7697 20.7232 34.7829C20.1639 34.8118 19.6173 34.7484 19.0661 34.662C18.583 34.5869 18.1335 34.4213 17.6708 34.2878C17.4048 34.2106 17.1765 34.0491 16.904 34.0014C16.843 33.9353 16.8582 33.8561 16.8613 33.7794Z" fill="white"/>
<path d="M10.6648 26.7832C10.6328 26.927 10.5387 27.0636 10.617 27.2189C10.4503 27.3891 10.6582 27.6201 10.5118 27.8151C10.4758 27.8757 10.4554 27.9442 10.4524 28.0146C10.4494 28.0849 10.4638 28.1549 10.4945 28.2183C10.5199 28.2691 10.4945 28.2991 10.465 28.3326C10.4507 28.3515 10.438 28.3716 10.4269 28.3925C10.6618 28.5058 10.4518 28.6556 10.4269 28.7581C10.3831 28.945 10.3994 29.1278 10.3847 29.3117C10.3847 29.3269 10.3979 29.3432 10.405 29.3589C10.1965 29.3492 10.3196 29.5077 10.3125 29.5747C10.2876 29.7981 10.2051 30.0113 10.073 30.1932C10.0292 30.2542 10.1167 30.4091 9.94585 30.3781C9.8578 30.3733 9.77256 30.3455 9.69872 30.2973C9.6864 30.2877 9.67755 30.2743 9.67352 30.2592C9.66948 30.2441 9.67047 30.228 9.67635 30.2135C9.81313 29.951 9.8594 29.6549 9.92195 29.3762C9.96314 29.1928 10.0653 28.9963 9.98754 28.7901C9.97897 28.7599 9.97796 28.728 9.98461 28.6973C9.99126 28.6666 10.0054 28.6379 10.0257 28.6139C10.2006 28.3869 10.1198 28.1173 10.1604 27.8684C10.2011 27.6196 10.1269 27.355 10.2906 27.1301C10.3231 27.0854 10.2906 27.0331 10.3018 26.9859C10.3252 26.8812 10.3084 26.7568 10.4411 26.7061C10.52 26.7169 10.5961 26.7431 10.6648 26.7832Z" fill="white"/>
<path d="M9.51465 26.381C9.72262 26.4242 9.9133 26.5161 10.1086 26.5948C10.0847 27.0519 10.0465 27.5059 9.91839 27.9472C9.89754 28.0193 9.93974 28.0787 9.94635 28.1452C9.96517 28.327 9.86093 28.4809 9.84923 28.6586C9.83245 28.9054 9.71194 29.139 9.72923 29.3955C9.73432 29.4706 9.6911 29.5387 9.6616 29.6047C9.58177 29.7824 9.60364 29.9957 9.46533 30.1516C9.44651 30.1729 9.44143 30.2115 9.39922 30.1892C9.29233 30.171 9.18923 30.1351 9.09413 30.083C9.086 29.9505 9.1521 29.8337 9.17498 29.7123C9.22583 29.4533 9.30515 29.202 9.35549 28.9435C9.39973 28.7165 9.39414 28.4768 9.53397 28.2671C9.59957 28.1691 9.56397 28.0259 9.60516 27.9009C9.69667 27.6243 9.71074 27.3278 9.64584 27.0438C9.62982 26.9521 9.63486 26.858 9.66059 26.7685C9.69821 26.6126 9.67177 26.4953 9.51262 26.4308C9.50957 26.4222 9.50651 26.4141 9.50295 26.4059C9.4994 26.3978 9.51109 26.3892 9.51465 26.381Z" fill="white"/>
<path d="M9.18057 26.2648C9.24809 26.2692 9.31289 26.293 9.36719 26.3333C9.41092 26.3684 9.47346 26.3684 9.51363 26.41C9.54211 26.5354 9.50041 26.6603 9.51363 26.7878C9.52126 26.8716 9.50194 26.9584 9.54313 27.0387C9.56855 27.0895 9.53702 27.1326 9.53346 27.1788C9.51363 27.4398 9.39312 27.6831 9.38956 27.9406C9.38086 28.0781 9.36388 28.2149 9.33871 28.3504C9.28532 28.7658 9.06515 29.1385 9.05549 29.5625C9.05549 29.6671 8.98582 29.7657 8.99599 29.8825C9.00108 29.9434 8.92226 29.9871 8.85616 29.9657C8.79006 29.9444 8.7209 29.9566 8.65887 29.9266C8.54444 29.9069 8.43401 29.8686 8.33191 29.8134C8.58615 29.8037 8.5892 29.6103 8.65327 29.4259C8.73361 29.1949 8.75497 28.944 8.88362 28.7297C8.90241 28.7048 8.9129 28.6746 8.91362 28.6434C8.8765 28.2254 8.98938 27.8222 9.04989 27.416C9.10074 27.0844 9.12769 26.7533 9.14905 26.4202C9.15057 26.3699 9.13634 26.3105 9.18057 26.2648Z" fill="white"/>
<path d="M9.18057 26.2648C9.19634 26.5161 9.20142 26.7665 9.1343 27.0128C9.13125 27.0245 9.12006 27.0361 9.1221 27.0458C9.18566 27.318 9.04532 27.5582 9.00718 27.8141C8.99091 27.9233 9.04023 28.0335 8.99549 28.1554C8.97921 28.2001 8.98328 28.2727 8.95074 28.3301C8.9298 28.3596 8.92007 28.3956 8.92328 28.4316C9.02854 28.7388 8.79463 28.9745 8.75243 29.2502C8.73616 29.3548 8.68531 29.4533 8.67056 29.5625C8.63751 29.8037 8.57954 29.8337 8.33039 29.8164C8.31389 29.8186 8.29712 29.817 8.28135 29.8117C8.26557 29.8064 8.25122 29.7976 8.23937 29.786C8.30731 29.6905 8.3476 29.5783 8.35581 29.4615C8.38123 29.2264 8.50836 29.0217 8.52666 28.7896C8.56378 28.3255 8.77226 27.8832 8.70056 27.4058C8.68277 27.288 8.78904 27.2057 8.79057 27.0905C8.79362 26.8366 8.86938 26.5872 8.84141 26.3287C8.83277 26.2526 8.88667 26.2064 8.95887 26.186C9.03782 26.1951 9.11365 26.222 9.18057 26.2648Z" fill="white"/>
<path d="M9.39922 30.1892C9.55533 29.9688 9.58482 29.6986 9.66008 29.4518C9.71093 29.2924 9.72364 29.1055 9.74805 28.9308C9.75261 28.8471 9.7687 28.7644 9.79584 28.685C9.82737 28.616 9.84364 28.5647 9.80245 28.5002C9.79627 28.4932 9.7918 28.4849 9.78939 28.4759C9.78699 28.4669 9.78671 28.4575 9.78858 28.4484C9.79046 28.4393 9.79443 28.4307 9.8002 28.4234C9.80596 28.4161 9.81335 28.4102 9.82178 28.4062C9.98602 28.3047 9.86652 28.163 9.86347 28.0391C9.86347 28.0157 9.81923 27.9924 9.8411 27.9599C10.0104 27.7125 9.94941 27.4079 10.0379 27.1367C10.0668 27.0102 10.0705 26.8792 10.0486 26.7512C10.0369 26.6715 10.0704 26.6395 10.1086 26.5948C10.2258 26.6113 10.339 26.649 10.4426 26.7061C10.375 26.8269 10.3008 26.9468 10.3791 27.091C10.3827 27.096 10.385 27.1017 10.386 27.1078C10.387 27.1138 10.3866 27.12 10.3848 27.1259C10.3829 27.1317 10.3798 27.1371 10.3755 27.1415C10.3713 27.146 10.366 27.1493 10.3603 27.1514C10.2311 27.2149 10.2535 27.3281 10.2408 27.4449C10.2174 27.6653 10.1736 27.8964 10.1925 28.1051C10.2133 28.3392 10.1218 28.5063 10.0399 28.6937C10.0282 28.7206 10.0099 28.7663 10.0216 28.7785C10.1559 28.9186 9.985 29.0435 10.0053 29.1654C10.0338 29.3391 9.9372 29.4701 9.90364 29.6225C9.85635 29.8256 9.84364 30.0475 9.70838 30.2262C9.69567 30.243 9.70228 30.274 9.70025 30.2984C9.59444 30.2793 9.49265 30.2423 9.39922 30.1892Z" fill="white"/>
<path d="M8.65734 29.9297C8.69809 29.9161 8.74109 29.9106 8.78395 29.9134C8.91362 29.9505 9.02549 29.984 8.92836 29.7799C8.92576 29.768 8.92564 29.7558 8.928 29.7439C8.93036 29.732 8.93516 29.7208 8.94209 29.7108C9.04023 29.5483 9.0082 29.3594 9.0504 29.1908C9.09515 29.0131 9.12413 28.8176 9.23803 28.6612C9.26397 28.6251 9.29498 28.6002 9.28075 28.5499C9.24464 28.4179 9.26295 28.36 9.36871 28.2153C9.37615 28.2024 9.38077 28.1881 9.38226 28.1733C9.38375 28.1585 9.38208 28.1436 9.37736 28.1295C9.29651 27.9304 9.30719 27.743 9.44397 27.5709C9.47753 27.5287 9.45261 27.4916 9.44906 27.45C9.4399 27.3423 9.40736 27.2281 9.50601 27.1392C9.51607 27.1321 9.52322 27.1216 9.52612 27.1097C9.52901 27.0977 9.52747 27.0851 9.52177 27.0742C9.3977 26.8543 9.46024 26.6324 9.51516 26.411C9.75974 26.4283 9.74499 26.5913 9.71855 26.7665C9.688 26.9057 9.69538 27.0505 9.73991 27.1859C9.77703 27.2911 9.70482 27.4612 9.7216 27.6008C9.73533 27.7171 9.64889 27.8202 9.69516 27.935C9.49177 28.0167 9.72364 28.2722 9.51872 28.3702C9.45872 28.3986 9.45312 28.5433 9.45567 28.6114C9.46228 28.7998 9.39872 28.9709 9.35905 29.1436C9.28634 29.4594 9.23803 29.7855 9.09667 30.0835C8.9439 30.0525 8.7961 30.0007 8.65734 29.9297Z" fill="white"/>
<path d="M8.95786 26.1876C8.90701 26.2516 8.83785 26.3074 8.90701 26.4029C8.91646 26.4189 8.92207 26.4368 8.92339 26.4553C8.92471 26.4738 8.92172 26.4924 8.91464 26.5095C8.8048 26.7015 8.8882 26.9158 8.82972 27.1189C8.69039 27.5917 8.7509 28.0939 8.60192 28.5723C8.53073 28.8003 8.50022 29.0456 8.43157 29.2832C8.3909 29.4269 8.35327 29.5773 8.30852 29.724C8.30594 29.7414 8.29737 29.7574 8.28428 29.7691C8.2712 29.7809 8.25442 29.7878 8.23682 29.7885C8.15985 29.7778 8.08573 29.7521 8.01868 29.7128C8.18903 29.3477 8.26326 28.9592 8.33801 28.5657C8.40106 28.2305 8.44937 27.8913 8.53073 27.5592C8.56632 27.4129 8.52666 27.2682 8.53581 27.1209C8.55005 26.8939 8.66141 26.6857 8.63751 26.4552C8.63141 26.3948 8.62327 26.3333 8.62124 26.2719C8.61819 26.1906 8.63853 26.1241 8.73463 26.1119C8.81413 26.1185 8.89078 26.1445 8.95786 26.1876Z" fill="white"/>
<path d="M6.58068 29.1883C6.4378 29.171 6.49577 29.0593 6.51611 29.0039C6.63255 28.685 6.67475 28.3438 6.78204 28.0269C6.95188 27.5236 7.02713 26.9991 7.17714 26.4928C7.18578 26.4643 7.199 26.4374 7.21019 26.41C7.24528 26.314 7.25494 26.2114 7.28646 26.1028C7.38816 26.1535 7.36731 26.2373 7.3607 26.312C7.30985 26.8939 7.25036 27.4764 7.15731 28.0513C7.0974 28.4096 7.00811 28.7623 6.89035 29.106C6.82425 29.3046 6.69814 29.2157 6.58068 29.1883Z" fill="white"/>
<path d="M8.32784 25.9601C8.40683 25.9699 8.48269 25.9969 8.55005 26.0393C8.53988 26.279 8.61158 26.5126 8.51903 26.7604C8.44429 26.9595 8.50734 27.1931 8.45496 27.4124C8.4092 27.6039 8.35327 27.8014 8.36598 28.0015C8.38835 28.357 8.16258 28.6561 8.17021 29.0039C8.16851 29.041 8.1606 29.0776 8.14682 29.1121C8.08123 29.3056 7.98716 29.4919 7.99428 29.7042C7.89258 29.6951 7.8102 29.6433 7.72274 29.6026C7.7319 29.5854 7.76139 29.5701 7.76037 29.5661C7.69885 29.3543 7.81122 29.1837 7.89105 29.0075C7.9419 28.8968 7.90427 28.7779 7.93224 28.6617C8.0525 28.1975 8.13748 27.7249 8.18648 27.2479C8.2114 26.9508 8.28818 26.6548 8.24394 26.3521C8.22259 26.2114 8.32276 26.0951 8.32784 25.9601Z" fill="white"/>
<path d="M7.62155 25.7082C7.69681 25.6833 7.70698 25.7854 7.77054 25.7844C7.79292 25.7981 7.81885 25.8077 7.82698 25.8351C7.87071 26.1723 7.81936 26.505 7.76495 26.835C7.73596 27.0113 7.74817 27.1905 7.73546 27.3647C7.7024 27.8116 7.55749 28.2305 7.48121 28.6652C7.44714 28.8643 7.36629 29.0522 7.35816 29.2553C7.35911 29.2756 7.35601 29.2958 7.34902 29.3148C7.34204 29.3339 7.33132 29.3514 7.31749 29.3662C7.30366 29.3811 7.287 29.393 7.26849 29.4013C7.24998 29.4097 7.22998 29.4142 7.20968 29.4148C7.10124 29.3948 6.9968 29.3572 6.90052 29.3035C6.96256 29.2701 7.01406 29.2201 7.04926 29.1591C7.08446 29.0982 7.10198 29.0286 7.09985 28.9582C7.10493 28.8231 7.15476 28.6942 7.19392 28.5652C7.32917 28.1193 7.39731 27.6613 7.44816 27.1991C7.48274 26.8945 7.55749 26.5898 7.55342 26.2764C7.55342 26.1363 7.52748 25.9951 7.55901 25.8544C7.57274 25.8021 7.57071 25.7463 7.62155 25.7082Z" fill="white"/>
<path d="M8.32784 25.9601C8.34157 25.9849 8.37259 26.019 8.36547 26.0327C8.2592 26.2323 8.34818 26.4547 8.30191 26.6477C8.22564 26.9666 8.24038 27.2895 8.1875 27.6079C8.12343 27.9964 7.97444 28.3737 7.96529 28.7597C7.95868 29.0608 7.72173 29.2848 7.77054 29.5833C7.75408 29.5904 7.73708 29.5962 7.71969 29.6006C7.64219 29.5943 7.56769 29.5679 7.50359 29.5239C7.54325 29.3208 7.66427 29.1395 7.6841 28.9308C7.71613 28.5972 7.89054 28.2904 7.86614 27.9456C7.86661 27.8593 7.88085 27.7736 7.90834 27.6917C7.96908 27.4197 8.00449 27.1426 8.01411 26.864C8.02987 26.605 8.05377 26.3399 8.09089 26.0794C8.10208 26.0022 8.12546 25.9337 8.2175 25.9205L8.32784 25.9601Z" fill="white"/>
<path d="M8.21903 25.92C8.08224 26.0357 8.12699 26.2033 8.11479 26.3455C8.10106 26.5065 8.05479 26.6725 8.06394 26.8218C8.0736 27.0107 8.00343 27.192 8.03038 27.3642C8.05173 27.5013 7.97495 27.5846 7.94851 27.6882C7.8941 27.902 7.96326 28.1249 7.87936 28.3311C7.76393 28.6129 7.76597 28.9217 7.67596 29.2096C7.63884 29.3259 7.55749 29.4158 7.50867 29.5239C7.48888 29.5265 7.46876 29.5243 7.45 29.5175C7.43124 29.5107 7.41439 29.4995 7.40087 29.4848C7.34596 29.2614 7.44104 29.0572 7.50664 28.8587C7.60833 28.5586 7.65359 28.2493 7.70698 27.9446C7.76037 27.6399 7.83003 27.3454 7.85546 27.0412C7.88343 26.7121 7.90631 26.381 7.91749 26.053C7.92321 26.0081 7.91623 25.9626 7.89736 25.9215C7.87849 25.8804 7.84847 25.8454 7.81071 25.8204L7.7741 25.7864C7.93733 25.7717 8.0736 25.8616 8.21903 25.92Z" fill="white"/>
<path d="M7.99275 29.7042C7.89105 29.5011 8.03597 29.3365 8.08224 29.1558C8.15292 28.8805 8.17225 28.5972 8.28106 28.3245C8.34361 28.1681 8.31411 27.9756 8.32784 27.7994C8.32827 27.7566 8.33425 27.7141 8.34564 27.6729C8.44378 27.3941 8.45598 27.1032 8.46056 26.8142C8.46361 26.6532 8.60497 26.5095 8.53073 26.3521C8.4753 26.2343 8.50073 26.1409 8.55005 26.0393C8.61765 26.0452 8.68235 26.0694 8.73717 26.1094C8.57853 26.247 8.73717 26.4202 8.68633 26.5705C8.67514 26.6025 8.70107 26.6482 8.68633 26.6776C8.56988 26.9396 8.6309 27.2245 8.58463 27.4866C8.5287 27.7913 8.53022 28.1107 8.42191 28.4113C8.35629 28.6176 8.31582 28.8311 8.3014 29.0471C8.28615 29.1994 8.19513 29.3142 8.1636 29.4533C8.14021 29.5549 8.1514 29.6687 8.02123 29.7073L8.00597 29.7103L7.99275 29.7042Z" fill="white"/>
<path d="M7.80715 25.8184C8.05682 25.8128 7.96478 26.0048 7.9597 26.117C7.94769 26.2101 7.94463 26.3041 7.95055 26.3978C7.98207 26.6091 7.8997 26.8122 7.89665 27.0255C7.89156 27.3784 7.79495 27.7252 7.73444 28.0731C7.68867 28.3367 7.65359 28.6104 7.54833 28.8678C7.46901 29.0613 7.44664 29.2781 7.39579 29.4848C7.32845 29.4799 7.26382 29.4564 7.20917 29.4168C7.28443 29.3508 7.36426 29.2878 7.30019 29.1695C7.29796 29.1609 7.29753 29.152 7.29893 29.1432C7.30033 29.1345 7.30353 29.1261 7.30833 29.1187C7.46087 28.8785 7.41003 28.588 7.50765 28.3351C7.59816 28.0907 7.65279 27.8345 7.66986 27.5744C7.6841 27.4033 7.71359 27.2276 7.71207 27.0493C7.7046 26.7882 7.73753 26.5275 7.80969 26.2764C7.84325 26.1698 7.77003 26.0444 7.78224 25.921C7.78615 25.8859 7.79452 25.8514 7.80715 25.8184Z" fill="white"/>
<path d="M6.58068 29.1883C6.77696 29.2512 6.83899 29.1471 6.88578 28.9755C6.96917 28.6708 7.06425 28.3605 7.10951 28.0579C7.15324 27.7643 7.19544 27.4571 7.21477 27.1534C7.22888 26.8726 7.26167 26.593 7.3129 26.3166C7.32117 26.2547 7.32593 26.1925 7.32714 26.1302C7.25138 26.2282 7.28189 26.3394 7.21019 26.41C7.20876 26.2948 7.2309 26.1806 7.27528 26.0743C7.33324 25.9692 7.32867 25.8489 7.35918 25.7371C7.37646 25.6975 7.32002 25.6015 7.43596 25.6356C7.46615 25.6666 7.48899 25.7041 7.5028 25.7451C7.51662 25.7861 7.52105 25.8297 7.51579 25.8727C7.49087 26.2886 7.49698 26.7055 7.43952 27.1204C7.37697 27.5775 7.27884 28.0259 7.19544 28.4783C7.15171 28.7175 7.03324 28.9267 6.98696 29.1608C6.96561 29.269 6.89798 29.3005 6.79526 29.2624C6.71864 29.2561 6.64484 29.2306 6.58068 29.1883Z" fill="white"/>
<path d="M6.79526 29.2649C6.87967 29.2599 6.95391 29.2583 6.94069 29.1309C6.94241 29.0571 6.96288 28.9849 7.00018 28.9212C7.17002 28.5657 7.1751 28.1665 7.27528 27.7948C7.36426 27.4632 7.34545 27.1225 7.4385 26.7949C7.46464 26.6699 7.46996 26.5414 7.45426 26.4146C7.43647 26.1546 7.50511 25.8935 7.43596 25.6366C7.50285 25.6446 7.56667 25.6692 7.62155 25.7082C7.58596 25.9834 7.62562 26.2637 7.5941 26.5339C7.57579 26.6862 7.6124 26.8579 7.5224 27.0179C7.48376 27.0869 7.5107 27.2286 7.48884 27.3291C7.43105 27.5785 7.38624 27.8308 7.3546 28.0848C7.31799 28.4367 7.12019 28.7419 7.12985 29.1004C7.13247 29.1301 7.12817 29.16 7.11729 29.1878C7.10641 29.2156 7.08925 29.2405 7.06715 29.2606C7.04504 29.2806 7.01859 29.2953 6.98986 29.3035C6.96113 29.3116 6.93091 29.313 6.90154 29.3076C6.8634 29.301 6.8212 29.301 6.79526 29.2649Z" fill="white"/>
<path d="M21.0537 34.852C21.0537 34.7504 20.9932 34.6488 21.0232 34.5432C21.0797 34.712 21.1172 34.8866 21.1351 35.0637C21.132 35.0795 21.1285 35.0957 21.1254 35.1115L21.0537 34.852Z" fill="white"/>
<path d="M7.35918 25.7371C7.36731 25.8585 7.35918 25.9753 7.27528 26.0743C7.29714 25.9606 7.30578 25.8433 7.35918 25.7371Z" fill="white"/>
<path d="M5.65422 30.9925C5.66287 30.9331 5.62727 30.863 5.69643 30.8179C5.70369 30.8792 5.68872 30.9412 5.65422 30.9925Z" fill="white"/>
<path d="M9.51363 26.41C9.48493 26.4095 9.45673 26.4023 9.4313 26.389C9.40588 26.3757 9.38392 26.3566 9.36719 26.3333C9.42012 26.3335 9.47167 26.3502 9.51465 26.381C9.51465 26.3907 9.51414 26.4003 9.51363 26.41Z" fill="white"/>
<path d="M5.69744 30.8214C5.70202 30.7569 5.66439 30.6833 5.73812 30.6335C5.74231 30.6987 5.72823 30.7638 5.69744 30.8214Z" fill="white"/>
<path d="M6.10423 28.8622C6.10881 28.7962 6.07423 28.7221 6.14237 28.6683C6.14851 28.7352 6.13527 28.8026 6.10423 28.8622Z" fill="white"/>
<path d="M52.9404 30.2247C52.9404 29.8982 52.9404 29.5722 52.9404 29.2462C52.9404 29.141 52.9404 29.0984 53.0863 29.1035C53.4672 29.1156 53.8521 29.1502 54.232 29.0527C54.325 29.0283 54.4354 29.0623 54.5371 29.0699C54.6896 29.0806 54.8422 29.0903 54.9947 29.0339C55.0442 29.0092 55.0999 28.9997 55.1549 29.0065C55.405 29.0842 55.6318 28.9369 55.8759 28.9415C55.9979 28.944 56.1169 28.9166 56.2349 28.975C56.3742 29.0435 56.5217 28.9694 56.6661 28.975C56.8227 28.9816 56.8049 29.0425 56.8049 29.1344C56.8049 29.4608 56.8049 29.787 56.8049 30.113C56.721 30.179 56.6229 30.179 56.5237 30.1755C56.0691 30.1587 55.614 30.1755 55.1605 30.1338C55.0807 30.123 54.9996 30.1292 54.9225 30.1521C54.6952 30.2308 54.4715 30.1298 54.2457 30.146C54.1535 30.1478 54.0625 30.1674 53.9777 30.2039C53.9258 30.2308 53.8688 30.2466 53.8104 30.2503C53.752 30.254 53.6935 30.2454 53.6386 30.2252C53.4814 30.1709 53.3228 30.2511 53.1631 30.2425C53.0853 30.2389 53.0106 30.2659 52.9404 30.2247Z" fill="white"/>
<path d="M52.9404 30.2247C53.2033 30.209 53.4647 30.0962 53.7301 30.2095C53.8023 30.24 53.8684 30.2014 53.9233 30.1729C54.02 30.1224 54.1262 30.0925 54.2351 30.0851C54.3439 30.0776 54.4532 30.0929 54.5559 30.1298C54.6744 30.1684 54.7771 30.1206 54.8813 30.1054C55.1405 30.0717 55.4033 30.076 55.6613 30.1181C55.7849 30.1364 55.9156 30.1145 56.0401 30.1135C56.2944 30.1135 56.5486 30.1135 56.7998 30.1135V30.7803C56.7424 30.9006 56.6356 30.9291 56.5202 30.9072C56.209 30.8483 55.8947 30.926 55.5805 30.8737C55.4468 30.861 55.312 30.8702 55.1813 30.9011C55.0076 30.928 54.8311 30.9315 54.6566 30.9113C54.1725 30.8636 53.7123 30.9875 53.2425 31.0347C53.1408 31.0448 53.034 31.0773 52.9404 31.0022V30.2247Z" fill="white"/>
<path d="M52.9404 31.0022C53.2913 31.0022 53.632 30.9209 53.9767 30.8747C54.1887 30.8458 54.4033 30.8239 54.6143 30.8747C54.6686 30.8851 54.7248 30.877 54.774 30.8519C54.8645 30.8163 54.9505 30.8011 55.0379 30.8605C55.0588 30.8729 55.0826 30.8794 55.1068 30.8794C55.1311 30.8794 55.1549 30.8729 55.1757 30.8605C55.3229 30.8044 55.4828 30.7905 55.6374 30.8204C55.7671 30.8427 55.8917 30.8636 56.0193 30.8316C56.1851 30.7909 56.3468 30.8504 56.5105 30.8575C56.6136 30.8674 56.7168 30.8386 56.7998 30.7767C56.7998 30.9494 56.7998 31.122 56.7998 31.2947C56.6808 31.3917 56.5537 31.3963 56.4027 31.3714C56.1255 31.3245 55.8442 31.3061 55.5632 31.3165C55.2947 31.3318 55.0272 31.3343 54.7593 31.3379C54.5457 31.3404 54.323 31.3216 54.1038 31.3947C53.8338 31.4846 53.5414 31.4201 53.2603 31.4521C53.1555 31.4643 53.0441 31.5278 52.9404 31.443V31.4054C52.9399 31.2734 52.9404 31.1378 52.9404 31.0022Z" fill="white"/>
<path d="M19.3503 27.4845C19.338 27.5029 19.3193 27.516 19.2979 27.5212C19.2764 27.5265 19.2538 27.5235 19.2344 27.513C18.8464 27.3246 18.4177 27.2723 18.014 27.1402C17.7343 27.0483 17.4481 26.9371 17.1674 26.9071C16.6416 26.8513 16.1245 26.7243 15.5936 26.7116C15.5102 26.7116 15.4258 26.7462 15.3424 26.7076C15.3277 26.6339 15.2916 26.5634 15.3038 26.4846C15.3602 26.348 15.4965 26.3744 15.5839 26.3907C15.8036 26.4318 16.0258 26.4273 16.245 26.4339C16.6914 26.4481 17.1165 26.5862 17.5574 26.6248C17.582 26.6263 17.6062 26.6318 17.6291 26.641C18.0415 26.8386 18.5057 26.8797 18.9206 27.0696C19.034 27.1204 19.1708 27.0646 19.2766 27.1514L19.3503 27.4845Z" fill="white"/>
<path d="M19.274 27.1514C18.9486 27.1864 18.6745 27.0194 18.3806 26.93C18.2016 26.8757 18.0181 26.8391 17.8386 26.7832C17.3628 26.6311 16.8698 26.5395 16.3711 26.5105C16.0553 26.4943 15.7385 26.4598 15.4207 26.4481C15.378 26.4481 15.3333 26.443 15.3033 26.4846C15.2605 26.3983 15.1904 26.2922 15.2575 26.2175C15.315 26.1541 15.4283 26.1632 15.5331 26.1769C15.7268 26.2023 15.9277 26.1703 16.1224 26.1926C16.4031 26.2241 16.6792 26.2942 16.9599 26.3262C17.2404 26.3527 17.5168 26.4116 17.7837 26.5019C17.9652 26.5659 18.162 26.5639 18.3399 26.6578C18.5525 26.7695 18.8032 26.7594 19.034 26.8279C19.2379 26.8868 19.2573 26.9986 19.274 27.1514Z" fill="white"/>
<path d="M73.316 25.5965C72.1287 26.0804 70.9861 26.6446 69.9762 27.4475C69.8989 27.3058 69.8969 27.1428 69.8415 26.994C69.814 26.9198 69.8649 26.8924 69.9106 26.863C70.2808 26.6258 70.6322 26.3638 71.0141 26.1409C71.4717 25.8742 71.9634 25.6808 72.4226 25.4198C72.6585 25.2857 72.9265 25.208 73.1904 25.1003C73.2331 25.2679 73.2753 25.4319 73.316 25.5965Z" fill="white"/>
<path d="M52.9399 33.2975C53.1941 33.3879 53.4524 33.3031 53.7026 33.2767C54.2391 33.2131 54.7794 33.1864 55.3196 33.197C55.5739 33.2056 55.8312 33.2097 56.0869 33.2173C56.2903 33.2239 56.4896 33.2635 56.692 33.2605C56.7724 33.2605 56.8019 33.297 56.8003 33.3727C56.8003 33.4712 56.8003 33.5697 56.8003 33.6677C56.3371 33.6398 55.8739 33.591 55.4101 33.5905C55.072 33.5905 54.7313 33.5982 54.3932 33.6124C54.0337 33.6271 53.6813 33.7139 53.3228 33.7028C53.1957 33.6997 53.0569 33.8043 52.9419 33.6677C52.9048 33.5662 52.9318 33.46 52.9236 33.3564C52.9218 33.3355 52.9275 33.3146 52.9399 33.2975Z" fill="white"/>
<path d="M52.9399 33.3346C52.9399 33.446 52.9399 33.557 52.9399 33.6677C52.9277 33.7901 52.9669 33.9166 52.9124 34.0354C52.9124 33.8028 52.9124 33.5701 52.9124 33.3371C52.9211 33.3178 52.9297 33.3173 52.9399 33.3346Z" fill="white"/>
<path d="M56.8003 32.5942V32.8903C56.2568 32.8969 55.7142 32.8258 55.1732 32.8349C54.8645 32.84 54.5498 32.8176 54.2406 32.8816C54.0443 32.9217 53.8394 32.8537 53.6416 32.9202C53.4977 32.971 53.3406 32.9466 53.1957 32.9786C53.1524 32.9919 53.1065 32.9942 53.0621 32.9853C53.0178 32.9764 52.9763 32.9567 52.9414 32.9278C52.9276 32.8989 52.9204 32.8672 52.9204 32.8352C52.9204 32.8031 52.9276 32.7714 52.9414 32.7425V32.6688C53.3869 32.6374 53.8292 32.5795 54.2742 32.5455C54.5198 32.5262 54.7644 32.5424 55.0094 32.5302C55.3761 32.5114 55.7437 32.5388 56.1113 32.5302C56.3423 32.5339 56.5726 32.5553 56.8003 32.5942Z" fill="white"/>
<path d="M52.9399 32.742C52.9399 32.8039 52.9399 32.8659 52.9399 32.9273C52.9399 33.0509 52.9399 33.1743 52.9399 33.2975L52.9399 33.3346C52.931 33.3347 52.9222 33.3356 52.9135 33.3371C52.9155 33.1386 52.8707 32.938 52.9399 32.742Z" fill="white"/>
<path d="M52.9399 32.0016C52.9399 31.9152 52.9399 31.8289 52.9399 31.7426C53.5409 31.6801 54.1389 31.5938 54.7445 31.574C55.2637 31.5572 55.7808 31.5689 56.2985 31.6009C56.4683 31.6116 56.6447 31.5501 56.7993 31.6684C56.7993 31.7918 56.7993 31.9152 56.7993 32.0386C56.7429 32.0894 56.6763 32.0838 56.6071 32.0823C55.9252 32.0661 55.2454 32.0194 54.5599 32.0732C54.084 32.1103 53.6091 32.1722 53.1316 32.193C53.0625 32.1961 52.9953 32.1991 52.9394 32.1499C52.9404 32.1006 52.9399 32.0508 52.9399 32.0016Z" fill="white"/>
<path d="M52.9404 32.1499C53.1469 32.128 53.3594 32.064 53.5577 32.094C53.8735 32.1448 54.1593 31.9361 54.473 32.0315C54.564 32.0595 54.6764 32.0148 54.7781 32.0016C55.3227 31.93 55.8678 32.0397 56.4124 32.0016C56.542 31.9924 56.6666 32.06 56.7958 32.0381V32.3342C56.7503 32.3718 56.6964 32.3979 56.6388 32.4106C56.5811 32.4232 56.5213 32.4219 56.4642 32.4068C56.0915 32.3347 55.7147 32.3631 55.3389 32.356C54.9067 32.3459 54.4776 32.3987 54.0454 32.3911C53.7626 32.3865 53.486 32.4738 53.2013 32.4855C53.1087 32.4891 53.0162 32.5155 52.9358 32.4469L52.9404 32.1499Z" fill="white"/>
<path d="M52.9404 32.4459C53.2577 32.4205 53.5786 32.419 53.8887 32.3337C53.9823 32.3078 54.0718 32.3393 54.1633 32.3367C54.7344 32.321 55.3054 32.3053 55.8764 32.3002C56.0798 32.3002 56.2913 32.2905 56.4912 32.3621C56.598 32.4007 56.6946 32.3164 56.8003 32.3347V32.4083C56.8003 32.4703 56.8003 32.5322 56.8003 32.5942C56.6391 32.7013 56.4657 32.6054 56.3102 32.5917C56.0879 32.5724 55.8678 32.5967 55.6491 32.5815C55.2373 32.5515 54.8238 32.5515 54.412 32.5815C54.1882 32.5983 53.9615 32.5927 53.7342 32.644C53.5231 32.6917 53.2923 32.6587 53.0731 32.7242C53.038 32.7349 52.9852 32.6866 52.9404 32.6658C52.9404 32.5942 52.9404 32.5201 52.9404 32.4459Z" fill="white"/>
<path d="M56.8003 31.6684C56.362 31.6486 55.9242 31.6177 55.4854 31.6116C55.1635 31.6065 54.8411 31.6304 54.5193 31.6431C54.0811 31.6622 53.6444 31.7067 53.2114 31.7766C53.1201 31.7987 53.0239 31.7866 52.9409 31.7426V31.4465C53.307 31.3841 53.6894 31.4465 54.0433 31.3566C54.2782 31.2967 54.5111 31.3287 54.743 31.2805C54.8863 31.2601 55.0319 31.2618 55.1747 31.2856C55.3944 31.3155 55.6013 31.2266 55.8179 31.2754C56.0346 31.3241 56.2664 31.2576 56.479 31.3445C56.5964 31.3922 56.6875 31.2815 56.7988 31.2983L56.8003 31.6684Z" fill="white"/>
<path d="M17.1231 34.9266C17.4404 34.9484 17.7298 35.079 18.0232 35.1805C18.404 35.3131 18.8022 35.3501 19.1927 35.4395C19.5832 35.5289 19.9874 35.506 20.3841 35.5365C20.5961 35.5527 20.8331 35.6025 21.0548 35.5233C21.1056 35.5055 21.1488 35.4959 21.1717 35.4456C21.2353 35.535 21.2154 35.6442 21.2404 35.7432C21.2653 35.8422 21.1793 35.8925 21.0949 35.8859C20.7603 35.8595 20.4263 35.9072 20.0886 35.8671C19.751 35.827 19.4052 35.8386 19.064 35.7777C18.4849 35.6761 17.9123 35.5487 17.3596 35.3435C17.3087 35.3252 17.2553 35.2993 17.2004 35.3344C17.1511 35.204 17.125 35.066 17.1231 34.9266Z" fill="white"/>
</g>
<defs>
<clipPath id="clip0_209_2112">
<rect width="88.4868" height="38" fill="white" transform="translate(0.256592)"/>
</clipPath>
</defs>
</svg>
