<svg width="100" height="42" viewBox="0 0 100 42" fill="none" xmlns="http://www.w3.org/2000/svg">
<g clip-path="url(#clip0_299_1927)">
<path d="M12 12C11.2 12.8 6.66667 32 4.5 41.5H0C0.5 36 6.66667 15.8333 9.5 6.5H14.5C16.9 11.7 22.5 32 24 41.5H19.5C17.3333 31.3333 12.8 11.2 12 12Z" fill="white"/>
<path d="M57.3992 42H55.4275C55.4243 41.9942 55.4224 41.9879 55.4218 41.9814C55.4211 41.9749 55.4219 41.9683 55.424 41.9621C55.4261 41.9559 55.4295 41.9502 55.434 41.9453C55.4384 41.9404 55.4439 41.9365 55.45 41.9338C55.4861 41.913 55.527 41.9016 55.5689 41.9006C56.1321 41.8905 56.695 41.8905 57.2578 41.9006C57.2996 41.9016 57.3405 41.9128 57.3768 41.9332C57.3828 41.9361 57.3882 41.9401 57.3926 41.945C57.397 41.95 57.4004 41.9557 57.4025 41.9619C57.4046 41.9682 57.4054 41.9748 57.4048 41.9813C57.4042 41.9878 57.4023 41.9942 57.3992 42Z" fill="#7FCAF8"/>
<path d="M57.3992 42.0001C57.3992 41.9883 57.3992 41.9765 57.3992 41.9647C57.5537 41.8598 57.717 41.889 57.8813 41.9355C57.887 41.9384 57.8921 41.9424 57.8962 41.9473C57.9003 41.9521 57.9033 41.9578 57.9051 41.9638C57.9069 41.9699 57.9074 41.9762 57.9065 41.9824C57.9057 41.9887 57.9036 41.9947 57.9003 42.0001H57.3992Z" fill="#B1DEFA"/>
<path d="M54.5047 41.9999C54.5047 41.9881 54.5047 41.9769 54.5047 41.9651C54.646 41.8613 54.7966 41.8893 54.9489 41.9354C54.9546 41.9383 54.9596 41.9423 54.9636 41.9472C54.9676 41.9521 54.9706 41.9577 54.9723 41.9638C54.9741 41.9698 54.9745 41.9761 54.9736 41.9823C54.9728 41.9886 54.9706 41.9945 54.9673 41.9999H54.5047Z" fill="#D5EDFC"/>
<path d="M54.9661 42.0001C54.9661 41.9888 54.9661 41.9771 54.9661 41.9658C55.0326 41.9176 55.1132 41.8916 55.196 41.8916C55.2788 41.8916 55.3594 41.9176 55.4258 41.9658C55.4258 41.9776 55.4258 41.9894 55.4258 42.0012L54.9661 42.0001Z" fill="#9DD6F9"/>
<path d="M57.9026 41.9999C57.9026 41.9887 57.9026 41.9769 57.9026 41.9657C57.9475 41.9232 58.0075 41.8994 58.0701 41.8994C58.1326 41.8994 58.1927 41.9232 58.2376 41.9657C58.2376 41.9774 58.2376 41.9892 58.2376 42.001L57.9026 41.9999Z" fill="#DBF0FC"/>
<path d="M58.2387 41.9646H57.9037H57.4015H55.4264H54.9667H54.507C53.3686 41.9366 52.2308 41.895 51.0942 41.831C49.7478 41.7547 48.4031 41.6587 47.0619 41.5246C45.9373 41.4123 44.8115 41.304 43.6893 41.1682C42.4905 41.0228 41.2947 40.8556 40.1 40.6816C38.2985 40.4189 36.5044 40.1124 34.7156 39.7762C31.7734 39.2239 28.85 38.5938 25.9453 37.8859C25.0523 37.6675 24.1599 37.4441 23.2675 37.2236C23.1951 37.269 23.1221 37.2533 23.0456 37.2314C21.6447 36.8296 20.2299 36.4844 18.8306 36.0679C18.7065 36.0309 18.5657 36.0247 18.472 35.9164C16.9205 35.4488 15.3661 34.9852 13.8174 34.5132C13.2795 34.3487 12.7376 34.1944 12.2141 33.9873C12.3147 33.8722 12.2509 33.7201 12.3222 33.5843C12.4135 33.4114 12.5325 33.22 12.5078 33.0135C12.4739 32.7283 12.6411 32.4926 12.671 32.2277C12.6951 32.0127 12.6968 31.7961 12.7779 31.5901C12.7851 31.5631 12.7818 31.5345 12.7687 31.5098C12.6296 31.2107 12.6721 30.8874 12.6371 30.5747C12.6272 30.5011 12.6326 30.4262 12.6532 30.3547C12.7043 30.1824 12.6566 30.023 12.5629 29.8743C13.4088 30.1487 14.2536 30.4271 15.1017 30.6971C15.9028 30.9519 16.7073 31.1972 17.5101 31.447C17.6359 31.4077 17.7399 31.4812 17.8508 31.5143C19.2802 31.945 20.7107 32.3708 22.1423 32.7918C22.1819 32.8094 22.2183 32.8331 22.2503 32.8619C22.9974 33.1055 23.7617 33.2997 24.5208 33.5074C27.848 34.4166 31.2001 35.2267 34.5771 35.9377C37.1783 36.4799 39.7947 36.9444 42.4262 37.3313C44.5409 37.6367 46.6613 37.8859 48.7921 38.0655C50.5051 38.2092 52.221 38.3085 53.9404 38.3495C53.9749 38.3495 54.0093 38.3562 54.0438 38.3596C54.1093 38.3961 54.1806 38.3775 54.249 38.3781C54.7868 38.3781 55.3253 38.3904 55.8626 38.3781C56.407 38.3717 56.9506 38.4203 57.4848 38.5229C60.3931 39.0281 63.3037 39.5253 66.2131 40.0249C67.2377 40.2006 68.2634 40.3734 69.2869 40.5564C69.4053 40.5772 69.5915 40.5564 69.5633 40.7714C69.1937 40.8629 68.819 40.9334 68.441 40.9824C68.3726 41.0239 68.2864 40.9695 68.2203 41.0223L68.2088 41.0307L68.1962 41.0245C68.125 41.0621 68.0382 41.0105 67.9698 41.0638C67.3825 41.1598 66.7895 41.2193 66.2068 41.3411C66.0557 41.3618 65.908 41.4101 65.7522 41.3921C65.6844 41.432 65.6028 41.3865 65.535 41.4264L65.4201 41.4337C65.3517 41.4724 65.2695 41.4269 65.2012 41.4673L65.0862 41.4752C65.0173 41.5128 64.9351 41.4685 64.8661 41.5083L64.7127 41.5167C64.642 41.5515 64.5587 41.51 64.4886 41.5499C64.3255 41.5832 64.1593 41.6007 63.9927 41.602C63.9093 41.6357 63.8163 41.5875 63.7347 41.6335C62.6802 41.7491 61.6217 41.8226 60.562 41.8754C59.788 41.9096 59.0162 41.9343 58.2387 41.9646Z" fill="#0095F2"/>
<path d="M69.5633 40.7692C69.5472 40.6266 69.4191 40.6306 69.326 40.6143C68.4525 40.4599 67.5785 40.3135 66.7044 40.1653C65.6528 39.986 64.601 39.8068 63.549 39.6276C62.2274 39.3991 60.9016 39.1645 59.5765 38.9395C58.5657 38.7677 57.5509 38.6179 56.547 38.4063C56.4847 38.3979 56.4217 38.396 56.3591 38.4006C55.6603 38.4006 54.9613 38.4006 54.2622 38.4006C54.1886 38.4006 54.107 38.427 54.0438 38.3625C55.1408 38.3625 56.2372 38.3832 57.3342 38.3625C59.7648 38.3176 62.1903 38.1279 64.5972 37.7945C68.2399 37.2798 71.7803 36.3975 75.1621 34.9617C76.4366 34.4214 77.673 33.7993 78.8634 33.0994C78.9208 33.0646 78.9852 33.0349 79.0461 33.0029C79.1409 32.9636 79.2363 32.9849 79.3334 33.0029C81.1528 33.311 82.9692 33.6315 84.7886 33.938C84.8579 33.9455 84.9261 33.9616 84.9914 33.9857C85.0638 34.0165 85.1351 34.053 85.0856 34.1541C84.5731 34.5874 84.0157 34.9628 83.4565 35.3327C80.1672 37.5155 76.5608 39.0107 72.7388 40.0412C71.6883 40.3168 70.6344 40.5801 69.5633 40.7692Z" fill="#009BF3"/>
<path d="M95.9499 15.6959C95.8465 16.3969 95.6706 17.0839 95.4977 17.7726C94.919 20.1103 94.085 22.3806 93.01 24.5444C92.6323 25.2972 92.222 26.0327 91.7791 26.7507C91.7481 26.8012 91.732 26.8658 91.6682 26.8922C91.5734 26.8342 91.4674 26.7959 91.3568 26.7799C89.9742 26.5369 88.5887 26.3107 87.2072 26.0637C87.0986 26.0441 86.9774 26.0418 86.9268 25.9184C87.3388 25.3122 87.7669 24.7161 88.1531 24.0931C89.784 21.4635 90.9195 18.6387 91.6648 15.6589C91.6791 15.5999 91.6981 15.5416 91.7153 15.4826C91.7958 15.3288 91.8096 15.1571 91.8406 14.9926C91.8682 14.8461 91.9377 14.8209 92.0705 14.8405C92.5135 14.9045 92.952 14.9887 93.3922 15.0617C94.171 15.1904 94.9487 15.3245 95.7252 15.4641C95.8539 15.4849 96.0091 15.4961 95.9499 15.6959Z" fill="#00A6F5"/>
<path d="M95.9499 15.6959C95.9568 15.5837 95.889 15.541 95.7873 15.523C94.607 15.3202 93.4265 15.1174 92.2457 14.9146C92.171 14.9017 92.0894 14.9146 92.0159 14.8899C91.9067 14.8534 91.882 14.8995 91.8671 14.9898C91.8469 15.1099 91.8096 15.2272 91.7929 15.3474C91.7924 15.3744 91.7847 15.4009 91.7706 15.4242C91.7565 15.4475 91.7365 15.4669 91.7125 15.4804C91.8774 14.6867 92.0573 13.8959 92.1837 13.0955C92.4155 11.6696 92.5523 10.2305 92.5934 8.78721C92.5934 8.72659 92.5934 8.66654 92.5934 8.5627L89.4777 11.0171C89.3742 11.0609 89.3742 11.0087 89.3972 10.9352C90.0818 9.6091 90.7662 8.28337 91.4504 6.95802C91.6803 6.509 91.9228 6.06392 92.1595 5.61714C92.2549 5.49984 92.3802 5.52397 92.5043 5.5453C93.5387 5.72154 94.5662 5.90283 95.5982 6.07626C96.2102 6.17898 96.8222 6.28281 97.4331 6.39338C97.5354 6.4119 97.6428 6.42369 97.7101 6.51799C98.0238 7.13538 98.3422 7.75727 98.6513 8.3786C99.0973 9.26915 99.5411 10.161 99.9828 11.0542C99.9892 11.0724 99.9936 11.0912 99.996 11.1103C99.9253 11.1272 99.9035 11.0514 99.8489 11.0475C99.172 10.4577 98.495 9.86822 97.8181 9.27888C97.49 8.99432 97.1596 8.71144 96.8027 8.40442C96.7849 8.66822 96.7653 8.90115 96.7538 9.13408C96.6591 11.1342 96.433 13.1263 96.0769 15.0982C96.0407 15.2991 95.9924 15.4967 95.9499 15.6959Z" fill="#00ACF6"/>
<path d="M86.9268 25.9163C87.2205 26.0521 87.5446 26.0577 87.8549 26.1166C88.5444 26.248 89.2426 26.3619 89.9368 26.4798C90.454 26.5679 90.9712 26.6515 91.4912 26.7357C91.586 26.7509 91.674 26.7688 91.6682 26.8906C89.9839 29.6409 87.8457 31.9982 85.2896 34.0036C85.2247 34.0541 85.154 34.0979 85.0862 34.1451C85.0793 34.0502 85.0173 34.0328 84.9311 34.0171C83.568 33.7881 82.2055 33.5563 80.8436 33.3217C80.2442 33.2184 79.6466 33.1062 79.0484 32.9978C79.8127 32.509 80.5775 32.0223 81.3068 31.4824C83.4075 29.9399 85.266 28.1057 86.8234 26.0381C86.8515 25.9954 86.8912 25.9572 86.9268 25.9163Z" fill="#009FF4"/>
<path d="M97.7141 6.51759C97.2113 6.39018 96.6952 6.32901 96.1861 6.23696C95.5063 6.11292 94.8236 6.00347 94.1427 5.88616C93.5571 5.78513 92.9715 5.68242 92.386 5.58195C92.3094 5.572 92.2315 5.58471 92.1624 5.61844C92.5112 4.93593 92.8583 4.2523 93.2094 3.57091C93.6894 2.63958 94.1714 1.70936 94.6552 0.780269C94.6851 0.724141 94.6995 0.651176 94.7742 0.605713C94.8891 0.752766 94.9523 0.927322 95.0334 1.08953C95.9191 2.86614 96.8025 4.64351 97.6836 6.42162C97.6965 6.45272 97.7067 6.48483 97.7141 6.51759Z" fill="#01B1F7"/>
<path d="M89.4001 10.9348C89.4053 10.982 89.4225 11.0179 89.4805 11.0168C89.4334 11.0869 89.3656 11.129 89.23 11.1975L89.4001 10.9348Z" fill="#3CBFF8"/>
<path d="M66.2091 41.3377C66.3119 41.2255 66.4573 41.2698 66.582 41.2479C66.9814 41.1766 67.3837 41.1194 67.7853 41.0605C67.8475 41.0557 67.9099 41.0557 67.9721 41.0605C67.39 41.1856 66.7998 41.2636 66.2091 41.3377Z" fill="#009BF3"/>
<path d="M63.7346 41.6302C63.8128 41.56 63.907 41.5948 63.9927 41.5988C63.9134 41.6605 63.822 41.6307 63.7346 41.6302Z" fill="#0971B1"/>
<path d="M68.2203 41.0201C68.2824 40.9477 68.3657 40.9858 68.441 40.9802C68.3721 41.0115 68.2962 41.0253 68.2203 41.0201Z" fill="#009BF3"/>
<path d="M67.9698 41.0616C68.0336 40.9864 68.1192 41.0279 68.1956 41.0223C68.125 41.0541 68.0473 41.0676 67.9698 41.0616Z" fill="#009BF3"/>
<path d="M65.2017 41.464C65.2661 41.4006 65.3465 41.4348 65.4207 41.4303C65.3533 41.4643 65.2765 41.4761 65.2017 41.464Z" fill="#009BF3"/>
<path d="M64.8661 41.5049C64.9311 41.4415 65.0121 41.4757 65.0862 41.4718C65.0184 41.5056 64.9412 41.5172 64.8661 41.5049Z" fill="#009BF3"/>
<path d="M64.4886 41.5466C64.5552 41.482 64.6368 41.5168 64.7127 41.5135C64.6432 41.5467 64.565 41.5583 64.4886 41.5466Z" fill="#009BF3"/>
<path d="M65.5373 41.4219C65.6017 41.359 65.681 41.3933 65.7545 41.3877C65.6878 41.4215 65.6116 41.4335 65.5373 41.4219Z" fill="#009BF3"/>
<path d="M12.5618 29.8714C12.7836 29.941 12.7376 30.1341 12.7169 30.2744C12.6888 30.409 12.6814 30.5469 12.6951 30.6836C12.7348 30.9081 12.6652 31.1416 12.7687 31.3571C12.833 31.4901 12.8704 31.6142 12.7836 31.7595C12.7261 31.8572 12.7359 31.9756 12.7388 32.0963C12.7358 32.3024 12.6816 32.5046 12.5808 32.6856C12.5578 32.7362 12.55 32.792 12.5583 32.8467C12.5661 33.0355 12.5328 33.2237 12.4607 33.399C12.4078 33.5264 12.2429 33.6589 12.3337 33.8441C12.3796 33.9395 12.2969 33.9743 12.213 33.9878C11.9538 33.9287 11.7003 33.8476 11.4556 33.7453C11.6855 33.4316 11.647 33.028 11.8308 32.6991C11.8575 32.6424 11.8606 32.5778 11.8395 32.5189C11.8033 32.3921 11.8395 32.2888 11.9078 32.1743C12.0096 31.997 12.0165 31.7848 12.0515 31.5889C12.0904 31.3945 12.0842 31.1941 12.0331 31.0024C11.9969 30.8778 12.0211 30.7566 12.0331 30.6286C12.0603 30.4239 12.0672 30.2172 12.0538 30.0112C12.0438 29.9618 12.0465 29.9108 12.0616 29.8627C12.0768 29.8146 12.1039 29.7709 12.1406 29.7356L12.5618 29.8714Z" fill="#0093EC"/>
<path d="M12.1412 29.7295C12.1331 30.0102 12.1475 30.3037 12.1021 30.563C12.0389 30.9239 12.2285 31.2708 12.1118 31.5946C12.0343 31.8102 12.1118 32.074 11.9033 32.2513C11.8833 32.2742 11.8693 32.3015 11.8625 32.3308C11.8557 32.3601 11.8562 32.3906 11.8642 32.4197C11.9757 32.6442 11.7992 32.807 11.7711 32.9978C11.7446 33.1752 11.5728 33.338 11.6964 33.535C11.7205 33.5742 11.6901 33.6051 11.6516 33.6034C11.5475 33.5989 11.5234 33.6972 11.4556 33.7387C11.281 33.7051 11.1116 33.6494 10.9516 33.5731C11.0447 33.3043 11.2608 33.0859 11.2872 32.7873C11.2941 32.7133 11.3194 32.6403 11.2953 32.5628C11.2872 32.537 11.2723 32.4944 11.2901 32.4854C11.5067 32.3731 11.3516 32.184 11.3872 32.0364C11.4292 31.8646 11.5292 31.6878 11.5079 31.5245C11.473 31.3022 11.4775 31.0757 11.5211 30.8549C11.5941 30.5378 11.5826 30.2173 11.6268 29.9007C11.6412 29.7941 11.6401 29.6639 11.7625 29.5959L12.1412 29.7295Z" fill="#0090E7"/>
<path d="M11.7625 29.6026C11.7263 29.7615 11.6199 29.9125 11.7084 30.0842C11.52 30.2722 11.755 30.5276 11.5895 30.7432C11.5488 30.8101 11.5258 30.8858 11.5223 30.9636C11.5189 31.0413 11.5353 31.1187 11.5699 31.1888C11.5987 31.2449 11.5699 31.278 11.5366 31.3151C11.5205 31.336 11.5061 31.3582 11.4935 31.3813C11.759 31.5065 11.5217 31.6721 11.4935 31.7854C11.4441 31.992 11.4625 32.194 11.4458 32.3972C11.4458 32.4141 11.4608 32.432 11.4688 32.4494C11.2332 32.4388 11.3723 32.6139 11.3642 32.688C11.3362 32.9349 11.2429 33.1705 11.0936 33.3716C11.0441 33.4389 11.143 33.6101 10.9499 33.5759C10.8504 33.5706 10.7541 33.5398 10.6706 33.4867C10.6567 33.476 10.6467 33.4612 10.6421 33.4445C10.6376 33.4278 10.6387 33.4101 10.6453 33.394C10.7999 33.1039 10.8522 32.7766 10.9229 32.4685C10.9694 32.2659 11.0849 32.0487 10.997 31.8208C10.9873 31.7874 10.9862 31.7521 10.9937 31.7182C11.0012 31.6842 11.0172 31.6526 11.0401 31.626C11.2378 31.3751 11.1464 31.0771 11.1924 30.8021C11.2384 30.5271 11.1545 30.2346 11.3395 29.986C11.3763 29.9366 11.3395 29.8788 11.3522 29.8266C11.3786 29.711 11.3596 29.5735 11.5096 29.5173C11.5988 29.5293 11.6847 29.5583 11.7625 29.6026Z" fill="#008DE1"/>
<path d="M10.4626 29.1582C10.6976 29.2059 10.9131 29.3075 11.1338 29.3945C11.1068 29.8996 11.0637 30.4014 10.9189 30.8892C10.8953 30.9689 10.943 31.0345 10.9505 31.1081C10.9717 31.309 10.8539 31.4791 10.8407 31.6755C10.8218 31.9483 10.6856 32.2065 10.7051 32.4899C10.7108 32.573 10.662 32.6482 10.6287 32.7212C10.5385 32.9176 10.5632 33.1533 10.4069 33.3257C10.3856 33.3492 10.3799 33.3919 10.3322 33.3672C10.2114 33.347 10.0948 33.3074 9.98737 33.2499C9.97818 33.1034 10.0529 32.9743 10.0787 32.8401C10.1362 32.5539 10.2258 32.2761 10.2827 31.9904C10.3327 31.7395 10.3264 31.4746 10.4844 31.2428C10.5586 31.1344 10.5183 30.9762 10.5649 30.8381C10.6683 30.5323 10.6842 30.2047 10.6109 29.8907C10.5928 29.7893 10.5985 29.6853 10.6275 29.5865C10.6701 29.4141 10.6402 29.2845 10.4603 29.2132C10.4569 29.2037 10.4534 29.1947 10.4494 29.1857C10.4454 29.1767 10.4586 29.1672 10.4626 29.1582Z" fill="#0086D6"/>
<path d="M10.0851 29.0295C10.1614 29.0344 10.2346 29.0607 10.296 29.1053C10.3454 29.144 10.4161 29.144 10.4615 29.1901C10.4936 29.3287 10.4465 29.4668 10.4615 29.6077C10.4701 29.7003 10.4482 29.7962 10.4948 29.8849C10.5235 29.941 10.4879 29.9888 10.4839 30.0398C10.4615 30.3283 10.3253 30.5972 10.3212 30.8817C10.3114 31.0337 10.2922 31.185 10.2638 31.3347C10.2034 31.7938 9.95462 32.2058 9.9437 32.6744C9.9437 32.7901 9.86498 32.8989 9.87647 33.028C9.88222 33.0954 9.79315 33.1437 9.71844 33.1201C9.64374 33.0965 9.56559 33.11 9.49548 33.0769C9.36616 33.0551 9.24136 33.0128 9.12598 32.9517C9.4133 32.941 9.41675 32.7272 9.48916 32.5235C9.57995 32.2681 9.60409 31.9908 9.74947 31.754C9.77071 31.7264 9.78256 31.693 9.78338 31.6585C9.74143 31.1966 9.869 30.751 9.93738 30.3019C9.99485 29.9354 10.0253 29.5695 10.0494 29.2013C10.0512 29.1457 10.0351 29.0801 10.0851 29.0295Z" fill="#007EC9"/>
<path d="M10.0851 29.0296C10.1029 29.3075 10.1086 29.5842 10.0328 29.8564C10.0293 29.8693 10.0167 29.8822 10.019 29.8929C10.0908 30.1937 9.93221 30.4592 9.88911 30.7421C9.87072 30.8627 9.92646 30.9845 9.87589 31.1192C9.8575 31.1686 9.8621 31.2489 9.82532 31.3123C9.80166 31.345 9.79066 31.3847 9.79429 31.4246C9.91324 31.7641 9.64891 32.0246 9.60121 32.3293C9.58282 32.445 9.52536 32.5539 9.50869 32.6745C9.47134 32.9411 9.40583 32.9742 9.12425 32.9552C9.10562 32.9576 9.08666 32.9558 9.06884 32.9499C9.05101 32.9441 9.03478 32.9344 9.02139 32.9215C9.09818 32.816 9.14371 32.6919 9.15299 32.5628C9.18172 32.303 9.32538 32.0768 9.34607 31.8203C9.38802 31.3073 9.62362 30.8184 9.5426 30.2908C9.52248 30.1606 9.64259 30.0697 9.64431 29.9423C9.64776 29.6616 9.73338 29.386 9.70177 29.1003C9.69201 29.0162 9.75292 28.9651 9.83452 28.9426C9.92373 28.9526 10.0094 28.9824 10.0851 29.0296Z" fill="#0077BF"/>
<path d="M10.3322 33.367C10.5086 33.1234 10.5419 32.8248 10.627 32.552C10.6844 32.3758 10.6988 32.1692 10.7264 31.9761C10.7315 31.8836 10.7497 31.7922 10.7804 31.7045C10.816 31.6281 10.8344 31.5715 10.7879 31.5002C10.7809 31.4925 10.7758 31.4833 10.7731 31.4734C10.7704 31.4634 10.7701 31.453 10.7722 31.4429C10.7743 31.4329 10.7788 31.4234 10.7853 31.4153C10.7918 31.4072 10.8002 31.4007 10.8097 31.3963C10.9953 31.2841 10.8603 31.1275 10.8568 30.9905C10.8568 30.9647 10.8068 30.9389 10.8315 30.903C11.0229 30.6296 10.9539 30.2929 11.0539 29.9932C11.0866 29.8533 11.0907 29.7085 11.066 29.5672C11.0528 29.479 11.0907 29.4437 11.1338 29.3943C11.2662 29.4125 11.3942 29.4542 11.5113 29.5172C11.4349 29.6508 11.351 29.7832 11.4395 29.9426C11.4436 29.9482 11.4463 29.9545 11.4474 29.9612C11.4485 29.9679 11.448 29.9747 11.4459 29.9812C11.4439 29.9877 11.4403 29.9936 11.4355 29.9985C11.4307 30.0034 11.4248 30.0072 11.4182 30.0094C11.2723 30.0796 11.2976 30.2048 11.2832 30.3339C11.2568 30.5774 11.2074 30.8328 11.2286 31.0635C11.2522 31.3223 11.1487 31.5069 11.0562 31.714C11.043 31.7438 11.0223 31.7943 11.0355 31.8078C11.1872 31.9627 10.9942 32.1007 11.0171 32.2354C11.0493 32.4274 10.9401 32.5722 10.9022 32.7406C10.8488 32.9651 10.8344 33.2104 10.6816 33.4079C10.6672 33.4265 10.6747 33.4607 10.6724 33.4876C10.5528 33.4665 10.4377 33.4257 10.3322 33.367Z" fill="#008ADD"/>
<path d="M9.49375 33.0802C9.53981 33.0652 9.5884 33.0591 9.63684 33.0623C9.78337 33.1032 9.90979 33.1403 9.80004 32.9146C9.79709 32.9016 9.79695 32.888 9.79962 32.8749C9.80229 32.8618 9.80772 32.8493 9.81555 32.8383C9.92646 32.6587 9.89026 32.4499 9.93795 32.2636C9.98852 32.0671 10.0213 31.851 10.15 31.6782C10.1793 31.6383 10.2144 31.6108 10.1983 31.5552C10.1575 31.4093 10.1782 31.3453 10.2977 31.1854C10.3061 31.1711 10.3113 31.1553 10.313 31.139C10.3147 31.1226 10.3128 31.1061 10.3075 31.0905C10.2161 30.8705 10.2281 30.6634 10.3827 30.4731C10.4207 30.4265 10.3925 30.3855 10.3885 30.3395C10.3781 30.2205 10.3414 30.0942 10.4528 29.996C10.4642 29.9882 10.4723 29.9766 10.4756 29.9634C10.4788 29.9502 10.4771 29.9362 10.4707 29.9242C10.3304 29.6812 10.4011 29.4359 10.4632 29.1912C10.7396 29.2102 10.7229 29.3904 10.693 29.5841C10.6585 29.7379 10.6669 29.898 10.7172 30.0477C10.7591 30.1638 10.6775 30.3519 10.6965 30.5062C10.712 30.6348 10.6143 30.7487 10.6666 30.8755C10.4367 30.9659 10.6988 31.2482 10.4672 31.3565C10.3994 31.388 10.3931 31.5479 10.3959 31.6232C10.4034 31.8314 10.3316 32.0205 10.2868 32.2114C10.2046 32.5605 10.15 32.9208 9.99025 33.2503C9.8176 33.2159 9.65056 33.1587 9.49375 33.0802Z" fill="#0082D1"/>
<path d="M9.83336 28.9442C9.7759 29.0149 9.69774 29.0767 9.7759 29.1822C9.78658 29.1999 9.79291 29.2197 9.79441 29.2401C9.7959 29.2606 9.79252 29.2811 9.78452 29.3001C9.66039 29.5122 9.75463 29.7491 9.68855 29.9736C9.5311 30.4961 9.59948 31.0512 9.43111 31.58C9.35066 31.832 9.31618 32.1031 9.2386 32.3657C9.19263 32.5246 9.15011 32.6907 9.09954 32.8529C9.09662 32.8722 9.08693 32.8898 9.07214 32.9028C9.05736 32.9158 9.03839 32.9234 9.01851 32.9242C8.93152 32.9124 8.84776 32.884 8.77199 32.8406C8.96449 32.437 9.04839 32.0077 9.13287 31.5727C9.20412 31.2022 9.25871 30.8273 9.35066 30.4602C9.39088 30.2986 9.34606 30.1386 9.3564 29.9758C9.37249 29.725 9.49834 29.4948 9.47133 29.24C9.46444 29.1732 9.45524 29.1053 9.45294 29.0374C9.4495 28.9476 9.47248 28.8741 9.58109 28.8606C9.67093 28.8679 9.75756 28.8966 9.83336 28.9442Z" fill="#0072B6"/>
<path d="M7.14689 32.2609C6.98542 32.2418 7.05093 32.1183 7.07391 32.0571C7.20551 31.7047 7.2532 31.3275 7.37445 30.9772C7.56639 30.421 7.65143 29.8412 7.82095 29.2816C7.83072 29.2502 7.84566 29.2205 7.85831 29.1902C7.89796 29.0841 7.90888 28.9707 7.9445 28.8506C8.05943 28.9067 8.03587 28.9993 8.0284 29.0818C7.97094 29.725 7.9037 30.3688 7.79854 31.0042C7.73084 31.4002 7.62994 31.7901 7.49685 32.1699C7.42215 32.3894 7.27964 32.2912 7.14689 32.2609Z" fill="#01466F"/>
<path d="M9.12138 28.6929C9.21065 28.7037 9.29638 28.7336 9.3725 28.7804C9.36101 29.0454 9.44204 29.3035 9.33745 29.5774C9.25298 29.7975 9.32423 30.0556 9.26504 30.2981C9.21333 30.5097 9.15012 30.728 9.16448 30.9492C9.18977 31.3421 8.93462 31.6727 8.94324 32.0571C8.94132 32.0982 8.93238 32.1386 8.91681 32.1767C8.84268 32.3905 8.73637 32.5965 8.74441 32.8311C8.62949 32.821 8.53639 32.7638 8.43755 32.7189C8.4479 32.6998 8.48123 32.683 8.48008 32.6785C8.41055 32.4444 8.53754 32.2558 8.62776 32.0611C8.68523 31.9387 8.6427 31.8074 8.67431 31.6788C8.81021 31.1658 8.90626 30.6434 8.96163 30.1163C8.98979 29.7879 9.07656 29.4607 9.02657 29.1262C9.00243 28.9707 9.11564 28.8422 9.12138 28.6929Z" fill="#0069A8"/>
<path d="M8.32319 28.4145C8.40824 28.387 8.41973 28.4998 8.49156 28.4987C8.51685 28.5138 8.54615 28.5245 8.55535 28.5548C8.60477 28.9275 8.54673 29.2951 8.48524 29.6599C8.45249 29.8547 8.46628 30.0528 8.45191 30.2453C8.41456 30.7393 8.25079 31.2023 8.16459 31.6828C8.12609 31.9028 8.03472 32.1105 8.02552 32.335C8.0266 32.3574 8.02309 32.3797 8.0152 32.4008C8.00731 32.4218 7.99519 32.4411 7.97956 32.4575C7.96394 32.474 7.94511 32.4872 7.92419 32.4964C7.90327 32.5056 7.88067 32.5106 7.85773 32.5112C7.73518 32.4891 7.61715 32.4476 7.50834 32.3883C7.57845 32.3513 7.63665 32.2961 7.67643 32.2287C7.71621 32.1613 7.73601 32.0844 7.7336 32.0066C7.73935 31.8573 7.79567 31.7148 7.83991 31.5722C7.99277 31.0794 8.06977 30.5731 8.12724 30.0624C8.16631 29.7256 8.25079 29.3888 8.24619 29.0425C8.24619 28.8876 8.21688 28.7316 8.25251 28.5761C8.26803 28.5183 8.26573 28.4566 8.32319 28.4145Z" fill="#005487"/>
<path d="M9.12138 28.6927C9.1369 28.7202 9.17195 28.7578 9.16391 28.773C9.04381 28.9935 9.14437 29.2394 9.09208 29.4527C9.00588 29.8051 9.02254 30.1621 8.96278 30.514C8.89037 30.9434 8.722 31.3604 8.71166 31.787C8.70419 32.1198 8.4364 32.3674 8.49157 32.6974C8.47297 32.7052 8.45375 32.7116 8.43411 32.7165C8.34652 32.7095 8.26232 32.6803 8.18988 32.6317C8.2347 32.4072 8.37147 32.2068 8.39388 31.9762C8.43008 31.6074 8.62719 31.2684 8.5996 30.8873C8.60013 30.7919 8.61624 30.6971 8.6473 30.6066C8.71594 30.3059 8.75595 29.9997 8.76683 29.6918C8.78464 29.4055 8.81165 29.1125 8.8536 28.8246C8.86624 28.7393 8.89267 28.6635 8.99668 28.6489L9.12138 28.6927Z" fill="#00639F"/>
<path d="M8.99841 28.6484C8.84383 28.7764 8.8944 28.9616 8.88061 29.1188C8.86509 29.2967 8.8128 29.4802 8.82314 29.6452C8.83406 29.854 8.75476 30.0544 8.78521 30.2447C8.80935 30.3962 8.72258 30.4883 8.6927 30.6028C8.63121 30.8391 8.70936 31.0855 8.61454 31.3133C8.4841 31.6248 8.4864 31.9661 8.38469 32.2843C8.34274 32.4129 8.25079 32.5122 8.19563 32.6318C8.17326 32.6346 8.15052 32.6322 8.12932 32.6247C8.10812 32.6171 8.08908 32.6048 8.0738 32.5885C8.01174 32.3416 8.1192 32.116 8.19333 31.8965C8.30826 31.5648 8.3594 31.223 8.41974 30.8862C8.48008 30.5494 8.5588 30.2239 8.58754 29.8877C8.61914 29.524 8.645 29.158 8.65764 28.7955C8.6641 28.7459 8.65622 28.6955 8.63489 28.6501C8.61356 28.6047 8.57964 28.566 8.53697 28.5384L8.49559 28.5008C8.68005 28.4845 8.83406 28.5839 8.99841 28.6484Z" fill="#005E97"/>
<path d="M8.74269 32.831C8.62776 32.6065 8.79154 32.4246 8.84383 32.2248C8.92371 31.9206 8.94554 31.6074 9.06852 31.306C9.1392 31.1331 9.10587 30.9204 9.12138 30.7256C9.12186 30.6784 9.12863 30.6314 9.1415 30.5859C9.2524 30.2777 9.2662 29.9561 9.27137 29.6368C9.27481 29.4589 9.43457 29.3 9.35067 29.126C9.28803 28.9958 9.31676 28.8925 9.37251 28.7803C9.4489 28.7868 9.52202 28.8136 9.58397 28.8577C9.40469 29.0098 9.58397 29.2012 9.52651 29.3674C9.51387 29.4027 9.54317 29.4532 9.52651 29.4858C9.39492 29.7754 9.46387 30.0903 9.41158 30.3799C9.34837 30.7167 9.35009 31.0697 9.22769 31.402C9.15353 31.63 9.1078 31.866 9.0915 32.1047C9.07426 32.2731 8.9714 32.3999 8.93577 32.5537C8.90934 32.666 8.92198 32.7917 8.77487 32.8343L8.75763 32.8377L8.74269 32.831Z" fill="#006DAF"/>
<path d="M8.53294 28.5363C8.8151 28.5301 8.71108 28.7423 8.70534 28.8663C8.69177 28.9692 8.68831 29.0731 8.69499 29.1767C8.73062 29.4102 8.63753 29.6347 8.63408 29.8704C8.62833 30.2605 8.51915 30.6438 8.45077 31.0283C8.39905 31.3196 8.3594 31.6221 8.24045 31.9067C8.1508 32.1205 8.12552 32.3602 8.06805 32.5886C7.99196 32.5832 7.91892 32.5572 7.85716 32.5134C7.94221 32.4405 8.03243 32.3709 7.96002 32.2401C7.9575 32.2306 7.95701 32.2208 7.95859 32.2111C7.96017 32.2014 7.96379 32.1922 7.96921 32.184C8.14161 31.9185 8.08414 31.5974 8.19448 31.3179C8.29676 31.0478 8.3585 30.7646 8.37779 30.4771C8.39388 30.288 8.42721 30.0938 8.42548 29.8968C8.41705 29.6082 8.45427 29.32 8.53582 29.0425C8.57374 28.9247 8.49099 28.786 8.50479 28.6496C8.5092 28.6108 8.51867 28.5727 8.53294 28.5363Z" fill="#005A90"/>
<path d="M7.1469 32.2608C7.36872 32.3304 7.43882 32.2153 7.49169 32.0256C7.58593 31.6888 7.69339 31.3459 7.74454 31.0114C7.79396 30.6869 7.84165 30.3474 7.86349 30.0117C7.87944 29.7014 7.91649 29.3923 7.97439 29.0868C7.98374 29.0185 7.98911 28.9497 7.99048 28.8808C7.90486 28.9891 7.93934 29.112 7.85832 29.19C7.8567 29.0628 7.88173 28.9365 7.93187 28.819C7.99738 28.7029 7.99221 28.5698 8.02669 28.4464C8.04622 28.4026 7.98244 28.2965 8.11346 28.3341C8.14758 28.3684 8.17339 28.4098 8.189 28.4552C8.20461 28.5005 8.20963 28.5487 8.20368 28.5962C8.17552 29.0559 8.18242 29.5167 8.11748 29.9753C8.0468 30.4804 7.93589 30.976 7.84165 31.4761C7.79223 31.7405 7.65834 31.9717 7.60605 32.2304C7.58191 32.35 7.50548 32.3848 7.3894 32.3427C7.30281 32.3357 7.21941 32.3075 7.1469 32.2608Z" fill="#004B78"/>
<path d="M7.3894 32.3455C7.48479 32.3399 7.56869 32.3382 7.55375 32.1973C7.55569 32.1157 7.57883 32.036 7.62098 31.9655C7.81292 31.5726 7.81866 31.1315 7.93187 30.7206C8.03243 30.3541 8.01117 29.9775 8.11633 29.6155C8.14587 29.4772 8.15189 29.3352 8.13414 29.1951C8.11403 28.9077 8.19161 28.6192 8.11346 28.3352C8.18905 28.344 8.26118 28.3712 8.3232 28.4143C8.28298 28.7186 8.3278 29.0284 8.29217 29.327C8.27148 29.4954 8.31286 29.6851 8.21115 29.8619C8.16747 29.9382 8.19793 30.0948 8.17322 30.2059C8.10791 30.4816 8.05727 30.7603 8.02151 31.0411C7.98014 31.4301 7.7566 31.7674 7.76752 32.1636C7.77048 32.1965 7.76562 32.2296 7.75333 32.2603C7.74104 32.291 7.72164 32.3185 7.69666 32.3406C7.67168 32.3628 7.64179 32.3791 7.60932 32.3881C7.57685 32.3971 7.54269 32.3987 7.5095 32.3926C7.4664 32.3853 7.41871 32.3853 7.3894 32.3455Z" fill="#004F7E"/>
<path d="M8.02668 28.4463C8.03587 28.5804 8.02668 28.7095 7.93186 28.819C7.95657 28.6933 7.96634 28.5636 8.02668 28.4463Z" fill="#004F7E"/>
<path d="M59.492 34.7153C59.492 34.0132 59.484 33.3121 59.484 32.6094C59.484 26.288 59.484 19.9662 59.484 13.644V13.5121C59.4265 13.4813 59.4093 13.5211 59.3874 13.5425C58.133 14.8132 56.6326 15.7584 55.0839 16.6407C54.9822 16.6968 54.9466 16.6704 54.8971 16.5845C54.3394 15.6087 53.7777 14.6347 53.2123 13.6626C53.1456 13.5503 53.195 13.5144 53.2835 13.4622C55.5522 12.1151 57.467 10.3752 59.176 8.40513C59.647 7.86549 60.0699 7.28752 60.4402 6.67753C60.5011 6.5765 60.5689 6.55798 60.6741 6.55854C61.6946 6.56135 62.7152 6.56528 63.7358 6.55518C63.9162 6.55518 63.9484 6.60457 63.9478 6.76958C63.9432 10.7591 63.9421 14.7486 63.9444 18.7382C63.9444 23.955 63.9455 29.172 63.9478 34.3892C63.9478 34.4571 63.9409 34.5251 63.9375 34.593C63.9249 34.595 63.912 34.5934 63.9003 34.5883C63.8887 34.5832 63.8788 34.5749 63.872 34.5643C63.7979 34.3842 63.8513 34.195 63.8323 34.0109C63.8323 33.7746 63.8266 33.5383 63.8323 33.302C63.8323 32.9754 63.826 32.6482 63.8323 32.3221C63.8364 32.1593 63.78 32.0818 63.6076 32.0841C63.1663 32.0897 62.7302 32.0583 62.286 32.1206C61.9439 32.1739 61.5979 32.1989 61.2516 32.1952C60.7453 32.1801 60.2373 32.2581 59.7282 32.2379C59.5943 32.2328 59.5943 32.3305 59.5943 32.422C59.5943 32.7554 59.5909 33.0888 59.5943 33.4227C59.5943 33.6994 59.6006 33.9756 59.5909 34.2523C59.5845 34.4027 59.6213 34.5565 59.5512 34.7013C59.5446 34.7101 59.5351 34.7163 59.5243 34.7189C59.5134 34.7215 59.502 34.7202 59.492 34.7153Z" fill="white"/>
<path d="M38.3169 30.5001C38.5467 29.6305 38.7766 28.7609 39.0065 27.8913C39.9834 24.1505 40.9218 20.4 41.755 16.6249C42.3262 14.0356 42.8549 11.4375 43.341 8.83053C43.4713 8.1267 43.5962 7.42174 43.7157 6.71566C43.7358 6.59779 43.7732 6.55682 43.8967 6.55738C45.3651 6.56187 46.8332 6.56187 48.3008 6.55738C48.4554 6.55738 48.4623 6.60453 48.4358 6.73137C47.5118 11.2317 46.5045 15.7157 45.3822 20.1722C44.4271 23.9675 43.3977 27.7432 42.294 31.4992C42.2756 31.5626 42.2751 31.6345 42.2176 31.6827C42.1739 31.5744 42.1544 31.4969 41.9785 31.4723C41.7806 31.4395 41.5913 31.3692 41.4211 31.2651C41.2298 31.1529 41.008 31.0794 40.8005 30.9896C40.4109 30.8212 39.988 30.742 39.6093 30.5523C39.376 30.4356 39.1248 30.3839 38.8766 30.3233C38.8231 30.312 38.7723 30.291 38.7266 30.2616C38.5692 30.1589 38.5318 30.1746 38.4611 30.3548C38.4318 30.421 38.4266 30.5097 38.3169 30.5001Z" fill="white"/>
<path d="M30.3414 29.4051C30.0811 28.4941 29.8144 27.5849 29.5616 26.6717C28.4173 22.5366 27.3668 18.3794 26.4102 14.2002C25.8402 11.7211 25.3115 9.23352 24.7949 6.74372C24.7598 6.57533 24.8052 6.55737 24.9587 6.55737C26.4527 6.56261 27.9487 6.56261 29.4467 6.55737C29.6127 6.55737 29.6524 6.6135 29.6765 6.75662C30.1493 9.4773 30.6751 12.1877 31.2539 14.8878C31.8814 17.821 32.5609 20.7426 33.2922 23.6526C33.8094 25.722 34.3438 27.7886 34.9046 29.8479C34.9097 29.8746 34.9123 29.9016 34.9127 29.9287C34.7978 29.9203 34.8012 29.8244 34.7771 29.7519C34.7529 29.6795 34.7231 29.597 34.7047 29.5173C34.6788 29.4051 34.6231 29.336 34.4886 29.349C34.3973 29.3481 34.3071 29.329 34.2237 29.2928C34.1702 29.2754 34.1019 29.2367 34.0628 29.2687C33.8186 29.4539 33.5749 29.2743 33.3324 29.2743C32.8284 29.2743 32.332 29.1705 31.8286 29.1564C31.7302 29.1482 31.6315 29.1677 31.5441 29.2126C31.5016 29.2367 31.4533 29.2575 31.4114 29.2126C31.3453 29.139 31.2884 29.1839 31.2292 29.2227C31.17 29.2614 31.1143 29.3192 31.0626 29.2945C30.7896 29.157 30.585 29.3983 30.3414 29.4051Z" fill="white"/>
<path d="M77.7819 26.9457C77.5578 26.2655 77.3865 25.5712 77.2009 24.8803C76.2642 21.4034 75.3937 17.9109 74.5891 14.403C74.0013 11.852 73.4559 9.2926 72.9227 6.72983C72.898 6.61084 72.9043 6.55584 73.0612 6.5564C74.5775 6.56239 76.0941 6.56239 77.6112 6.5564C77.7261 6.5564 77.7744 6.57605 77.7963 6.70345C78.1652 8.82581 78.5655 10.9422 78.9973 13.0526C79.7251 16.5908 80.5296 20.1122 81.4108 23.6168C81.5205 24.0529 81.6245 24.4907 81.7314 24.9274C81.7261 24.9652 81.7094 25.0006 81.6834 25.0291C81.6574 25.0576 81.6233 25.0779 81.5855 25.0874C81.2941 25.1345 81.1114 25.4275 80.7953 25.4118C80.643 25.5886 80.3414 25.5442 80.2282 25.7867C80.1851 25.8788 80.0673 25.89 79.9707 25.899C79.8698 25.9169 79.7702 25.9411 79.6725 25.9714C79.3409 26.0404 79.0978 26.3025 78.7599 26.3474C78.6295 26.5523 78.3335 26.513 78.1945 26.7268C78.1123 26.8554 77.9043 26.8408 77.7819 26.9457Z" fill="white"/>
<path d="M38.3169 30.5002C38.4163 30.4609 38.3829 30.3593 38.4214 30.2914C38.4519 30.2352 38.4174 30.123 38.5191 30.1409C38.6025 30.1555 38.7249 30.0848 38.772 30.2184C38.7766 30.2307 38.7852 30.2549 38.7858 30.2549C39.0007 30.1836 39.1392 30.4103 39.3374 30.389C39.3984 30.3743 39.4629 30.3838 39.5167 30.4154C39.7341 30.574 39.9881 30.6778 40.2563 30.7179C40.3369 30.736 40.4143 30.7655 40.4862 30.8055C40.7522 30.9357 41.0551 30.9913 41.305 31.1378C41.501 31.2528 41.7216 31.2983 41.9101 31.4184C41.9527 31.4453 41.9837 31.4745 42.0388 31.447C42.2371 31.3488 42.2756 31.4234 42.2147 31.6047C42.2109 31.6316 42.2109 31.6587 42.2147 31.6856C42.1072 32.0571 42.0423 32.4399 41.8906 32.7997C41.8475 32.8133 41.802 32.8179 41.7569 32.8132C41.7119 32.8086 41.6684 32.7948 41.6291 32.7727C41.1355 32.5589 40.6798 32.2676 40.185 32.0627C39.6713 31.8511 39.1708 31.5991 38.626 31.465C38.4444 31.4206 38.3094 31.2584 38.1054 31.2809C38.1579 31.0163 38.2285 30.7555 38.3169 30.5002Z" fill="white"/>
<path d="M30.3414 29.4051C30.3557 29.349 30.3293 29.2367 30.45 29.3164C30.5075 29.3552 30.5776 29.349 30.5982 29.3052C30.7046 29.0807 30.8678 29.2047 31.0005 29.2429C31.1258 29.2783 31.1832 29.1924 31.2487 29.1385C31.3671 29.0414 31.4269 29.0543 31.4516 29.2047C31.6539 29.0723 31.8682 29.0891 32.0877 29.1189C32.29 29.1458 32.494 29.1604 32.698 29.1789C32.9531 29.2014 33.2094 29.2154 33.464 29.2463C33.5755 29.2603 33.7146 29.184 33.7979 29.3305C33.8145 29.3602 33.864 29.335 33.8858 29.3058C33.9904 29.1643 34.1157 29.1935 34.253 29.253C34.3214 29.2828 34.411 29.3226 34.4719 29.303C34.6874 29.2339 34.7098 29.3591 34.7593 29.5112C34.8041 29.6509 34.8018 29.8103 34.9127 29.9271C34.9702 30.1017 35.0403 30.2728 35.0472 30.4592C35.0273 30.473 35.0041 30.4816 34.9799 30.4843C34.9557 30.4869 34.9312 30.4835 34.9087 30.4743C34.5344 30.3963 34.1516 30.3643 33.7691 30.3789C33.7344 30.3823 33.6992 30.3802 33.6651 30.3727C33.3376 30.2712 33.006 30.348 32.6756 30.3486C32.1084 30.3486 31.5407 30.4047 30.9741 30.3396C30.856 30.3259 30.7364 30.3454 30.6293 30.3958C30.5081 30.073 30.4118 29.7419 30.3414 29.4051Z" fill="white"/>
<path d="M77.7819 26.9456C77.7819 26.9389 77.7819 26.9282 77.7859 26.926C78.0261 26.7896 78.21 26.5662 78.4887 26.4893C78.5152 26.482 78.5605 26.4831 78.5663 26.4685C78.6686 26.2131 78.9605 26.2945 79.1306 26.1609C79.3162 26.0156 79.5524 25.9707 79.7558 25.8607C79.796 25.8388 79.8357 25.8528 79.8753 25.8494C80.0184 25.8377 80.1839 25.8713 80.2385 25.6659C80.2535 25.6098 80.3494 25.5537 80.4178 25.5379C80.6477 25.4818 80.8293 25.3241 81.0672 25.2904C81.1169 25.2857 81.1644 25.268 81.2048 25.2393C81.2453 25.2106 81.2771 25.1718 81.297 25.1271C81.3102 25.0957 81.3378 25.053 81.3706 25.0659C81.5395 25.1333 81.6234 24.9991 81.7349 24.929C81.8114 25.3033 81.9073 25.6737 82.0222 26.0386C82.0542 26.0873 82.069 26.1448 82.0642 26.2025C81.8153 26.1413 81.5866 26.1559 81.4016 26.3585C81.3666 26.3961 81.3091 26.3815 81.2614 26.3855C81.1571 26.3915 81.057 26.4279 80.9741 26.4899C80.681 26.7233 80.2937 26.7907 80.0012 27.032C79.8955 27.119 79.7236 27.1443 79.5828 27.2004C79.2582 27.3267 79.0128 27.5843 78.6772 27.6899C78.4876 27.7493 78.3899 27.9407 78.2267 28.0446C78.1485 28.094 78.2629 28.2332 78.1635 28.3039C78.0124 27.8578 77.8851 27.4045 77.7819 26.9456Z" fill="white"/>
<path d="M38.1054 31.2781C38.1169 31.2591 38.1328 31.243 38.1518 31.2312C38.1709 31.2194 38.1926 31.2123 38.215 31.2103C38.2375 31.2083 38.2601 31.2116 38.281 31.2199C38.302 31.2281 38.3206 31.2412 38.3353 31.2578C38.487 31.4004 38.691 31.4015 38.8651 31.479C39.1237 31.5912 39.4139 31.6272 39.6489 31.8096C39.742 31.882 39.9064 31.8601 40.0207 31.9157C40.3592 32.0801 40.7103 32.2227 41.0172 32.4483C41.0869 32.4912 41.1653 32.519 41.247 32.5297C41.4803 32.5752 41.6527 32.7542 41.8872 32.7969C41.8682 32.8637 41.8487 32.9304 41.8297 32.9972C41.7326 33.2094 41.6878 33.4367 41.628 33.6595C41.6211 33.7005 41.6389 33.7516 41.5832 33.7718C41.4211 33.6427 41.2597 33.5119 41.0597 33.4434C40.8143 33.3593 40.6212 33.1881 40.3948 33.0691C39.8202 32.7688 39.2116 32.5611 38.6031 32.349C38.4979 32.3125 38.3979 32.2653 38.2956 32.2227C38.141 32.1581 37.9939 32.1104 37.8399 32.2143C37.9095 31.8974 37.9981 31.5847 38.1054 31.2781Z" fill="white"/>
<path d="M30.6287 30.3936C30.6482 30.2954 30.7114 30.2466 30.808 30.2746C30.9844 30.3263 31.1786 30.31 31.3441 30.3066C31.6372 30.3004 31.9302 30.3627 32.2308 30.2999C32.4773 30.2437 32.748 30.2842 33.0043 30.283C33.0525 30.283 33.114 30.3077 33.1468 30.287C33.2818 30.2005 33.4013 30.2466 33.5352 30.292C33.7525 30.3661 33.9835 30.3066 34.2093 30.3285C34.4926 30.356 34.7753 30.3644 35.046 30.4593C35.0971 30.6512 35.2 30.8292 35.2086 31.0323C35.1259 31.1901 34.9868 31.1884 34.85 31.1334C34.5719 31.0211 34.2794 31.0335 33.9881 31.0104C33.6197 30.9818 33.2514 30.9959 32.883 30.9813C32.6819 30.9734 32.4808 30.938 32.2825 31.0076C32.2282 31.0213 32.1709 31.0186 32.1182 30.9998C31.7452 30.9072 31.3711 31.0396 30.9993 30.9998C30.9125 30.9908 30.924 31.0593 30.9355 31.112C30.9585 31.2243 30.9993 31.3365 31.0143 31.4488C31.0171 31.4711 31.0142 31.4937 31.0058 31.5147C30.9975 31.5357 30.984 31.5543 30.9666 31.5689C30.8318 31.1835 30.719 30.7912 30.6287 30.3936Z" fill="white"/>
<path d="M78.1554 28.304C78.1653 28.2367 78.158 28.1681 78.1342 28.1042C78.1071 28.0307 78.1186 27.9672 78.2209 27.9639C78.2415 27.9659 78.2622 27.9621 78.2807 27.953C78.2991 27.9438 78.3145 27.9297 78.3249 27.9122C78.4307 27.7326 78.6071 27.6395 78.7973 27.5755C78.9662 27.5194 79.08 27.3661 79.2243 27.3089C79.4415 27.2224 79.6265 27.0675 79.8564 27.0254C79.9223 27.0155 79.984 26.9877 80.0345 26.9452C80.2268 26.7927 80.4489 26.6802 80.6873 26.6146C80.8178 26.5781 80.8597 26.4389 80.9896 26.408C81.206 26.3474 81.4149 26.2636 81.6125 26.1583C81.7671 26.0825 81.9199 26.0836 82.0561 26.2032C82.086 26.3715 82.1779 26.5214 82.1831 26.6943C81.7573 26.8559 81.3424 27.044 80.9149 27.2028C80.6356 27.3066 80.3437 27.4043 80.1063 27.6002C80.0316 27.6614 79.9276 27.6715 79.8426 27.7203C79.3829 27.9846 78.9806 28.3377 78.491 28.5566C78.4008 28.597 78.3698 28.7053 78.2807 28.7502C78.2187 28.6076 78.1765 28.4576 78.1554 28.304Z" fill="white"/>
<path d="M82.3187 27.2262C82.4401 27.5876 82.5403 27.9555 82.6187 28.328C82.6112 28.335 82.6017 28.3397 82.5915 28.3416C82.5814 28.3435 82.5708 28.3425 82.5612 28.3387C82.5454 28.3253 82.5324 28.3091 82.5227 28.291C82.4803 28.1684 82.445 28.0436 82.417 27.9172C82.3992 27.8543 82.3745 27.8229 82.2986 27.8532C82.0285 27.9609 81.7452 28.0406 81.4941 28.1899C81.1711 28.3819 80.8045 28.4874 80.4798 28.676C80.0437 28.9286 79.5742 29.129 79.18 29.45C79.0841 29.5181 78.983 29.5791 78.8777 29.6324C78.7341 29.7189 78.6709 29.8199 78.7341 29.9877C78.7747 30.1112 78.8077 30.237 78.8329 30.3643C78.84 30.3904 78.8396 30.418 78.8315 30.4439C78.8235 30.4697 78.8083 30.4929 78.7875 30.5108C78.6404 30.0786 78.5174 29.6397 78.4134 29.1952C78.3651 29.1009 78.4439 29.0756 78.5031 29.0448C78.9657 28.8034 79.3616 28.456 79.8276 28.2253C80.2741 28.0047 80.708 27.7611 81.1677 27.563C81.3866 27.4687 81.6234 27.4131 81.8297 27.2824C81.9716 27.1937 82.14 27.1224 82.3187 27.2262Z" fill="white"/>
<path d="M82.5653 28.2911C82.5653 28.3045 82.5653 28.318 82.5653 28.3315C82.6733 28.414 82.6227 28.5627 82.7032 28.6553C82.7431 28.7329 82.766 28.8178 82.7704 28.9045C82.4607 29.0392 82.1383 29.1476 81.828 29.2755C81.5315 29.3968 81.2533 29.5455 80.966 29.6875C80.7517 29.7953 80.5431 29.9216 80.3339 30.0394C79.888 30.2886 79.4966 30.617 79.0478 30.86C78.9415 30.9161 79.0479 31.0379 78.9525 31.0845C78.8761 30.8995 78.8197 30.7073 78.7841 30.5109L78.7893 30.3369C78.7686 30.2622 78.8375 30.2488 78.8766 30.2162C79.2214 29.9249 79.6236 29.7161 79.9839 29.4456C80.2046 29.2772 80.4753 29.161 80.731 29.0454C81.2947 28.7917 81.8452 28.5083 82.4268 28.2933C82.4756 28.2765 82.5193 28.2501 82.5653 28.2911Z" fill="white"/>
<path d="M33.3192 35.1779C32.8978 35.0889 32.4763 34.9998 32.0549 34.9108C32.0238 34.9062 31.995 34.8923 31.9725 34.8708C31.95 34.8493 31.935 34.8215 31.9297 34.7912C31.8917 34.6464 31.8498 34.5027 31.8096 34.3585C31.759 34.2311 31.8303 34.2137 31.94 34.2008C32.3917 34.1446 32.8428 34.1979 33.2933 34.2103C34.2409 34.2361 35.1827 34.3175 36.1004 34.5712C36.1201 34.577 36.1393 34.5841 36.1579 34.5925C36.1782 34.6048 36.1975 34.6186 36.2154 34.6341C36.2228 34.7805 36.3579 34.89 36.3407 35.0432C36.2999 35.1948 36.2039 35.2245 36.0533 35.1852C35.1661 34.9506 34.2576 34.8771 33.3433 34.8339C32.9537 34.8159 32.5652 34.8187 32.1756 34.8198C32.4963 34.9124 32.8278 34.9545 33.1462 35.0488C33.218 35.069 33.3295 35.055 33.3192 35.1779Z" fill="white"/>
<path d="M82.3187 27.2262C82.1156 27.2082 81.9129 27.2655 81.751 27.3867C81.6792 27.4428 81.601 27.4911 81.5016 27.4619C81.4853 27.457 81.4681 27.456 81.4514 27.4591C81.4347 27.4621 81.419 27.469 81.4056 27.4793C80.9603 27.7504 80.4724 27.9407 80.0121 28.1837C79.637 28.3856 79.2754 28.6106 78.9295 28.8572C78.7933 28.9526 78.6421 29.0144 78.5025 29.0991C78.4594 29.1255 78.4152 29.1373 78.4117 29.1945C78.3479 29.0528 78.3048 28.9029 78.2836 28.7495C78.3238 28.6103 78.4221 28.5339 78.5513 28.4632C78.7812 28.3397 79.0111 28.2263 79.2208 28.0647C79.4633 27.8767 79.7219 27.7004 80.0184 27.5955C80.0703 27.5778 80.1145 27.5433 80.1437 27.4978C80.1679 27.4565 80.2046 27.4235 80.2489 27.4035C80.7545 27.2565 81.2194 27.0078 81.7188 26.8422C81.8734 26.7906 82.0061 26.68 82.186 26.6935C82.2542 26.8645 82.2988 27.0437 82.3187 27.2262Z" fill="white"/>
<path d="M30.9735 31.4424C30.9338 31.306 30.8896 31.1708 30.8585 31.0327C30.8378 30.9502 30.8626 30.9002 30.9689 30.9266C31.2034 30.9861 31.451 30.9728 31.6774 30.8885C31.809 30.8402 31.8992 30.9378 32.0285 30.9311C32.5239 30.9059 33.0221 30.9216 33.5191 30.9238C33.8909 30.9238 34.2622 30.9665 34.6334 30.9957C34.6948 31.0061 34.7534 31.0284 34.8058 31.0613C34.9494 31.1388 35.0833 31.1377 35.2115 31.0321C35.3132 31.3824 35.4155 31.7315 35.5155 32.0817C35.5295 32.1406 35.5405 32.2002 35.5482 32.2602C35.4534 32.2664 35.4563 32.1839 35.4258 32.1317C35.285 31.6198 35.285 31.6187 34.75 31.5945C34.3202 31.5749 33.8938 31.5204 33.4634 31.5036C33.2335 31.4946 33.0152 31.5446 32.7824 31.521C32.5308 31.4952 32.2733 31.4088 32.0182 31.4705C31.7418 31.539 31.4642 31.4795 31.189 31.503C31.1507 31.5101 31.1113 31.5083 31.0738 31.4977C31.0364 31.4872 31.002 31.4683 30.9735 31.4424Z" fill="white"/>
<path d="M37.8428 32.2172C37.9204 32.0544 38.0186 32.055 38.1836 32.1274C38.4893 32.2615 38.8255 32.3305 39.126 32.4731C39.5415 32.6701 39.988 32.779 40.3977 33.0091C40.6701 33.1635 40.9218 33.3655 41.2355 33.4688C41.3505 33.507 41.5734 33.5625 41.5861 33.7747C41.5062 33.8993 41.5861 34.071 41.4596 34.1822C41.2591 34.1653 41.0878 34.0699 40.9235 33.9711C40.4368 33.6776 39.9156 33.443 39.399 33.2151C39.0312 33.0529 38.645 32.8941 38.2399 32.8115C38.1706 32.8026 38.1027 32.7855 38.0376 32.7605C37.9135 32.7043 37.8026 32.6752 37.7302 32.8301C37.7227 32.8463 37.6928 32.8419 37.6727 32.8301C37.7113 32.6214 37.7682 32.4163 37.8428 32.2172Z" fill="white"/>
<path d="M33.3192 35.1778C33.0669 35.0391 32.779 35.0279 32.5066 34.9617C32.3653 34.9274 32.2193 34.9055 32.0785 34.8735C32.0366 34.8646 31.994 34.8472 32.0055 34.7944C32.0147 34.7512 32.059 34.7568 32.0917 34.7579C32.475 34.7697 32.8589 34.7355 33.241 34.7764C33.5163 34.8062 33.7938 34.7731 34.0714 34.8129C34.2196 34.8343 34.3696 34.8488 34.5185 34.8747C34.8322 34.9308 35.1506 34.9201 35.4683 34.9824C35.6643 35.0212 35.8568 35.0784 36.0464 35.1272C36.1953 35.1654 36.2637 35.1446 36.3407 35.043L36.605 35.8653C35.4839 35.6487 34.3972 35.4337 33.3192 35.1778Z" fill="white"/>
<path d="M30.9734 31.4424C31.3642 31.4424 31.7532 31.4424 32.144 31.4155C32.4269 31.4013 32.7103 31.4289 32.9847 31.4974C33.0042 31.5019 33.033 31.5148 33.0422 31.507C33.2146 31.3751 33.4048 31.4632 33.5858 31.4593C33.9122 31.452 34.2357 31.4997 34.5627 31.5334C34.7862 31.5564 35.0098 31.5828 35.2339 31.5856C35.3115 31.5856 35.3333 31.6063 35.3488 31.6647C35.3827 31.823 35.4678 31.97 35.4637 32.1373C35.4063 32.1934 35.3356 32.1771 35.2666 32.1648C34.6646 32.0555 34.0544 31.9949 33.4421 31.9835C33.0324 31.9768 32.6175 32.0284 32.2158 31.9745C31.8348 31.9234 31.4688 32.0582 31.0941 31.9857C31.0332 31.8547 30.9918 31.7158 30.9711 31.5732L30.9734 31.4424Z" fill="white"/>
<path d="M35.712 32.8345C35.743 33.0028 35.8528 33.1477 35.8447 33.3245C35.7832 33.4109 35.6965 33.3862 35.6149 33.3671C34.9828 33.215 34.3323 33.1987 33.6898 33.137C33.0256 33.0678 32.3559 33.0653 31.6912 33.1297C31.5912 33.1404 31.5498 33.1707 31.5791 33.27C31.6021 33.3486 31.6263 33.4266 31.6423 33.5074C31.6498 33.5355 31.6493 33.565 31.6409 33.5928C31.6325 33.6206 31.6165 33.6456 31.5946 33.6651C31.4752 33.3442 31.3774 33.0159 31.3022 32.6824C31.2648 32.5954 31.3154 32.5752 31.3901 32.5701C31.9932 32.5234 32.5988 32.5152 33.2031 32.5454C33.6099 32.5707 34.0179 32.6521 34.43 32.6015C34.4504 32.5976 34.4715 32.5976 34.492 32.6015C34.8535 32.7071 35.2345 32.697 35.5988 32.7834C35.6405 32.7903 35.6796 32.8079 35.712 32.8345Z" fill="white"/>
<path d="M78.9565 31.085C78.8915 30.8897 79.0381 30.8398 79.1651 30.7376C79.4242 30.5288 79.7328 30.3964 79.9863 30.1763C80.1495 30.0338 80.3782 29.9518 80.5764 29.8396C80.9045 29.6555 81.2384 29.4792 81.5797 29.3204C81.9015 29.1705 82.2348 29.0437 82.567 28.9146C82.6279 28.891 82.7049 28.9067 82.7744 28.9039C82.7468 29.0274 82.8813 29.1099 82.8601 29.2317C82.8499 29.2853 82.8251 29.3353 82.7883 29.3763C82.7515 29.4173 82.704 29.4478 82.6509 29.4646C82.1613 29.6123 81.7217 29.8626 81.2637 30.0787C80.6425 30.3711 80.0885 30.7584 79.5248 31.1355C79.4438 31.1917 79.3737 31.2568 79.295 31.3118C79.2162 31.3668 79.1404 31.4078 79.0427 31.3679C78.9933 31.2808 78.9639 31.1843 78.9565 31.085Z" fill="white"/>
<path d="M41.3389 34.6037C41.3044 34.7968 41.2465 34.9852 41.1665 35.165C40.7218 34.8843 40.2339 34.6857 39.7655 34.4499C39.2346 34.1822 38.6921 33.9364 38.1163 33.7702C37.8962 33.7068 37.7049 33.5698 37.4762 33.5266C37.5009 33.3727 37.5437 33.222 37.6037 33.0776C37.6784 32.9727 37.7761 33.0249 37.8709 33.0383C38.2157 33.0872 38.5226 33.2376 38.8381 33.365C39.2116 33.5154 39.5851 33.6731 39.9489 33.8409C40.289 33.997 40.612 34.1889 40.9413 34.3674C41.0625 34.4336 41.1671 34.5263 41.3131 34.5425C41.347 34.547 41.3544 34.5745 41.3389 34.6037Z" fill="white"/>
<path d="M59.5386 37.8232L59.4984 37.8153C59.457 37.7513 59.4788 37.6829 59.4834 37.6155C59.5242 37.4814 59.4558 37.3349 59.5346 37.2052C59.8983 37.2232 60.2569 37.1682 60.6172 37.1323C61.4006 37.0472 62.1906 37.0365 62.9761 37.1003C63.2186 37.1221 63.464 37.1137 63.7059 37.1513C63.7743 37.162 63.8467 37.1553 63.9042 37.2035C63.9315 37.272 63.9303 37.3481 63.9007 37.4157C63.5591 37.4804 63.2136 37.5235 62.8664 37.5448C62.3492 37.5807 61.8354 37.6447 61.3194 37.6874C60.7269 37.7367 60.1316 37.7665 59.5386 37.8232Z" fill="white"/>
<path d="M31.6056 33.4879C31.6004 33.4834 31.5918 33.4801 31.5906 33.4745C31.5562 33.3583 31.4688 33.2241 31.5016 33.1298C31.5539 32.9805 31.7211 33.1035 31.8366 33.081C32.1498 33.0204 32.4687 33.0642 32.783 33.0535C33.2427 33.0378 33.6841 33.1035 34.1346 33.1371C34.3386 33.1529 34.5443 33.182 34.7466 33.1815C35.0425 33.1815 35.3161 33.2831 35.604 33.31C35.685 33.3173 35.7637 33.3661 35.8476 33.3235C35.9051 33.5138 36.0022 33.6934 36.02 33.8954C35.1126 33.6473 34.1777 33.603 33.2456 33.5435C32.7543 33.5121 32.2612 33.53 31.7693 33.5435C31.7027 33.5474 31.6395 33.5564 31.6056 33.4879Z" fill="white"/>
<path d="M79.0387 31.3678C79.2932 31.3162 79.4478 31.1102 79.6535 30.9828C80.1086 30.7021 80.5293 30.3699 81.0223 30.1409C81.4976 29.9214 81.9418 29.643 82.4446 29.4746C82.602 29.4224 82.7698 29.3921 82.8572 29.2305C83.0422 29.5369 82.8055 29.675 82.6072 29.8293C82.4963 29.9158 82.413 30.0365 82.2716 30.0847C81.751 30.2424 81.2947 30.5276 80.8229 30.7824C80.3902 31.0267 79.9775 31.3035 79.5886 31.6103C79.4656 31.7034 79.3461 31.8235 79.1628 31.7786C79.0995 31.649 79.0576 31.5103 79.0387 31.3678Z" fill="white"/>
<path d="M37.4762 33.5287C37.4918 33.5091 37.5142 33.4958 37.5392 33.4912C37.5642 33.4867 37.59 33.4912 37.6118 33.504C38.2542 33.7639 38.922 33.9727 39.5409 34.2769C40.0483 34.5266 40.5821 34.7332 41.0533 35.0514C41.0958 35.0858 41.1344 35.1246 41.1683 35.167C41.0915 35.4903 40.9955 35.8088 40.881 36.1212C40.7965 36.0454 40.8407 35.9596 40.8603 35.8759C40.9499 35.5953 40.939 35.6116 40.6959 35.446C40.0247 34.9869 39.2748 34.681 38.5255 34.3796C38.1922 34.2449 37.8474 34.136 37.5198 33.9867C37.4538 33.9564 37.3934 33.9306 37.3768 33.8542L37.4762 33.5287Z" fill="white"/>
<path d="M41.339 34.6037C41.0677 34.593 40.8896 34.3921 40.6724 34.2781C40.1205 33.9856 39.5535 33.7211 38.9737 33.4856C38.6088 33.3397 38.2566 33.1646 37.8664 33.0871C37.7784 33.0697 37.694 33.0349 37.6038 33.0781C37.6086 32.9919 37.6323 32.9077 37.6733 32.8312C37.744 32.6039 37.8692 32.6628 38.064 32.7032C38.5192 32.8026 38.9203 33.0495 39.38 33.1208C39.4639 33.1337 39.5012 33.2089 39.5702 33.2415C39.942 33.4183 40.3138 33.594 40.6827 33.7758C40.8488 33.8578 41.0275 33.9324 41.1625 34.0503C41.2568 34.1317 41.4183 34.0256 41.4596 34.1822C41.3746 34.3107 41.4234 34.4752 41.339 34.6037Z" fill="white"/>
<path d="M36.1746 34.6339C36.016 34.657 35.8741 34.5778 35.7333 34.5385C35.1012 34.3668 34.4501 34.3645 33.8094 34.2759C33.4244 34.2231 33.0227 34.2893 32.6331 34.2562C32.3995 34.245 32.1655 34.2461 31.932 34.2596C31.8435 34.2596 31.8027 34.2686 31.8084 34.3584C31.7458 34.2291 31.7033 34.0914 31.6826 33.9498C31.6251 33.7988 31.7251 33.7926 31.8337 33.7943C32.1969 33.7993 32.5607 33.8061 32.9256 33.7943C33.8657 33.7645 34.784 33.9301 35.7091 34.0519C36.0373 34.0951 36.135 34.2343 36.1809 34.497C36.1873 34.5453 36.2062 34.589 36.1746 34.6339Z" fill="white"/>
<path d="M63.9007 37.4157C63.9007 37.3478 63.9007 37.2799 63.9007 37.212C63.8828 37.1954 63.8684 37.1755 63.8585 37.1534C63.8487 37.1313 63.8435 37.1075 63.8433 37.0834C63.8645 36.8774 63.7576 36.8219 63.5628 36.8028C62.9388 36.75 62.3141 36.7433 61.6883 36.7422C61.0626 36.741 60.4574 36.8544 59.8403 36.892C59.7225 36.8993 59.6007 36.9145 59.5145 36.8056C59.4829 36.6747 59.4829 36.5385 59.5145 36.4076C59.9167 36.4076 60.3034 36.2909 60.704 36.2909C61.0034 36.2909 61.3005 36.2522 61.5998 36.2449C62.2187 36.229 62.838 36.2467 63.4548 36.2976C63.6042 36.31 63.7628 36.2494 63.9036 36.3425C63.9484 36.4649 63.8823 36.5974 63.941 36.718C63.945 36.9201 63.9502 37.1216 63.9525 37.3231C63.9582 37.3641 63.9582 37.4101 63.9007 37.4157Z" fill="white"/>
<path d="M36.1746 34.6339C36.1766 34.6135 36.1766 34.593 36.1746 34.5727C36.0798 34.1972 36.0528 34.131 35.9895 34.1461C35.8108 34.1888 35.6551 34.099 35.4885 34.0759C35.1218 34.0254 34.7546 33.9817 34.388 33.9328C34.1438 33.9008 33.8961 33.8991 33.653 33.8812C33.0301 33.834 32.4084 33.8868 31.7877 33.8492C31.6837 33.8425 31.6906 33.889 31.6854 33.9497C31.6374 33.8611 31.6083 33.7639 31.5998 33.664L31.6056 33.4877C31.9142 33.4614 32.2256 33.5259 32.5331 33.4546C32.5811 33.4455 32.6303 33.4435 32.679 33.4484C33.2973 33.4883 33.9191 33.5046 34.5328 33.5787C34.9977 33.6348 35.4724 33.6623 35.924 33.8032C35.962 33.8155 35.9884 33.8632 36.02 33.8947C36.1016 34.1366 36.189 34.3779 36.2194 34.6333L36.1746 34.6339Z" fill="white"/>
<path d="M37.3751 33.8499C37.6404 34.001 37.9217 34.1237 38.214 34.2158C38.6738 34.3544 39.0835 34.5907 39.5288 34.7484C40.0213 34.9224 40.4121 35.2615 40.8746 35.4781C41.0873 35.5847 40.9436 35.7307 40.9149 35.8654C40.8442 35.972 40.7517 35.9586 40.6609 35.9007C40.2207 35.6201 39.7616 35.3748 39.2984 35.1391C38.9773 34.976 38.6452 34.8346 38.3043 34.7159C37.9779 34.6036 37.6457 34.4987 37.332 34.3421C37.3113 34.373 37.321 34.4229 37.3021 34.4644C37.2903 34.5148 37.2662 34.5615 37.232 34.6008C37.2226 34.605 37.2122 34.6064 37.202 34.6049C37.1918 34.6034 37.1822 34.5991 37.1745 34.5924C37.224 34.3407 37.291 34.0926 37.3751 33.8499Z" fill="white"/>
<path d="M31.0924 31.9858C31.1723 31.882 31.2849 31.9611 31.3797 31.9426C31.7573 31.8696 32.1406 31.9179 32.5227 31.9302C32.6532 31.9342 32.7905 31.9617 32.9112 31.8864C33.0318 31.8112 33.0951 31.9504 33.2042 31.9364C33.4714 31.9022 33.7415 31.942 34.0122 31.9325C34.2828 31.9229 34.5552 31.9942 34.8265 32.0341C35.0379 32.0655 35.2488 32.1025 35.4586 32.1373L35.5436 32.2603C35.5436 32.3501 35.6407 32.4101 35.6206 32.5055C35.4115 32.592 35.2149 32.4758 35.0109 32.4662C34.388 32.4371 33.7731 32.3169 33.1445 32.3209C32.575 32.3242 32.0049 32.3209 31.4355 32.345C31.3592 32.3447 31.284 32.362 31.216 32.3955C31.1547 32.2655 31.1131 32.1275 31.0924 31.9858Z" fill="white"/>
<path d="M31.2194 32.3955C31.2326 32.3394 31.2108 32.2597 31.3125 32.2698C31.7452 32.3119 32.1773 32.2496 32.6106 32.2557C32.8979 32.2597 33.1853 32.2507 33.4657 32.2518C33.7789 32.2518 34.1035 32.3079 34.4202 32.3534C34.6793 32.3916 34.9408 32.3927 35.2 32.4297C35.3425 32.4505 35.4747 32.5324 35.6241 32.5055C35.6705 32.6097 35.7001 32.7203 35.712 32.8333C35.3638 32.7772 35.0063 32.7839 34.665 32.6874C34.5668 32.662 34.4647 32.6547 34.3639 32.666C34.1185 32.684 33.8691 32.6099 33.6323 32.6189C33.3651 32.6273 33.106 32.5807 32.8422 32.5818C32.4871 32.5818 32.1296 32.5611 31.778 32.6032C31.6217 32.6217 31.4475 32.5729 31.3062 32.6834C31.2443 32.6 31.2137 32.4984 31.2194 32.3955Z" fill="white"/>
<path d="M37.2653 34.4701C37.2585 34.3823 37.28 34.2946 37.3268 34.2192C37.4273 34.4365 37.6658 34.4179 37.8399 34.4915C38.2204 34.6531 38.61 34.7957 38.9938 34.9506C39.5495 35.1751 40.0328 35.5152 40.5643 35.774C40.6753 35.8301 40.7609 35.9687 40.9137 35.8626C40.8994 35.9485 40.8522 36.031 40.8793 36.1208C40.8695 36.2191 40.8398 36.3145 40.7919 36.4015C40.7264 36.2892 40.6109 36.2275 40.5046 36.177C39.7575 35.7919 39.0226 35.3794 38.2353 35.0668C37.9779 34.964 37.7129 34.8821 37.459 34.7732C37.3314 34.7143 37.2032 34.6492 37.2653 34.4701Z" fill="white"/>
<path d="M37.2653 34.47C37.2618 34.6086 37.3463 34.6821 37.4693 34.7186C37.9231 34.8601 38.365 35.0357 38.791 35.244C39.0817 35.3815 39.3725 35.5274 39.6575 35.6773C39.9282 35.8198 40.1942 35.9809 40.4804 36.0982C40.5508 36.1247 40.6146 36.1653 40.6679 36.2174C40.7211 36.2695 40.7626 36.332 40.7896 36.4007C40.7896 36.5725 40.7189 36.6056 40.5408 36.5725C39.8242 36.44 39.0995 36.3514 38.3876 36.1925C38.4674 36.1111 38.5651 36.1403 38.6594 36.1521C38.9662 36.1886 39.2656 36.2722 39.5736 36.3008C39.7845 36.3418 39.9954 36.3794 40.2195 36.4058C40.1707 36.3526 40.1099 36.3111 40.042 36.2846C39.1863 35.8299 38.3301 35.3747 37.3986 35.0767C37.2647 35.0335 37.136 34.9723 37.1279 34.8039C37.1457 34.7282 37.1434 34.6434 37.221 34.5929C37.2256 34.548 37.217 34.4997 37.2653 34.47Z" fill="white"/>
<path d="M79.1622 31.781C79.4403 31.7148 79.6426 31.5206 79.8518 31.3562C80.168 31.1123 80.5048 30.8951 80.8585 30.7068C81.2608 30.4856 81.6561 30.2364 82.1021 30.0894C82.1595 30.0708 82.213 30.0186 82.2745 30.0838C81.9946 30.3678 81.6694 30.5979 81.355 30.8398C80.7413 31.3096 80.0989 31.7378 79.4524 32.1638C79.3288 32.2447 79.2696 32.2525 79.2403 32.0881C79.2185 31.9876 79.1541 31.8922 79.1622 31.781Z" fill="white"/>
<path d="M37.1429 34.7991C37.1635 34.8568 37.199 34.9083 37.246 34.9486C37.2931 34.989 37.35 35.0167 37.4112 35.0292C38.0043 35.1908 38.5548 35.4591 39.0972 35.728C39.5236 35.9396 39.9707 36.131 40.3494 36.4436C40.0966 36.4644 39.8552 36.4105 39.6139 36.3532C39.2392 36.2999 38.9134 36.1287 38.5795 35.9693C38.0738 35.7284 37.5504 35.5249 37.0136 35.3603C36.9937 35.3544 36.9758 35.3434 36.9619 35.3284C36.9716 35.2722 36.9619 35.2122 37.009 35.1667C37.0613 35.0455 37.0791 34.9141 37.1429 34.7991Z" fill="white"/>
<path d="M36.9619 35.3259C37.2613 35.3259 37.5164 35.473 37.7819 35.5746C38.1891 35.7246 38.587 35.8976 38.9737 36.0926C39.1813 36.1922 39.3951 36.279 39.6139 36.3525C39.2886 36.3469 38.9772 36.2481 38.6571 36.2077C38.5687 36.1943 38.4792 36.1892 38.3899 36.1925C37.8985 36.105 37.4078 36.0163 36.9165 35.9299C36.8148 35.9119 36.7745 35.8737 36.8165 35.7665C36.8728 35.6228 36.9142 35.4724 36.9619 35.3259Z" fill="white"/>
<path d="M59.5386 37.8231C59.7207 37.7429 59.9196 37.7743 60.1092 37.753C60.5689 37.7008 61.0373 37.6969 61.501 37.6587C61.9159 37.6267 62.3291 37.5784 62.7428 37.5386C62.7847 37.5376 62.8265 37.5396 62.8681 37.5448C62.2492 37.6475 61.6234 37.6873 60.9988 37.7367C60.5132 37.7738 60.0276 37.8299 59.5386 37.8231Z" fill="white"/>
<path d="M59.5075 37.6182L59.4983 37.8152C59.4886 37.7983 59.4702 37.7821 59.4702 37.7652C59.4763 36.9664 59.4834 36.168 59.4914 35.3703C59.4959 35.3665 59.5011 35.3637 59.5068 35.3619C59.5124 35.3602 59.5184 35.3595 59.5243 35.36C59.5301 35.3606 59.5359 35.3622 59.5411 35.365C59.5463 35.3677 59.5509 35.3714 59.5546 35.3759C59.5848 35.4269 59.599 35.4855 59.5954 35.5443C59.5995 35.6487 59.5989 35.7525 59.5954 35.8569C59.5954 35.9389 59.5983 36.0208 59.5954 36.1027C59.5932 36.1387 59.5874 36.1745 59.5782 36.2094C59.5075 36.4179 59.4949 36.6411 59.5414 36.856C59.5851 37.1125 59.4897 37.3628 59.5075 37.6182Z" fill="white"/>
<path d="M82.017 26.0391C81.8635 25.6858 81.7666 25.3115 81.7297 24.9294C81.8452 25.2942 81.9411 25.6646 82.017 26.0391Z" fill="white"/>
<path d="M63.9007 34.593H63.9421C63.9576 35.0022 63.9639 35.4114 63.9421 35.8205C63.9375 35.8239 63.9322 35.8264 63.9266 35.8278C63.921 35.8291 63.9152 35.8294 63.9094 35.8286C63.9037 35.8277 63.8982 35.8258 63.8933 35.8229C63.8883 35.82 63.884 35.8161 63.8806 35.8115C63.861 35.7823 63.8493 35.7487 63.8467 35.7139C63.8369 35.6095 63.8404 35.5056 63.8404 35.4012C63.8366 35.271 63.8366 35.1401 63.8404 35.0084C63.8461 34.877 63.8186 34.7429 63.8743 34.6155L63.9007 34.593Z" fill="white"/>
<path d="M63.9007 35.8198H63.9432C63.961 36.1189 63.961 36.4188 63.9432 36.7179C63.857 36.6056 63.9191 36.472 63.8996 36.3497C63.8168 36.2531 63.8421 36.1375 63.8421 36.0275C63.8432 35.9545 63.8386 35.8782 63.9007 35.8198Z" fill="white"/>
<path d="M41.6309 33.6596C41.6406 33.4257 41.7106 33.1979 41.8343 32.9973C41.7874 33.2237 41.7193 33.4454 41.6309 33.6596Z" fill="white"/>
<path d="M37.1429 34.7989C37.1193 34.928 37.0958 35.0576 37.009 35.1648C37.0436 34.9685 37.0981 34.7759 37.1716 34.5901L37.2233 34.5935C37.1969 34.6614 37.1699 34.7298 37.1429 34.7989Z" fill="white"/>
<path d="M59.538 35.3703H59.4915C59.4708 35.1525 59.4708 34.9332 59.4915 34.7153H59.5374C59.5559 34.7303 59.5701 34.7496 59.5788 34.7715C59.5976 34.8772 59.6037 34.9848 59.5972 35.0919C59.5909 35.1885 59.6179 35.2901 59.538 35.3703Z" fill="white"/>
<path d="M82.7043 28.6553C82.5894 28.5751 82.6336 28.4308 82.5664 28.3315L82.6187 28.3281C82.6643 28.4322 82.6932 28.5426 82.7043 28.6553Z" fill="white"/>
<path d="M6.0999 34.2551C6.10967 34.1894 6.06945 34.112 6.1476 34.062C6.1558 34.1299 6.13888 34.1984 6.0999 34.2551Z" fill="white"/>
<path d="M10.4615 29.1902C10.429 29.1897 10.3972 29.1817 10.3684 29.167C10.3397 29.1523 10.3149 29.1312 10.296 29.1055C10.3558 29.1057 10.414 29.1241 10.4626 29.1582C10.4626 29.1689 10.462 29.1796 10.4615 29.1902Z" fill="white"/>
<path d="M6.14873 34.0658C6.1539 33.9945 6.11137 33.9132 6.1947 33.8582C6.19943 33.9302 6.18351 34.0021 6.14873 34.0658Z" fill="white"/>
<path d="M6.60845 31.9004C6.61362 31.8275 6.57454 31.7455 6.65155 31.686C6.65848 31.7601 6.64352 31.8345 6.60845 31.9004Z" fill="white"/>
<path d="M59.5386 33.4064C59.5386 33.0455 59.5386 32.6852 59.5386 32.3249C59.5386 32.2087 59.5386 32.1615 59.7035 32.1671C60.1339 32.1806 60.5689 32.2188 60.9982 32.111C61.1033 32.0841 61.228 32.1217 61.343 32.1301C61.5154 32.1419 61.6878 32.1526 61.8601 32.0903C61.9161 32.063 61.9791 32.0525 62.0412 32.0599C62.3239 32.1458 62.5802 31.983 62.856 31.9881C62.9939 31.9909 63.1284 31.9606 63.2617 32.0251C63.4192 32.1009 63.5858 32.019 63.749 32.0251C63.926 32.0324 63.9059 32.0998 63.9059 32.2014C63.9059 32.5621 63.9059 32.9226 63.9059 33.283C63.8111 33.3559 63.7002 33.3559 63.5881 33.352C63.0744 33.3335 62.5601 33.352 62.0475 33.306C61.9574 33.294 61.8657 33.3009 61.7785 33.3262C61.5217 33.4132 61.2688 33.3015 61.0137 33.3194C60.9095 33.3214 60.8066 33.3431 60.7109 33.3834C60.6522 33.4132 60.5878 33.4307 60.5218 33.4347C60.4558 33.4388 60.3896 33.4293 60.3276 33.407C60.15 33.3469 59.9707 33.4356 59.7903 33.4261C59.7023 33.4221 59.6179 33.4519 59.5386 33.4064Z" fill="white"/>
<path d="M59.5386 33.4064C59.8357 33.389 60.131 33.2644 60.431 33.3896C60.5126 33.4232 60.5873 33.3806 60.6494 33.3492C60.7587 33.2933 60.8786 33.2603 61.0017 33.252C61.1247 33.2438 61.2482 33.2607 61.3642 33.3014C61.4981 33.3441 61.6142 33.2913 61.732 33.2745C62.025 33.2373 62.3219 33.2421 62.6135 33.2885C62.7531 33.3087 62.9008 33.2846 63.0416 33.2835C63.3289 33.2835 63.6163 33.2835 63.9001 33.2835V34.0204C63.8352 34.1535 63.7145 34.1849 63.5841 34.1608C63.2324 34.0956 62.8773 34.1815 62.5221 34.1237C62.3711 34.1096 62.2187 34.1198 62.071 34.154C61.8748 34.1838 61.6753 34.1875 61.478 34.1652C60.9309 34.1125 60.4109 34.2494 59.8799 34.3016C59.765 34.3129 59.6443 34.3488 59.5386 34.2657V33.4064Z" fill="white"/>
<path d="M59.5386 34.2658C59.9351 34.2658 60.3201 34.176 60.7097 34.1249C60.9493 34.0929 61.1918 34.0688 61.4303 34.1249C61.4917 34.1364 61.5552 34.1275 61.6108 34.0997C61.7131 34.0604 61.8102 34.0435 61.909 34.1092C61.9326 34.1229 61.9595 34.1301 61.9869 34.1301C62.0143 34.1301 62.0412 34.1229 62.0647 34.1092C62.231 34.0472 62.4118 34.0318 62.5865 34.0649C62.733 34.0896 62.8738 34.1126 63.0181 34.0772C63.2054 34.0323 63.3881 34.098 63.5732 34.1058C63.6897 34.1168 63.8063 34.085 63.9002 34.0166C63.9002 34.2074 63.9002 34.3983 63.9002 34.5891C63.7657 34.6963 63.622 34.7014 63.4514 34.6739C63.1381 34.622 62.8202 34.6017 62.5026 34.6132C62.1992 34.6301 61.8969 34.6329 61.5941 34.6368C61.3527 34.6396 61.101 34.6188 60.8534 34.6997C60.5482 34.799 60.2178 34.7277 59.9 34.7631C59.7817 34.7766 59.6558 34.8467 59.5386 34.753V34.7115C59.538 34.5655 59.5386 34.4157 59.5386 34.2658Z" fill="white"/>
<path d="M82.5652 28.291C81.2234 28.8259 79.9322 29.4495 78.791 30.3369C78.7036 30.1803 78.7013 30.0001 78.6387 29.8357C78.6077 29.7537 78.6651 29.7234 78.7168 29.6909C79.1352 29.4287 79.5323 29.1391 79.9638 28.8927C80.481 28.5981 81.0367 28.3842 81.5556 28.0957C81.8222 27.9475 82.1251 27.8617 82.4233 27.7427C82.4716 27.9279 82.5193 28.1092 82.5652 28.291Z" fill="white"/>
<path d="M59.538 36.8026C59.8253 36.9025 60.1172 36.8088 60.4 36.7796C61.0063 36.7092 61.6169 36.6798 62.2273 36.6914C62.5147 36.701 62.8054 36.7055 63.0945 36.7139C63.3243 36.7212 63.5496 36.765 63.7783 36.7616C63.8691 36.7616 63.9024 36.802 63.9007 36.8856C63.9007 36.9945 63.9007 37.1034 63.9007 37.2117C63.3772 37.1809 62.8537 37.127 62.3296 37.1264C61.9475 37.1264 61.5625 37.1349 61.1803 37.1506C60.7741 37.1668 60.3758 37.2628 59.9707 37.2505C59.827 37.2471 59.6702 37.3627 59.5403 37.2117C59.4983 37.0995 59.5288 36.9822 59.5196 36.8677C59.5175 36.8445 59.524 36.8214 59.538 36.8026Z" fill="white"/>
<path d="M59.538 36.8436C59.538 36.9667 59.538 37.0894 59.538 37.2118C59.5242 37.3471 59.5685 37.4868 59.507 37.6182C59.507 37.3611 59.507 37.1039 59.507 36.8464C59.5167 36.8251 59.5265 36.8245 59.538 36.8436Z" fill="white"/>
<path d="M63.9007 36.0254V36.3526C63.2864 36.3599 62.6733 36.2814 62.0619 36.2915C61.713 36.2971 61.3573 36.2724 61.008 36.3431C60.7861 36.3874 60.5546 36.3122 60.331 36.3858C60.1684 36.4419 59.9908 36.4149 59.8271 36.4503C59.7782 36.4649 59.7263 36.4675 59.6761 36.4577C59.626 36.4479 59.5791 36.4261 59.5397 36.3942C59.5241 36.3622 59.516 36.3272 59.516 36.2917C59.516 36.2563 59.5241 36.2213 59.5397 36.1893V36.1079C60.0431 36.0731 60.5431 36.0091 61.0459 35.9715C61.3234 35.9502 61.5998 35.9682 61.8768 35.9547C62.2911 35.9339 62.7066 35.9642 63.1221 35.9547C63.3831 35.9588 63.6434 35.9824 63.9007 36.0254Z" fill="white"/>
<path d="M59.538 36.1887C59.538 36.2572 59.538 36.3257 59.538 36.3936C59.538 36.5302 59.538 36.6666 59.538 36.8028V36.8437C59.528 36.8439 59.518 36.8448 59.5081 36.8465C59.5104 36.6271 59.4598 36.4054 59.538 36.1887Z" fill="white"/>
<path d="M59.538 35.3704C59.538 35.275 59.538 35.1796 59.538 35.0842C60.2172 35.0151 60.893 34.9197 61.5774 34.8978C62.1641 34.8793 62.7486 34.8922 63.3335 34.9276C63.5255 34.9394 63.7249 34.8715 63.8996 35.0022C63.8996 35.1386 63.8996 35.275 63.8996 35.4114C63.8358 35.4675 63.7605 35.4614 63.6824 35.4597C62.9118 35.4417 62.1435 35.3901 61.3688 35.4496C60.831 35.4905 60.2942 35.559 59.7546 35.582C59.6765 35.5854 59.6006 35.5888 59.5374 35.5343C59.5386 35.4799 59.538 35.4249 59.538 35.3704Z" fill="white"/>
<path d="M59.5386 35.5342C59.7719 35.51 60.0121 35.4393 60.2362 35.4724C60.5931 35.5285 60.916 35.2979 61.2706 35.4034C61.3734 35.4342 61.5004 35.3849 61.6154 35.3703C62.2308 35.2911 62.8468 35.4124 63.4623 35.3703C63.6088 35.3602 63.7496 35.4348 63.8956 35.4107V35.7379C63.8441 35.7794 63.7833 35.8083 63.7182 35.8223C63.653 35.8363 63.5854 35.8348 63.5209 35.8182C63.0997 35.7385 62.6739 35.7699 62.2492 35.762C61.7607 35.7508 61.2757 35.8092 60.7873 35.8008C60.4678 35.7957 60.1552 35.8922 59.8334 35.9052C59.7288 35.9091 59.6242 35.9383 59.5334 35.8625L59.5386 35.5342Z" fill="white"/>
<path d="M59.5386 35.8615C59.8972 35.8335 60.2598 35.8318 60.6103 35.7375C60.716 35.7088 60.8172 35.7437 60.9206 35.7408C61.5659 35.7234 62.2113 35.706 62.8566 35.7004C63.0864 35.7004 63.3255 35.6898 63.5513 35.7689C63.672 35.8116 63.7812 35.7184 63.9007 35.7386V35.82C63.9007 35.8885 63.9007 35.9569 63.9007 36.0254C63.7186 36.1438 63.5226 36.0378 63.3468 36.0226C63.0956 36.0013 62.8468 36.0282 62.5997 36.0114C62.1343 35.9783 61.667 35.9783 61.2016 36.0114C60.9488 36.0299 60.6925 36.0237 60.4356 36.0804C60.1971 36.1332 59.9362 36.0967 59.6886 36.1691C59.6489 36.1809 59.5891 36.1276 59.5386 36.1045C59.5386 36.0254 59.5386 35.9435 59.5386 35.8615Z" fill="white"/>
<path d="M63.9007 35.0022C63.4054 34.9803 62.9106 34.9461 62.4147 34.9393C62.0509 34.9337 61.6866 34.9601 61.3228 34.9741C60.8277 34.9952 60.3342 35.0445 59.8449 35.1217C59.7417 35.1461 59.6329 35.1327 59.5391 35.0841V34.7569C59.9529 34.6879 60.385 34.7569 60.785 34.6576C61.0505 34.5913 61.3137 34.6267 61.5757 34.5734C61.7377 34.5509 61.9022 34.5528 62.0636 34.579C62.3118 34.6121 62.5457 34.5139 62.7905 34.5678C63.0353 34.6217 63.2973 34.5481 63.5375 34.6441C63.6703 34.6969 63.7731 34.5745 63.899 34.593L63.9007 35.0022Z" fill="white"/>
</g>
<defs>
<clipPath id="clip0_299_1927">
<rect width="100" height="42" fill="white"/>
</clipPath>
</defs>
</svg>
