<svg width="32" height="32" viewBox="0 0 32 32" fill="none" xmlns="http://www.w3.org/2000/svg">
<g clip-path="url(#clip0_235_4052)">
<rect width="32" height="32" rx="16" fill="white"/>
<g clip-path="url(#clip1_235_4052)">
<path d="M0.43949 31H-0.743474C-0.745402 30.9965 -0.746586 30.9926 -0.74695 30.9885C-0.747314 30.9845 -0.74685 30.9804 -0.745588 30.9766C-0.744327 30.9727 -0.742296 30.9692 -0.739618 30.9662C-0.736941 30.9632 -0.733676 30.9607 -0.730026 30.959C-0.70837 30.9461 -0.683795 30.9391 -0.658655 30.9385C-0.320764 30.9323 0.0170129 30.9323 0.354674 30.9385C0.379761 30.9391 0.404295 30.9461 0.426043 30.9587C0.429671 30.9604 0.432909 30.9629 0.435561 30.966C0.438214 30.9691 0.440226 30.9726 0.441481 30.9765C0.442736 30.9803 0.443208 30.9844 0.442866 30.9885C0.442524 30.9925 0.441375 30.9964 0.43949 31Z" fill="#7FCAF8"/>
<path d="M0.439453 31C0.439453 30.9927 0.439453 30.9854 0.439453 30.9781C0.532201 30.9131 0.630121 30.9312 0.728731 30.96C0.732171 30.9618 0.735213 30.9643 0.737668 30.9673C0.740124 30.9703 0.741943 30.9738 0.743009 30.9775C0.744076 30.9813 0.744369 30.9852 0.74387 30.9891C0.743371 30.9929 0.742091 30.9967 0.74011 31H0.439453Z" fill="#B1DEFA"/>
<path d="M0.741577 31C0.741577 30.9931 0.741577 30.9858 0.741577 30.9788C0.768525 30.9525 0.804567 30.9378 0.842082 30.9378C0.879596 30.9378 0.915641 30.9525 0.942589 30.9788C0.942589 30.9861 0.942589 30.9934 0.942589 31.0007L0.741577 31Z" fill="#DBF0FC"/>
<path d="M0.94325 30.9781H0.74224H0.440896H-0.74414H-1.01997H-1.2958C-1.97883 30.9607 -2.66151 30.935 -3.3435 30.8954C-4.15134 30.8482 -4.95814 30.7887 -5.76288 30.7057C-6.43763 30.6362 -7.11306 30.5691 -7.78644 30.4851C-8.50566 30.3951 -9.22317 30.2915 -9.93998 30.1838C-11.0209 30.0212 -12.0973 29.8315 -13.1706 29.6234C-14.936 29.2815 -16.69 28.8914 -18.4328 28.4532C-18.9686 28.318 -19.5041 28.1797 -20.0395 28.0432C-20.083 28.0713 -20.1267 28.0616 -20.1726 28.048C-21.0132 27.7992 -21.8621 27.5856 -22.7016 27.3277C-22.7761 27.3048 -22.8606 27.301 -22.9168 27.2339C-23.8477 26.9445 -24.7803 26.6575 -25.7096 26.3653C-26.0323 26.2635 -26.3574 26.1679 -26.6715 26.0397C-26.6112 25.9685 -26.6494 25.8743 -26.6067 25.7903C-26.5519 25.6832 -26.4805 25.5648 -26.4953 25.4369C-26.5157 25.2604 -26.4153 25.1145 -26.3974 24.9505C-26.3829 24.8174 -26.3819 24.6833 -26.3333 24.5558C-26.3289 24.5391 -26.3309 24.5214 -26.3388 24.5061C-26.4222 24.3209 -26.3967 24.1207 -26.4177 23.9272C-26.4237 23.8816 -26.4204 23.8353 -26.4081 23.791C-26.3774 23.6843 -26.406 23.5857 -26.4622 23.4936C-25.9547 23.6635 -25.4479 23.8358 -24.9389 24.003C-24.4583 24.1607 -23.9756 24.3125 -23.4939 24.4672C-23.4184 24.4428 -23.356 24.4884 -23.2895 24.5089C-22.4319 24.7755 -21.5736 25.0391 -20.7146 25.2997C-20.6909 25.3106 -20.669 25.3253 -20.6498 25.3431C-20.2016 25.4939 -19.743 25.6141 -19.2875 25.7427C-17.2912 26.3055 -15.2799 26.807 -13.2537 27.2471C-11.693 27.5828 -10.1232 27.8704 -8.54428 28.1099C-7.27546 28.2989 -6.00319 28.4532 -4.72472 28.5643C-3.69691 28.6533 -2.66737 28.7148 -1.63576 28.7401C-1.61508 28.7401 -1.59439 28.7443 -1.5737 28.7464C-1.5344 28.769 -1.49164 28.7575 -1.45061 28.7579C-1.12789 28.7579 -0.804824 28.7655 -0.482448 28.7579C-0.155806 28.7539 0.170366 28.784 0.490888 28.8475C2.23586 29.1602 3.98221 29.4681 5.72787 29.7773C6.34263 29.8861 6.95808 29.9931 7.57214 30.1063C7.64317 30.1192 7.75488 30.1063 7.73799 30.2394C7.51624 30.2961 7.2914 30.3397 7.06462 30.3701C7.02359 30.3958 6.97187 30.3621 6.93222 30.3947L6.92532 30.3999L6.91774 30.3961C6.87498 30.4194 6.82292 30.3874 6.78189 30.4204C6.42952 30.4799 6.0737 30.5167 5.72408 30.5921C5.6334 30.6049 5.54479 30.6348 5.45135 30.6237C5.41067 30.6484 5.36171 30.6202 5.32102 30.6449L5.25206 30.6494C5.21103 30.6734 5.16173 30.6452 5.1207 30.6703L5.05174 30.6751C5.01037 30.6984 4.96107 30.671 4.91969 30.6956L4.82763 30.7008C4.78522 30.7224 4.73523 30.6967 4.69316 30.7213C4.59528 30.742 4.49561 30.7528 4.39561 30.7536C4.34562 30.7745 4.28976 30.7446 4.2408 30.7731C3.60812 30.8447 2.97302 30.8902 2.33723 30.9229C1.8728 30.9441 1.40975 30.9593 0.94325 30.9781Z" fill="white"/>
<path d="M1.69517 26.4904C1.69517 26.0557 1.69034 25.6218 1.69034 25.1867C1.69034 21.2735 1.69034 17.36 1.69034 13.4463V13.3646C1.65587 13.3455 1.64552 13.3702 1.63242 13.3834C0.879746 14.17 -0.0204939 14.7551 -0.949698 15.3013C-1.01072 15.3361 -1.0321 15.3197 -1.06175 15.2666C-1.39643 14.6625 -1.7334 14.0595 -2.07267 13.4577C-2.11267 13.3882 -2.08302 13.366 -2.02992 13.3337C-0.668696 12.4998 0.480139 11.4227 1.50554 10.2031C1.78815 9.86907 2.04192 9.51128 2.26407 9.13367C2.30062 9.07113 2.3413 9.05966 2.4044 9.06001C3.01674 9.06174 3.62909 9.06418 4.24143 9.05792C4.34969 9.05792 4.369 9.0885 4.36865 9.19065C4.3659 11.6604 4.36521 14.1301 4.36659 16.5998C4.36659 19.8292 4.36728 23.0588 4.36865 26.2885C4.36865 26.3306 4.36452 26.3726 4.36245 26.4147C4.3549 26.4159 4.34714 26.4149 4.34015 26.4118C4.33316 26.4086 4.32724 26.4034 4.32314 26.3969C4.27867 26.2854 4.31073 26.1683 4.29936 26.0543C4.29936 25.9081 4.29591 25.7618 4.29936 25.6155C4.29936 25.4133 4.29556 25.2107 4.29936 25.0088C4.30177 24.9081 4.26798 24.8601 4.16454 24.8615C3.89975 24.865 3.63805 24.8455 3.37153 24.8841C3.16632 24.9171 2.95871 24.9326 2.75091 24.9303C2.44715 24.9209 2.14236 24.9692 1.83688 24.9567C1.75654 24.9536 1.75655 25.0141 1.75655 25.0707C1.75655 25.2771 1.75448 25.4835 1.75655 25.6902C1.75655 25.8615 1.76034 26.0325 1.75447 26.2037C1.75068 26.2969 1.77275 26.3921 1.73069 26.4817C1.72674 26.4872 1.72101 26.491 1.71451 26.4926C1.708 26.4942 1.70115 26.4934 1.69517 26.4904Z" fill="white"/>
<path d="M12.6691 21.6806C12.5347 21.2595 12.4319 20.8296 12.3205 20.4019C11.7585 18.2496 11.2362 16.0876 10.7535 13.916C10.4008 12.3368 10.0736 10.7524 9.7536 9.16596C9.73877 9.0923 9.74257 9.05825 9.83669 9.0586C10.7465 9.0623 11.6565 9.0623 12.5667 9.0586C12.6357 9.0586 12.6646 9.07076 12.6777 9.14963C12.8991 10.4635 13.1393 11.7736 13.3984 13.08C13.8351 15.2704 14.3178 17.4503 14.8465 19.6198C14.9123 19.8898 14.9747 20.1608 15.0389 20.4311C15.0357 20.4545 15.0257 20.4765 15.0101 20.4941C14.9945 20.5117 14.974 20.5243 14.9513 20.5301C14.7765 20.5593 14.6668 20.7407 14.4772 20.731C14.3858 20.8404 14.2048 20.813 14.1369 20.9631C14.111 21.0201 14.0404 21.027 13.9824 21.0326C13.9219 21.0437 13.8621 21.0587 13.8035 21.0774C13.6045 21.1201 13.4587 21.2824 13.256 21.3102C13.1777 21.437 13.0001 21.4127 12.9167 21.5451C12.8674 21.6246 12.7426 21.6156 12.6691 21.6806Z" fill="#3F3F3F"/>
<path d="M7.73796 30.238C7.72831 30.1498 7.65142 30.1522 7.59556 30.1421C7.07148 30.0466 6.54706 29.9559 6.02264 29.8642C5.39168 29.7532 4.7606 29.6422 4.12941 29.5313C3.3364 29.3899 2.54097 29.2446 1.74589 29.1053C1.13941 28.999 0.530512 28.9062 -0.0718321 28.7752C-0.109187 28.7701 -0.14698 28.7689 -0.184578 28.7718C-0.603841 28.7718 -1.02322 28.7718 -1.44271 28.7718C-1.48684 28.7718 -1.5358 28.7881 -1.57373 28.7481C-0.91553 28.7481 -0.257675 28.761 0.400526 28.7481C1.85886 28.7203 3.31416 28.6029 4.7583 28.3965C6.94391 28.0779 9.06815 27.5317 11.0972 26.6429C11.8619 26.3084 12.6038 25.9233 13.318 25.49C13.3525 25.4685 13.3911 25.4501 13.4277 25.4303C13.4845 25.406 13.5418 25.4192 13.6 25.4303C14.6916 25.621 15.7815 25.8194 16.8731 26.0091C16.9147 26.0138 16.9556 26.0238 16.9948 26.0387C17.0383 26.0578 17.081 26.0804 17.0514 26.1429C16.7438 26.4112 16.4094 26.6436 16.0739 26.8726C14.1003 28.2238 11.9364 29.1494 9.64326 29.7874C9.01299 29.958 8.38064 30.1209 7.73796 30.238Z" fill="#009BF3"/>
<path d="M23.57 14.7165C23.5079 15.1505 23.4024 15.5758 23.2986 16.0021C22.9514 17.4493 22.451 18.8547 21.8061 20.1941C21.5794 20.6602 21.3332 21.1155 21.0675 21.56C21.0489 21.5913 21.0392 21.6312 21.001 21.6475C20.9441 21.6116 20.8805 21.588 20.8141 21.5781C19.9845 21.4276 19.1533 21.2876 18.3244 21.1347C18.2592 21.1225 18.1865 21.1212 18.1561 21.0447C18.4033 20.6695 18.6602 20.3005 18.8919 19.9148C19.8704 18.287 20.5517 16.5382 20.9989 14.6936C21.0075 14.6571 21.0189 14.621 21.0292 14.5845C21.0775 14.4893 21.0858 14.383 21.1044 14.2812C21.121 14.1905 21.1627 14.1748 21.2423 14.187C21.5082 14.2266 21.7712 14.2787 22.0353 14.3239C22.5026 14.4036 22.9693 14.4866 23.4352 14.573C23.5124 14.5859 23.6055 14.5928 23.57 14.7165Z" fill="#00A6F5"/>
<path d="M23.5699 14.7166C23.574 14.6471 23.5334 14.6207 23.4723 14.6095C22.7641 14.484 22.0558 14.3584 21.3474 14.2329C21.3026 14.2249 21.2536 14.2329 21.2095 14.2176C21.144 14.195 21.1291 14.2235 21.1202 14.2795C21.1081 14.3538 21.0857 14.4264 21.0757 14.5008C21.0754 14.5175 21.0708 14.5339 21.0623 14.5483C21.0538 14.5628 21.0418 14.5748 21.0274 14.5831C21.1264 14.0918 21.2343 13.6023 21.3102 13.1068C21.4492 12.2241 21.5314 11.3332 21.556 10.4397C21.556 10.4022 21.556 10.365 21.556 10.3008L19.6866 11.8202C19.6245 11.8473 19.6245 11.815 19.6383 11.7694C20.049 10.9485 20.4597 10.1278 20.8702 9.30738C21.0081 9.02942 21.1536 8.75389 21.2957 8.47731C21.3529 8.4047 21.4281 8.41964 21.5026 8.43284C22.1232 8.54194 22.7396 8.65417 23.3589 8.76153C23.7261 8.82512 24.0933 8.88939 24.4598 8.95784C24.5212 8.96931 24.5856 8.97661 24.626 9.03498C24.8142 9.41718 25.0053 9.80216 25.1907 10.1868C25.4583 10.7381 25.7246 11.2902 25.9896 11.8431C25.9935 11.8544 25.9961 11.866 25.9976 11.8778C25.9551 11.8883 25.942 11.8414 25.9093 11.8389C25.5031 11.4739 25.097 11.1089 24.6908 10.7441C24.4939 10.5679 24.2957 10.3928 24.0816 10.2028C24.0709 10.3661 24.0592 10.5103 24.0523 10.6545C23.9954 11.8926 23.8597 13.1259 23.6461 14.3465C23.6244 14.4709 23.5954 14.5932 23.5699 14.7166Z" fill="#00ACF6"/>
<path d="M18.1561 21.0433C18.3323 21.1274 18.5268 21.1309 18.713 21.1674C19.1267 21.2487 19.5456 21.3192 19.9621 21.3922C20.2724 21.4467 20.5827 21.4985 20.8948 21.5506C20.9517 21.56 21.0044 21.5711 21.001 21.6465C19.9904 23.349 18.7074 24.8083 17.1738 26.0498C17.1349 26.0811 17.0925 26.1082 17.0518 26.1374C17.0476 26.0786 17.0104 26.0679 16.9587 26.0581C16.1408 25.9164 15.3233 25.7729 14.5062 25.6276C14.1466 25.5637 13.788 25.4942 13.4291 25.4272C13.8876 25.1245 14.3466 24.8233 14.7841 24.489C16.0445 23.5342 17.1596 22.3987 18.0941 21.1187C18.111 21.0923 18.1347 21.0687 18.1561 21.0433Z" fill="#009FF4"/>
<path d="M24.6285 9.03461C24.3268 8.95574 24.0172 8.91787 23.7117 8.86089C23.3038 8.7841 22.8942 8.71635 22.4856 8.64373C22.1343 8.58119 21.7829 8.5176 21.4316 8.45541C21.3857 8.44925 21.3389 8.45711 21.2975 8.47799C21.5068 8.05549 21.715 7.63229 21.9257 7.21048C22.2137 6.63394 22.5029 6.05809 22.7932 5.48294C22.8111 5.44819 22.8197 5.40302 22.8645 5.37488C22.9335 5.46591 22.9714 5.57397 23.02 5.67438C23.5515 6.77419 24.0815 7.87446 24.6102 8.9752C24.6179 8.99446 24.624 9.01433 24.6285 9.03461Z" fill="#01B1F7"/>
<path d="M12.6692 21.6806C12.6692 21.6764 12.6692 21.6698 12.6716 21.6684C12.8157 21.584 12.9261 21.4457 13.0933 21.3981C13.1091 21.3936 13.1364 21.3943 13.1398 21.3853C13.2012 21.2272 13.3763 21.2775 13.4784 21.1949C13.5898 21.1049 13.7315 21.0771 13.8535 21.009C13.8777 20.9954 13.9015 21.0041 13.9253 21.002C14.0111 20.9947 14.1104 21.0156 14.1432 20.8884C14.1521 20.8537 14.2097 20.8189 14.2507 20.8092C14.3886 20.7744 14.4976 20.6768 14.6403 20.656C14.6702 20.653 14.6987 20.6421 14.723 20.6243C14.7472 20.6065 14.7663 20.5825 14.7783 20.5548C14.7862 20.5354 14.8027 20.509 14.8224 20.517C14.9238 20.5587 14.9741 20.4756 15.041 20.4322C15.0869 20.664 15.1444 20.8932 15.2134 21.1191C15.2326 21.1492 15.2414 21.1849 15.2385 21.2206C15.0893 21.1827 14.952 21.1917 14.841 21.3172C14.82 21.3404 14.7855 21.3314 14.7569 21.3338C14.6943 21.3376 14.6343 21.3601 14.5845 21.3985C14.4086 21.543 14.1763 21.5847 14.0008 21.7341C13.9373 21.788 13.8342 21.8036 13.7498 21.8383C13.5549 21.9165 13.4077 22.076 13.2064 22.1413C13.0926 22.1781 13.034 22.2966 12.9361 22.3609C12.8892 22.3915 12.9578 22.4777 12.8981 22.5214C12.8075 22.2453 12.7311 21.9647 12.6692 21.6806Z" fill="#3B3B3B"/>
<path d="M12.8932 22.5214C12.8991 22.4797 12.8947 22.4373 12.8804 22.3977C12.8642 22.3522 12.8711 22.3129 12.9325 22.3108C12.9448 22.3121 12.9573 22.3098 12.9683 22.3041C12.9794 22.2984 12.9886 22.2897 12.9949 22.2789C13.0583 22.1677 13.1642 22.11 13.2783 22.0704C13.3797 22.0357 13.448 21.9408 13.5345 21.9054C13.6648 21.8519 13.7758 21.756 13.9138 21.7299C13.9533 21.7238 13.9903 21.7066 14.0206 21.6802C14.136 21.5858 14.2693 21.5162 14.4123 21.4756C14.4906 21.453 14.5158 21.3668 14.5937 21.3477C14.7235 21.3102 14.8489 21.2583 14.9674 21.1931C15.0602 21.1462 15.1519 21.1469 15.2336 21.2209C15.2515 21.3251 15.3067 21.4179 15.3098 21.5249C15.0543 21.625 14.8054 21.7414 14.5489 21.8397C14.3813 21.904 14.2061 21.9644 14.0637 22.0857C14.0189 22.1236 13.9565 22.1298 13.9055 22.1601C13.6297 22.3237 13.3883 22.5423 13.0945 22.6778C13.0404 22.7028 13.0218 22.7698 12.9684 22.7976C12.9311 22.7094 12.9059 22.6165 12.8932 22.5214Z" fill="#393939"/>
<path d="M15.3912 21.8543C15.4641 22.078 15.5242 22.3057 15.5712 22.5363C15.5667 22.5407 15.561 22.5436 15.5549 22.5448C15.5488 22.5459 15.5425 22.5453 15.5367 22.5429C15.5273 22.5346 15.5194 22.5246 15.5136 22.5134C15.4882 22.4375 15.467 22.3603 15.4502 22.282C15.4395 22.2431 15.4247 22.2236 15.3792 22.2424C15.2171 22.3091 15.0471 22.3584 14.8965 22.4509C14.7027 22.5697 14.4827 22.635 14.2879 22.7518C14.0262 22.9081 13.7445 23.0322 13.508 23.2309C13.4504 23.2731 13.3898 23.3108 13.3266 23.3438C13.2404 23.3973 13.2025 23.4599 13.2404 23.5638C13.2648 23.6402 13.2846 23.7181 13.2997 23.7969C13.304 23.8131 13.3037 23.8301 13.2989 23.8462C13.2941 23.8622 13.285 23.8765 13.2725 23.8876C13.1842 23.6201 13.1105 23.3483 13.0481 23.0732C13.0191 23.0148 13.0663 22.9992 13.1018 22.98C13.3794 22.8306 13.617 22.6156 13.8966 22.4728C14.1645 22.3362 14.4248 22.1854 14.7006 22.0628C14.832 22.0044 14.974 21.97 15.0978 21.889C15.183 21.8341 15.284 21.79 15.3912 21.8543Z" fill="#333333"/>
<path d="M15.5391 22.5134C15.5391 22.5218 15.5391 22.5301 15.5391 22.5384C15.6039 22.5895 15.5736 22.6816 15.6218 22.7389C15.6458 22.7869 15.6595 22.8395 15.6622 22.8932C15.4763 22.9766 15.2829 23.0436 15.0967 23.1228C14.9188 23.1979 14.7519 23.29 14.5795 23.3779C14.4509 23.4446 14.3258 23.5228 14.2003 23.5957C13.9327 23.75 13.6979 23.9533 13.4286 24.1037C13.3649 24.1385 13.4286 24.2139 13.3714 24.2427C13.3256 24.1282 13.2918 24.0092 13.2704 23.8876L13.2735 23.7799C13.2611 23.7337 13.3025 23.7253 13.3259 23.7052C13.5328 23.5249 13.7741 23.3956 13.9903 23.2281C14.1227 23.1239 14.2851 23.052 14.4385 22.9804C14.7768 22.8233 15.1071 22.6479 15.456 22.5148C15.4853 22.5044 15.5115 22.488 15.5391 22.5134Z" fill="#292929"/>
<path d="M15.3912 21.8543C15.2693 21.8432 15.1477 21.8787 15.0505 21.9537C15.0074 21.9884 14.9606 22.0183 14.9009 22.0002C14.8912 21.9972 14.8808 21.9966 14.8708 21.9985C14.8608 22.0004 14.8513 22.0046 14.8433 22.011C14.5761 22.1788 14.2834 22.2966 14.0072 22.4471C13.7822 22.572 13.5652 22.7113 13.3576 22.864C13.2759 22.9231 13.1852 22.9613 13.1015 23.0138C13.0756 23.0301 13.049 23.0374 13.047 23.0728C13.0087 22.985 12.9828 22.8923 12.9701 22.7973C12.9942 22.7111 13.0532 22.6639 13.1308 22.6201C13.2687 22.5436 13.4066 22.4735 13.5324 22.3734C13.6779 22.257 13.8331 22.1479 14.011 22.0829C14.0421 22.072 14.0687 22.0506 14.0862 22.0225C14.1007 21.9969 14.1227 21.9765 14.1493 21.9641C14.4527 21.8731 14.7316 21.7191 15.0312 21.6166C15.124 21.5847 15.2036 21.5162 15.3115 21.5246C15.3525 21.6304 15.3793 21.7413 15.3912 21.8543Z" fill="#363636"/>
<path d="M13.3739 24.243C13.335 24.1221 13.4229 24.0912 13.4991 24.028C13.6546 23.8987 13.8397 23.8167 13.9918 23.6805C14.0897 23.5922 14.2269 23.5415 14.3459 23.472C14.5428 23.3581 14.7431 23.249 14.9479 23.1506C15.141 23.0579 15.3409 22.9793 15.5402 22.8994C15.5768 22.8848 15.623 22.8946 15.6647 22.8928C15.6482 22.9693 15.7288 23.0203 15.7161 23.0957C15.71 23.1289 15.6951 23.1599 15.673 23.1853C15.6509 23.2106 15.6225 23.2295 15.5906 23.2399C15.2968 23.3313 15.0331 23.4863 14.7583 23.62C14.3855 23.8011 14.0532 24.0408 13.7149 24.2743C13.6663 24.309 13.6242 24.3493 13.577 24.3834C13.5298 24.4174 13.4843 24.4428 13.4256 24.4181C13.396 24.3642 13.3784 24.3045 13.3739 24.243Z" fill="#222222"/>
<path d="M1.7231 28.4143L1.69896 28.4094C1.67414 28.3698 1.68724 28.3274 1.69 28.2857C1.71448 28.2027 1.67345 28.112 1.72069 28.0317C1.93894 28.0428 2.15408 28.0088 2.37026 27.9866C2.84031 27.9339 3.31431 27.9273 3.78562 27.9667C3.93112 27.9803 4.07834 27.9751 4.2235 27.9984C4.26453 28.005 4.30798 28.0008 4.34245 28.0307C4.35885 28.073 4.3581 28.1202 4.34038 28.162C4.13543 28.2021 3.92813 28.2287 3.71977 28.2419C3.40946 28.2642 3.10121 28.3038 2.79159 28.3302C2.43612 28.3608 2.07892 28.3792 1.7231 28.4143Z" fill="#111111"/>
<path d="M13.4232 24.4182C13.576 24.3862 13.6687 24.2587 13.7921 24.1798C14.0652 24.0061 14.3176 23.8004 14.6134 23.6587C14.8986 23.5228 15.1651 23.3505 15.4668 23.2462C15.5612 23.2139 15.6619 23.1952 15.7143 23.0951C15.8254 23.2848 15.6833 23.3703 15.5644 23.4658C15.4978 23.5193 15.4478 23.594 15.363 23.6239C15.0506 23.7216 14.7769 23.8981 14.4938 24.0558C14.2341 24.2071 13.9865 24.3784 13.7532 24.5683C13.6794 24.626 13.6077 24.7003 13.4977 24.6725C13.4597 24.5923 13.4346 24.5064 13.4232 24.4182Z" fill="#1D1D1D"/>
<path d="M4.34045 28.162C4.34045 28.1199 4.34045 28.0779 4.34045 28.0359C4.32967 28.0256 4.32105 28.0133 4.31513 27.9996C4.3092 27.986 4.30609 27.9712 4.30597 27.9563C4.31873 27.8288 4.25459 27.7944 4.13771 27.7826C3.76327 27.7499 3.38849 27.7457 3.01301 27.745C2.63754 27.7443 2.27447 27.8145 1.90417 27.8378C1.83349 27.8423 1.7604 27.8517 1.70868 27.7843C1.68972 27.7033 1.68972 27.619 1.70868 27.538C1.95003 27.538 2.18207 27.4657 2.42239 27.4657C2.60202 27.4657 2.78028 27.4417 2.95991 27.4372C3.33122 27.4274 3.70278 27.4383 4.07289 27.4699C4.16254 27.4775 4.2577 27.44 4.34217 27.4977C4.36907 27.5734 4.32941 27.6554 4.36458 27.7301C4.36699 27.8552 4.3701 27.9799 4.37148 28.1047C4.37493 28.13 4.37493 28.1585 4.34045 28.162Z" fill="#1B1B1B"/>
<path d="M13.4974 24.6739C13.6642 24.6329 13.7856 24.5127 13.9111 24.4109C14.1009 24.2599 14.3029 24.1254 14.5152 24.0088C14.7565 23.872 14.9937 23.7177 15.2613 23.6266C15.2958 23.6152 15.3278 23.5829 15.3647 23.6232C15.1968 23.799 15.0017 23.9414 14.8131 24.0912C14.4448 24.382 14.0594 24.6471 13.6715 24.9108C13.5974 24.9609 13.5618 24.9657 13.5443 24.8639C13.5312 24.8017 13.4925 24.7427 13.4974 24.6739Z" fill="#181818"/>
<path d="M1.72314 28.4142C1.83244 28.3645 1.95174 28.384 2.06552 28.3708C2.34135 28.3385 2.62235 28.3361 2.9006 28.3124C3.14953 28.2926 3.39744 28.2627 3.64568 28.2381C3.6708 28.2374 3.69592 28.2387 3.72085 28.2419C3.34951 28.3055 2.97404 28.3301 2.59925 28.3607C2.30791 28.3837 2.01656 28.4184 1.72314 28.4142Z" fill="#1B1B1B"/>
<path d="M1.70454 28.2874L1.69902 28.4094C1.69316 28.3989 1.68213 28.3889 1.68213 28.3784C1.68581 27.8839 1.69006 27.3897 1.69489 26.8959C1.69758 26.8935 1.70071 26.8918 1.70409 26.8907C1.70748 26.8896 1.71104 26.8892 1.71458 26.8895C1.71811 26.8898 1.72155 26.8909 1.72468 26.8926C1.72781 26.8942 1.73058 26.8965 1.73281 26.8993C1.75092 26.9309 1.75943 26.9672 1.75729 27.0036C1.7597 27.0682 1.75936 27.1325 1.75729 27.1971C1.75729 27.2478 1.75901 27.2986 1.75729 27.3493C1.75592 27.3716 1.75246 27.3937 1.74695 27.4153C1.70455 27.5444 1.69694 27.6825 1.72488 27.8156C1.75108 27.9744 1.69385 28.1293 1.70454 28.2874Z" fill="white"/>
<path d="M15.2102 21.1195C15.1181 20.9008 15.06 20.6691 15.0378 20.4326C15.1072 20.6583 15.1647 20.8876 15.2102 21.1195Z" fill="#3F3F3F"/>
<path d="M4.34042 26.4147H4.36524C4.37455 26.668 4.37835 26.9213 4.36524 27.1746C4.36247 27.1767 4.35931 27.1782 4.35594 27.179C4.35258 27.1799 4.34908 27.1801 4.34565 27.1795C4.34221 27.179 4.33892 27.1778 4.33595 27.176C4.33298 27.1742 4.3304 27.1718 4.32835 27.169C4.31657 27.1509 4.30957 27.1301 4.30801 27.1085C4.30215 27.0439 4.30421 26.9796 4.30421 26.915C4.30192 26.8344 4.30192 26.7533 4.30421 26.6718C4.30766 26.5905 4.29112 26.5074 4.32456 26.4286L4.34042 26.4147Z" fill="white"/>
<path d="M4.34045 27.1742H4.36597C4.3766 27.3593 4.3766 27.545 4.36597 27.7301C4.31425 27.6606 4.35149 27.5779 4.33976 27.5022C4.29011 27.4424 4.30528 27.3709 4.30528 27.3028C4.30597 27.2576 4.30322 27.2103 4.34045 27.1742Z" fill="white"/>
<path d="M1.72278 26.8959H1.69486C1.68244 26.761 1.68244 26.6253 1.69486 26.4904H1.72244C1.73349 26.4997 1.74204 26.5117 1.74727 26.5252C1.75852 26.5906 1.76222 26.6572 1.7583 26.7236C1.75451 26.7833 1.77071 26.8462 1.72278 26.8959Z" fill="white"/>
<path d="M19.64 11.7691C19.6431 11.7983 19.6535 11.8205 19.6883 11.8198C19.66 11.8633 19.6193 11.8893 19.538 11.9317L19.64 11.7691Z" fill="#3CBFF8"/>
<path d="M15.6225 22.7389C15.5536 22.6893 15.5801 22.6 15.5398 22.5385L15.5712 22.5364C15.5986 22.6008 15.6159 22.6692 15.6225 22.7389Z" fill="#2E2E2E"/>
<path d="M5.72546 30.59C5.78718 30.5205 5.87441 30.548 5.94923 30.5344C6.18886 30.4903 6.43021 30.4548 6.67122 30.4184C6.70851 30.4154 6.74598 30.4154 6.78327 30.4184C6.434 30.4958 6.07991 30.5441 5.72546 30.59Z" fill="#009BF3"/>
<path d="M4.24084 30.771C4.28774 30.7276 4.34428 30.7491 4.39566 30.7516C4.34808 30.7898 4.29325 30.7714 4.24084 30.771Z" fill="#0971B1"/>
<path d="M6.93225 30.3933C6.96949 30.3485 7.01948 30.3721 7.06465 30.3687C7.0233 30.388 6.97774 30.3965 6.93225 30.3933Z" fill="#009BF3"/>
<path d="M6.78186 30.4191C6.82013 30.3725 6.8715 30.3982 6.91736 30.3947C6.875 30.4144 6.82835 30.4228 6.78186 30.4191Z" fill="#009BF3"/>
<path d="M5.12109 30.6682C5.15971 30.6289 5.20798 30.6501 5.25246 30.6474C5.21203 30.6684 5.16597 30.6757 5.12109 30.6682Z" fill="#009BF3"/>
<path d="M4.91968 30.6936C4.95864 30.6543 5.00725 30.6755 5.05173 30.6731C5.01103 30.694 4.96474 30.7012 4.91968 30.6936Z" fill="#009BF3"/>
<path d="M4.69312 30.7193C4.73311 30.6793 4.78207 30.7009 4.82758 30.6988C4.78591 30.7194 4.73896 30.7265 4.69312 30.7193Z" fill="#009BF3"/>
<path d="M5.32239 30.6421C5.361 30.6032 5.40858 30.6244 5.45272 30.6209C5.41265 30.6419 5.36696 30.6493 5.32239 30.6421Z" fill="#009BF3"/>
<path d="M1.72314 25.6801C1.72314 25.4567 1.72314 25.2336 1.72314 25.0106C1.72314 24.9387 1.72314 24.9095 1.8221 24.9129C2.08034 24.9213 2.34135 24.9449 2.59891 24.8782C2.662 24.8615 2.73682 24.8848 2.80578 24.89C2.90921 24.8973 3.01265 24.9039 3.11609 24.8653C3.14968 24.8485 3.18745 24.8419 3.2247 24.8466C3.39433 24.8997 3.5481 24.799 3.7136 24.8021C3.79635 24.8038 3.87703 24.7851 3.95703 24.825C4.0515 24.8719 4.15148 24.8212 4.2494 24.825C4.3556 24.8296 4.34353 24.8712 4.34353 24.9341C4.34353 25.1574 4.34353 25.3806 4.34353 25.6037C4.28664 25.6489 4.2201 25.6489 4.15287 25.6464C3.84463 25.635 3.53604 25.6464 3.22849 25.6179C3.17443 25.6105 3.11943 25.6148 3.06713 25.6304C2.91301 25.6843 2.7613 25.6151 2.60822 25.6263C2.54567 25.6275 2.48396 25.6409 2.42651 25.6659C2.3913 25.6843 2.35265 25.6951 2.31305 25.6976C2.27345 25.7001 2.23377 25.6943 2.19654 25.6805C2.09 25.6433 1.98243 25.6982 1.87416 25.6923C1.82141 25.6899 1.77073 25.7083 1.72314 25.6801Z" fill="white"/>
<path d="M1.72314 25.6801C1.9014 25.6693 2.07862 25.5922 2.2586 25.6697C2.30756 25.6905 2.35238 25.6641 2.38962 25.6447C2.4552 25.6101 2.52717 25.5896 2.601 25.5845C2.67483 25.5795 2.74891 25.5899 2.81854 25.6151C2.89887 25.6415 2.96852 25.6089 3.0392 25.5985C3.21498 25.5754 3.39316 25.5784 3.5681 25.6071C3.65189 25.6196 3.7405 25.6047 3.82497 25.604C3.99737 25.604 4.16976 25.604 4.34008 25.604V26.0602C4.30112 26.1426 4.22872 26.162 4.15045 26.1471C3.93944 26.1068 3.72636 26.1599 3.51328 26.1241C3.42265 26.1154 3.33122 26.1218 3.24263 26.1429C3.12487 26.1613 3.00518 26.1637 2.8868 26.1499C2.55857 26.1172 2.24653 26.202 1.92795 26.2343C1.85899 26.2412 1.78659 26.2635 1.72314 26.2121V25.6801Z" fill="white"/>
<path d="M1.72318 26.2121C1.96108 26.2121 2.19209 26.1565 2.42585 26.1249C2.56963 26.1051 2.71513 26.0901 2.85822 26.1249C2.89503 26.1319 2.93313 26.1264 2.96648 26.1092C3.02785 26.0849 3.08612 26.0745 3.14542 26.1151C3.15956 26.1236 3.1757 26.1281 3.19214 26.1281C3.20859 26.1281 3.22473 26.1236 3.23886 26.1151C3.33864 26.0767 3.44708 26.0672 3.55193 26.0877C3.63985 26.103 3.72432 26.1172 3.81087 26.0953C3.92327 26.0675 4.03291 26.1082 4.14393 26.113C4.21387 26.1198 4.2838 26.1001 4.34011 26.0578C4.34011 26.1759 4.34011 26.2941 4.34011 26.4122C4.25943 26.4786 4.17324 26.4817 4.07084 26.4647C3.88286 26.4326 3.69212 26.42 3.50159 26.4271C3.31955 26.4376 3.13818 26.4393 2.95648 26.4417C2.81167 26.4435 2.66065 26.4306 2.51205 26.4807C2.32897 26.5422 2.13072 26.498 1.94005 26.5199C1.86902 26.5283 1.79351 26.5717 1.72318 26.5137V26.488C1.72283 26.3976 1.72318 26.3048 1.72318 26.2121Z" fill="white"/>
<path d="M15.5392 22.5134C14.7341 22.8445 13.9594 23.2306 13.2746 23.7799C13.2222 23.6829 13.2208 23.5714 13.1832 23.4696C13.1646 23.4189 13.1991 23.4001 13.2301 23.38C13.4811 23.2177 13.7194 23.0384 13.9783 22.8859C14.2886 22.7035 14.622 22.5711 14.9334 22.3925C15.0934 22.3008 15.2751 22.2476 15.454 22.174C15.483 22.2886 15.5116 22.4008 15.5392 22.5134Z" fill="#2E2E2E"/>
<path d="M1.72279 27.7826C1.89518 27.8444 2.07033 27.7864 2.23997 27.7683C2.60377 27.7248 2.97011 27.7065 3.3364 27.7138C3.50879 27.7197 3.68325 27.7224 3.85668 27.7277C3.9946 27.7322 4.12975 27.7593 4.26698 27.7572C4.32146 27.7572 4.34145 27.7822 4.34042 27.834C4.34042 27.9014 4.34042 27.9688 4.34042 28.0358C4.02632 28.0167 3.71222 27.9834 3.39777 27.983C3.16849 27.983 2.93748 27.9882 2.70819 27.998C2.46443 28.0081 2.22549 28.0675 1.98241 28.0598C1.89622 28.0577 1.80209 28.1293 1.72417 28.0358C1.699 27.9664 1.71727 27.8937 1.71176 27.8229C1.7105 27.8085 1.71441 27.7942 1.72279 27.7826Z" fill="#151515"/>
<path d="M1.72284 27.808C1.72284 27.8842 1.72284 27.9602 1.72284 28.0359C1.71456 28.1196 1.74112 28.2062 1.70422 28.2875C1.70422 28.1283 1.70422 27.9691 1.70422 27.8097C1.71009 27.7965 1.71594 27.7962 1.72284 27.808Z" fill="#1B1B1B"/>
<path d="M4.34042 27.3014V27.5039C3.97185 27.5085 3.60396 27.4598 3.2371 27.4661C3.02782 27.4695 2.81439 27.4543 2.60476 27.498C2.47168 27.5255 2.33272 27.4789 2.1986 27.5244C2.10103 27.5592 1.99449 27.5425 1.89622 27.5644C1.86688 27.5735 1.83577 27.575 1.80567 27.569C1.77558 27.5629 1.74746 27.5494 1.72383 27.5297C1.71446 27.5098 1.70959 27.4882 1.70959 27.4662C1.70959 27.4443 1.71446 27.4226 1.72383 27.4028V27.3525C2.02586 27.3309 2.32583 27.2913 2.62752 27.268C2.79405 27.2548 2.95989 27.2659 3.12608 27.2576C3.37467 27.2447 3.62395 27.2635 3.87323 27.2576C4.02985 27.2601 4.18603 27.2748 4.34042 27.3014Z" fill="#1F1F1F"/>
<path d="M1.72285 27.4025C1.72285 27.4449 1.72285 27.4872 1.72285 27.5293C1.72285 27.6138 1.72285 27.6983 1.72285 27.7826V27.8079C1.71684 27.808 1.71084 27.8086 1.70493 27.8097C1.70631 27.6738 1.67596 27.5366 1.72285 27.4025Z" fill="#222222"/>
<path d="M1.72276 26.8959C1.72276 26.8368 1.72276 26.7777 1.72276 26.7187C2.1303 26.6759 2.53577 26.6169 2.94641 26.6033C3.29844 26.5918 3.64909 26.5998 4.00008 26.6217C4.11524 26.629 4.23488 26.587 4.3397 26.6679C4.3397 26.7524 4.3397 26.8368 4.3397 26.9212C4.30143 26.956 4.25626 26.9521 4.20937 26.9511C3.74701 26.94 3.28603 26.908 2.82125 26.9449C2.49853 26.9702 2.1765 27.0126 1.85274 27.0269C1.80585 27.0289 1.76034 27.031 1.72241 26.9973C1.7231 26.9636 1.72276 26.9296 1.72276 26.8959Z" fill="white"/>
<path d="M1.72319 26.9973C1.86318 26.9824 2.0073 26.9386 2.14177 26.9591C2.35588 26.9938 2.54965 26.851 2.76239 26.9164C2.8241 26.9355 2.9003 26.9049 2.96926 26.8959C3.33853 26.8469 3.70814 26.9219 4.07741 26.8959C4.16533 26.8896 4.2498 26.9358 4.33738 26.9209V27.1234C4.30653 27.1491 4.27004 27.1671 4.23094 27.1757C4.19185 27.1843 4.15127 27.1835 4.11258 27.1731C3.85985 27.1238 3.60436 27.1432 3.34956 27.1384C3.05649 27.1314 2.76549 27.1676 2.47242 27.1624C2.28072 27.1592 2.09315 27.219 1.90007 27.227C1.83732 27.2294 1.77457 27.2475 1.72009 27.2006L1.72319 26.9973Z" fill="white"/>
<path d="M1.72314 27.1999C1.93829 27.1825 2.15585 27.1815 2.36617 27.1231C2.42962 27.1054 2.4903 27.1269 2.55236 27.1252C2.93956 27.1144 3.32675 27.1036 3.71395 27.1002C3.85187 27.1002 3.9953 27.0936 4.1308 27.1425C4.20321 27.1689 4.26872 27.1113 4.34043 27.1238V27.1742C4.34043 27.2165 4.34043 27.2589 4.34043 27.3013C4.23113 27.3746 4.11356 27.309 4.00806 27.2996C3.85738 27.2864 3.70809 27.3031 3.55983 27.2926C3.28058 27.2721 3.00022 27.2721 2.72096 27.2926C2.56926 27.3041 2.41548 27.3003 2.26136 27.3354C2.11827 27.368 1.96174 27.3455 1.81313 27.3903C1.78934 27.3976 1.75349 27.3646 1.72314 27.3503C1.72314 27.3013 1.72314 27.2506 1.72314 27.1999Z" fill="white"/>
<path d="M4.34045 26.6679C4.04324 26.6544 3.74638 26.6332 3.44883 26.629C3.23058 26.6255 3.01198 26.6419 2.79373 26.6506C2.49662 26.6636 2.20052 26.6941 1.90694 26.7419C1.84503 26.757 1.77978 26.7487 1.72351 26.7187V26.5161C1.97176 26.4734 2.23104 26.5161 2.47101 26.4546C2.6303 26.4136 2.78822 26.4355 2.94544 26.4025C3.04262 26.3886 3.14134 26.3897 3.23817 26.406C3.38711 26.4265 3.52744 26.3657 3.67432 26.399C3.8212 26.4324 3.97843 26.3868 4.12255 26.4463C4.20219 26.4789 4.26391 26.4032 4.33942 26.4146L4.34045 26.6679Z" fill="white"/>
</g>
</g>
<defs>
<clipPath id="clip0_235_4052">
<rect width="32" height="32" rx="16" fill="white"/>
</clipPath>
<clipPath id="clip1_235_4052">
<rect width="60" height="26" fill="white" transform="translate(-34 5)"/>
</clipPath>
</defs>
</svg>
